<svg width="483" height="95" viewBox="0 0 483 95" fill="none" xmlns="http://www.w3.org/2000/svg">
<g clip-path="url(#clip0_248_591)">
<mask id="mask0_248_591" style="mask-type:luminance" maskUnits="userSpaceOnUse" x="-2" y="18" width="484" height="57">
<path d="M482 18H-2V75H482V18Z" fill="white"/>
<path d="M0.30957 72.9999L21.7393 19.8996H48.8584L70.2881 72.9999H52.4616L48.0366 61.4948H22.4979L18.0729 72.9999H0.30957ZM27.239 49.2312H43.2955L37.1637 33.4276H33.3708L27.239 49.2312ZM74.1077 72.9999V19.8996H109.887C122.024 19.8996 128.219 24.4511 128.219 33.4908C128.219 39.8122 125.185 43.9212 118.8 45.9441C126.006 47.8405 129.61 52.2655 129.61 59.2191C129.61 67.5634 124.489 72.9999 111.657 72.9999H74.1077ZM90.7963 60.1041H106.852C111.214 60.1041 112.921 58.5238 112.921 55.8055C112.921 52.8977 111.277 51.4437 106.852 51.4437H90.7963V60.1041ZM90.7963 41.4558H105.146C109.887 41.4558 111.53 40.0019 111.53 37.094C111.53 34.3126 109.76 32.7954 105.146 32.7954H90.7963V41.4558ZM133.388 46.4498C133.388 29.8243 144.577 19.1411 165.375 19.1411C186.109 19.1411 197.361 29.8243 197.361 46.4498C197.361 63.0752 186.109 73.7585 165.375 73.7585C144.577 73.7585 133.388 63.0752 133.388 46.4498ZM150.14 46.4498C150.14 54.6677 154.755 59.7248 165.375 59.7248C175.932 59.7248 180.546 54.6677 180.546 46.4498C180.546 38.2319 175.932 33.1747 165.375 33.1747C154.755 33.1747 150.14 38.2319 150.14 46.4498ZM231.135 73.7585C213.119 73.7585 202.751 65.9199 202.751 52.2655V19.8996H219.44V51.8862C219.44 56.9434 223.612 59.7248 231.135 59.7248C238.657 59.7248 242.766 56.9434 242.766 51.8862V19.8996H259.455V52.2655C259.455 65.9199 249.151 73.7585 231.135 73.7585ZM285.805 72.9999V33.554H263.554V19.8996H324.682V33.554H302.494V72.9999H285.805ZM349.375 72.9999V19.8996H372.258L386.292 45.0591L399.694 19.8996H422.577V72.9999H406.268V37.5997L392.234 65.2877H380.476L365.684 37.0308V72.9999H349.375ZM430.183 72.9999V19.8996H480.312V33.1747H446.872V40.0019H474.623V51.7598H446.872V59.7248H480.312V72.9999H430.183Z" fill="black"/>
</mask>
<g mask="url(#mask0_248_591)">
<path d="M0.309087 72.9999L-0.618243 72.6257L-1.17285 73.9999H0.309087V72.9999ZM21.7388 19.8996V18.8996H21.064L20.8115 19.5254L21.7388 19.8996ZM48.8579 19.8996L49.7852 19.5254L49.5327 18.8996H48.8579V19.8996ZM70.2876 72.9999V73.9999H71.7696L71.215 72.6257L70.2876 72.9999ZM52.4611 72.9999L51.5278 73.3589L51.7743 73.9999H52.4611V72.9999ZM48.0361 61.4948L48.9695 61.1359L48.7229 60.4948H48.0361V61.4948ZM22.4974 61.4948V60.4948H21.8106L21.5641 61.1359L22.4974 61.4948ZM18.0724 72.9999V73.9999H18.7592L19.0057 73.3589L18.0724 72.9999ZM27.2385 49.2312L26.3062 48.8695L25.7779 50.2312H27.2385V49.2312ZM43.295 49.2312V50.2312H44.7556L44.2273 48.8695L43.295 49.2312ZM37.1632 33.4276L38.0955 33.0658L37.8478 32.4276H37.1632V33.4276ZM33.3703 33.4276V32.4276H32.6857L32.438 33.0658L33.3703 33.4276ZM1.23642 73.3741L22.6662 20.2739L20.8115 19.5254L-0.618243 72.6257L1.23642 73.3741ZM21.7388 20.8996H48.8579V18.8996H21.7388V20.8996ZM47.9306 20.2739L69.3603 73.3741L71.215 72.6257L49.7852 19.5254L47.9306 20.2739ZM70.2876 71.9999H52.4611V73.9999H70.2876V71.9999ZM53.3945 72.6409L48.9695 61.1359L47.1028 61.8538L51.5278 73.3589L53.3945 72.6409ZM48.0361 60.4948H22.4974V62.4948H48.0361V60.4948ZM21.5641 61.1359L17.139 72.6409L19.0057 73.3589L23.4308 61.8538L21.5641 61.1359ZM18.0724 71.9999H0.309087V73.9999H18.0724V71.9999ZM27.2385 50.2312H43.295V48.2312H27.2385V50.2312ZM44.2273 48.8695L38.0955 33.0658L36.2309 33.7893L42.3627 49.5929L44.2273 48.8695ZM37.1632 32.4276H33.3703V34.4276H37.1632V32.4276ZM32.438 33.0658L26.3062 48.8695L28.1708 49.5929L34.3026 33.7893L32.438 33.0658ZM74.1072 72.9999H73.1072V73.9999H74.1072V72.9999ZM74.1072 19.8996V18.8996H73.1072V19.8996H74.1072ZM118.8 45.9441L118.498 44.9908L115.208 46.033L118.546 46.9111L118.8 45.9441ZM90.7958 60.1041H89.7958V61.1041H90.7958V60.1041ZM90.7958 51.4437V50.4437H89.7958V51.4437H90.7958ZM90.7958 41.4558H89.7958V42.4558H90.7958V41.4558ZM90.7958 32.7954V31.7954H89.7958V32.7954H90.7958ZM75.1072 72.9999V19.8996H73.1072V72.9999H75.1072ZM74.1072 20.8996H109.887V18.8996H74.1072V20.8996ZM109.887 20.8996C115.859 20.8996 120.191 22.0243 123.01 24.1093C125.773 26.1536 127.219 29.2243 127.219 33.4908H129.219C129.219 28.7175 127.567 24.9927 124.199 22.5014C120.886 20.0507 116.052 18.8996 109.887 18.8996V20.8996ZM127.219 33.4908C127.219 36.4883 126.502 38.8699 125.104 40.7284C123.704 42.5903 121.549 44.0242 118.498 44.9908L119.102 46.8974C122.436 45.8411 124.99 44.209 126.703 41.9304C128.419 39.6484 129.219 36.8147 129.219 33.4908H127.219ZM118.546 46.9111C122.006 47.8219 124.5 49.3121 126.132 51.3166C127.758 53.3142 128.61 55.9204 128.61 59.2191H130.61C130.61 55.5643 129.659 52.4811 127.683 50.0537C125.712 47.6331 122.8 45.9627 119.054 44.977L118.546 46.9111ZM128.61 59.2191C128.61 63.1783 127.404 66.3059 124.805 68.4702C122.173 70.6625 117.955 71.9999 111.657 71.9999V73.9999C118.191 73.9999 122.949 72.6191 126.085 70.007C129.255 67.367 130.61 63.6042 130.61 59.2191H128.61ZM111.657 71.9999H74.1072V73.9999H111.657V71.9999ZM90.7958 61.1041H106.852V59.1041H90.7958V61.1041ZM106.852 61.1041C109.122 61.1041 110.899 60.699 112.126 59.7718C113.41 58.8009 113.921 57.3909 113.921 55.8055H111.921C111.921 56.9384 111.579 57.6777 110.919 58.1765C110.202 58.7191 108.945 59.1041 106.852 59.1041V61.1041ZM113.921 55.8055C113.921 54.1556 113.444 52.7129 112.148 51.7357C110.921 50.8102 109.133 50.4437 106.852 50.4437V52.4437C108.997 52.4437 110.243 52.8042 110.944 53.3326C111.576 53.8094 111.921 54.5476 111.921 55.8055H113.921ZM106.852 50.4437H90.7958V52.4437H106.852V50.4437ZM89.7958 51.4437V60.1041H91.7958V51.4437H89.7958ZM90.7958 42.4558H105.146V40.4558H90.7958V42.4558ZM105.146 42.4558C107.573 42.4558 109.436 42.0927 110.703 41.1752C112.05 40.1987 112.53 38.7471 112.53 37.094H110.53C110.53 38.3488 110.188 39.0781 109.529 39.5555C108.789 40.092 107.459 40.4558 105.146 40.4558V42.4558ZM112.53 37.094C112.53 35.4684 111.996 34.0481 110.649 33.0875C109.376 32.1794 107.525 31.7954 105.146 31.7954V33.7954C107.381 33.7954 108.722 34.17 109.488 34.7158C110.18 35.2091 110.53 35.9382 110.53 37.094H112.53ZM105.146 31.7954H90.7958V33.7954H105.146V31.7954ZM89.7958 32.7954V41.4558H91.7958V32.7954H89.7958ZM134.388 46.4498C134.388 38.3724 137.098 31.8389 142.243 27.3116C147.404 22.77 155.138 20.1411 165.375 20.1411V18.1411C154.814 18.1411 146.554 20.8538 140.922 25.8101C135.273 30.7809 132.388 37.9017 132.388 46.4498H134.388ZM165.375 20.1411C175.58 20.1411 183.314 22.7697 188.483 27.3121C193.637 31.8402 196.361 38.3741 196.361 46.4498H198.361C198.361 37.9 195.46 30.7796 189.804 25.8097C184.164 20.8541 175.904 18.1411 165.375 18.1411V20.1411ZM196.361 46.4498C196.361 54.5255 193.637 61.0594 188.483 65.5874C183.314 70.1299 175.58 72.7585 165.375 72.7585V74.7585C175.904 74.7585 184.164 72.0454 189.804 67.0899C195.46 62.12 198.361 54.9995 198.361 46.4498H196.361ZM165.375 72.7585C155.138 72.7585 147.404 70.1295 142.243 65.5879C137.098 61.0607 134.388 54.5272 134.388 46.4498H132.388C132.388 54.9978 135.273 62.1187 140.922 67.0894C146.554 72.0458 154.814 74.7585 165.375 74.7585V72.7585ZM149.14 46.4498C149.14 50.7435 150.35 54.3672 153.096 56.9036C155.829 59.4274 159.922 60.7248 165.375 60.7248V58.7248C160.208 58.7248 156.683 57.4937 154.453 55.4344C152.237 53.3878 151.14 50.3739 151.14 46.4498H149.14ZM165.375 60.7248C170.798 60.7248 174.875 59.4267 177.599 56.9026C180.336 54.3663 181.546 50.7434 181.546 46.4498H179.546C179.546 50.374 178.449 53.3887 176.24 55.4355C174.018 57.4944 170.509 58.7248 165.375 58.7248V60.7248ZM181.546 46.4498C181.546 42.1561 180.336 38.5333 177.599 35.997C174.875 33.4729 170.798 32.1747 165.375 32.1747V34.1747C170.509 34.1747 174.018 35.4051 176.24 37.4641C178.449 39.5109 179.546 42.5255 179.546 46.4498H181.546ZM165.375 32.1747C159.922 32.1747 155.829 33.4722 153.096 35.9959C150.35 38.5324 149.14 42.156 149.14 46.4498H151.14C151.14 42.5256 152.237 39.5117 154.453 37.4652C156.683 35.4058 160.208 34.1747 165.375 34.1747V32.1747ZM202.751 19.8996V18.8996H201.751V19.8996H202.751ZM219.44 19.8996H220.44V18.8996H219.44V19.8996ZM242.766 19.8996V18.8996H241.766V19.8996H242.766ZM259.455 19.8996H260.455V18.8996H259.455V19.8996ZM231.135 72.7585C222.253 72.7585 215.4 70.8238 210.791 67.335C206.22 63.8755 203.751 58.8104 203.751 52.2655H201.751C201.751 59.375 204.466 65.0563 209.584 68.9297C214.662 72.7739 222 74.7585 231.135 74.7585V72.7585ZM203.751 52.2655V19.8996H201.751V52.2655H203.751ZM202.751 20.8996H219.44V18.8996H202.751V20.8996ZM218.44 19.8996V51.8862H220.44V19.8996H218.44ZM218.44 51.8862C218.44 54.7359 219.639 57.0129 221.91 58.533C224.125 60.0154 227.275 60.7248 231.135 60.7248V58.7248C227.472 58.7248 224.775 58.0436 223.023 56.8709C221.327 55.736 220.44 54.0938 220.44 51.8862H218.44ZM231.135 60.7248C234.994 60.7248 238.13 60.0155 240.331 58.5309C242.588 57.0081 243.766 54.73 243.766 51.8862H241.766C241.766 54.0996 240.89 55.7408 239.212 56.873C237.477 58.0434 234.798 58.7248 231.135 58.7248V60.7248ZM243.766 51.8862V19.8996H241.766V51.8862H243.766ZM242.766 20.8996H259.455V18.8996H242.766V20.8996ZM258.455 19.8996V52.2655H260.455V19.8996H258.455ZM258.455 52.2655C258.455 58.8126 256 63.8775 251.446 67.336C246.853 70.8238 240.017 72.7585 231.135 72.7585V74.7585C240.269 74.7585 247.592 72.7739 252.656 68.9288C257.758 65.0544 260.455 59.3728 260.455 52.2655H258.455ZM285.805 72.9999H284.805V73.9999H285.805V72.9999ZM285.805 33.554H286.805V32.554H285.805V33.554ZM263.554 33.554H262.554V34.554H263.554V33.554ZM263.554 19.8996V18.8996H262.554V19.8996H263.554ZM324.682 19.8996H325.682V18.8996H324.682V19.8996ZM324.682 33.554V34.554H325.682V33.554H324.682ZM302.494 33.554V32.554H301.494V33.554H302.494ZM302.494 72.9999V73.9999H303.494V72.9999H302.494ZM286.805 72.9999V33.554H284.805V72.9999H286.805ZM285.805 32.554H263.554V34.554H285.805V32.554ZM264.554 33.554V19.8996H262.554V33.554H264.554ZM263.554 20.8996H324.682V18.8996H263.554V20.8996ZM323.682 19.8996V33.554H325.682V19.8996H323.682ZM324.682 32.554H302.494V34.554H324.682V32.554ZM301.494 33.554V72.9999H303.494V33.554H301.494ZM302.494 71.9999H285.805V73.9999H302.494V71.9999ZM349.375 72.9999H348.375V73.9999H349.375V72.9999ZM349.375 19.8996V18.8996H348.375V19.8996H349.375ZM372.258 19.8996L373.132 19.4125L372.846 18.8996H372.258V19.8996ZM386.292 45.0591L385.419 45.5462L386.312 47.1481L387.175 45.5292L386.292 45.0591ZM399.694 19.8996V18.8996H399.093L398.811 19.4295L399.694 19.8996ZM422.577 19.8996H423.577V18.8996H422.577V19.8996ZM422.577 72.9999V73.9999H423.577V72.9999H422.577ZM406.268 72.9999H405.268V73.9999H406.268V72.9999ZM406.268 37.5997H407.268L405.376 37.1476L406.268 37.5997ZM392.234 65.2877V66.2877H392.848L393.126 65.7398L392.234 65.2877ZM380.476 65.2877L379.59 65.7515L379.871 66.2877H380.476V65.2877ZM365.684 37.0308L366.57 36.567L364.684 37.0308H365.684ZM365.684 72.9999V73.9999H366.684V72.9999H365.684ZM350.375 72.9999V19.8996H348.375V72.9999H350.375ZM349.375 20.8996H372.258V18.8996H349.375V20.8996ZM371.385 20.3868L385.419 45.5462L387.165 44.5719L373.132 19.4125L371.385 20.3868ZM387.175 45.5292L400.576 20.3698L398.811 19.4295L385.409 44.5889L387.175 45.5292ZM399.694 20.8996H422.577V18.8996H399.694V20.8996ZM421.577 19.8996V72.9999H423.577V19.8996H421.577ZM422.577 71.9999H406.268V73.9999H422.577V71.9999ZM407.268 72.9999V37.5997H405.268V72.9999H407.268ZM405.376 37.1476L391.342 64.8356L393.126 65.7398L407.16 38.0518L405.376 37.1476ZM392.234 64.2877H380.476V66.2877H392.234V64.2877ZM381.362 64.8239L366.57 36.567L364.798 37.4946L379.59 65.7515L381.362 64.8239ZM364.684 37.0308V72.9999H366.684V37.0308H364.684ZM365.684 71.9999H349.375V73.9999H365.684V71.9999ZM430.183 72.9999H429.183V73.9999H430.183V72.9999ZM430.183 19.8996V18.8996H429.183V19.8996H430.183ZM480.312 19.8996H481.312V18.8996H480.312V19.8996ZM480.312 33.1747V34.1747H481.312V33.1747H480.312ZM446.872 33.1747V32.1747H445.872V33.1747H446.872ZM446.872 40.0019H445.872V41.0019H446.872V40.0019ZM474.623 40.0019H475.623V39.0019H474.623V40.0019ZM474.623 51.7598V52.7598H475.623V51.7598H474.623ZM446.872 51.7598V50.7598H445.872V51.7598H446.872ZM446.872 59.7248H445.872V60.7248H446.872V59.7248ZM480.312 59.7248H481.312V58.7248H480.312V59.7248ZM480.312 72.9999V73.9999H481.312V72.9999H480.312ZM431.183 72.9999V19.8996H429.183V72.9999H431.183ZM430.183 20.8996H480.312V18.8996H430.183V20.8996ZM479.312 19.8996V33.1747H481.312V19.8996H479.312ZM480.312 32.1747H446.872V34.1747H480.312V32.1747ZM445.872 33.1747V40.0019H447.872V33.1747H445.872ZM446.872 41.0019H474.623V39.0019H446.872V41.0019ZM473.623 40.0019V51.7598H475.623V40.0019H473.623ZM474.623 50.7598H446.872V52.7598H474.623V50.7598ZM445.872 51.7598V59.7248H447.872V51.7598H445.872ZM446.872 60.7248H480.312V58.7248H446.872V60.7248ZM479.312 59.7248V72.9999H481.312V59.7248H479.312ZM480.312 71.9999H430.183V73.9999H480.312V71.9999Z" fill="black" fill-opacity="0.3"/>
</g>
<path d="M0.30957 62.9999L21.7393 9.89968H48.8584L70.2881 62.9999H52.4616L48.0366 51.4948H22.4979L18.0729 62.9999H0.30957ZM27.239 39.2312H43.2955L37.1637 23.4276H33.3708L27.239 39.2312ZM74.1077 62.9999V9.89968H109.887C122.024 9.89968 128.219 14.4511 128.219 23.4908C128.219 29.8122 125.185 33.9212 118.8 35.9441C126.006 37.8405 129.61 42.2655 129.61 49.2191C129.61 57.5634 124.489 62.9999 111.657 62.9999H74.1077ZM90.7963 50.1041H106.852C111.214 50.1041 112.921 48.5238 112.921 45.8055C112.921 42.8977 111.277 41.4437 106.852 41.4437H90.7963V50.1041ZM90.7963 31.4558H105.146C109.887 31.4558 111.53 30.0019 111.53 27.094C111.53 24.3126 109.76 22.7954 105.146 22.7954H90.7963V31.4558ZM133.388 36.4498C133.388 19.8243 144.577 9.14111 165.375 9.14111C186.109 9.14111 197.361 19.8243 197.361 36.4498C197.361 53.0752 186.109 63.7585 165.375 63.7585C144.577 63.7585 133.388 53.0752 133.388 36.4498ZM150.14 36.4498C150.14 44.6677 154.755 49.7248 165.375 49.7248C175.932 49.7248 180.546 44.6677 180.546 36.4498C180.546 28.2319 175.932 23.1747 165.375 23.1747C154.755 23.1747 150.14 28.2319 150.14 36.4498ZM231.135 63.7585C213.119 63.7585 202.751 55.9199 202.751 42.2655V9.89968H219.44V41.8862C219.44 46.9434 223.612 49.7248 231.135 49.7248C238.657 49.7248 242.766 46.9434 242.766 41.8862V9.89968H259.455V42.2655C259.455 55.9199 249.151 63.7585 231.135 63.7585ZM285.805 62.9999V23.554H263.554V9.89968H324.682V23.554H302.494V62.9999H285.805ZM349.375 62.9999V9.89968H372.258L386.292 35.0591L399.694 9.89968H422.577V62.9999H406.268V27.5997L392.234 55.2877H380.476L365.684 27.0308V62.9999H349.375ZM430.183 62.9999V9.89968H480.312V23.1747H446.872V30.0019H474.623V41.7598H446.872V49.7248H480.312V62.9999H430.183Z" fill="black"/>
</g>
<defs>
<clipPath id="clip0_248_591">
<rect width="483" height="95" fill="white"/>
</clipPath>
</defs>
</svg>
