<svg width="483" height="95" viewBox="0 0 483 95" fill="none" xmlns="http://www.w3.org/2000/svg">
<mask id="path-1-outside-1_199_2704" maskUnits="userSpaceOnUse" x="-2" y="18" width="484" height="57" fill="black">
<rect fill="white" x="-2" y="18" width="484" height="57"/>
<path d="M0.309189 73L21.7389 19.8997H48.858L70.2877 73H52.4612L48.0362 61.4949H22.4975L18.0725 73H0.309189ZM27.2386 49.2313H43.2951L37.1633 33.4277H33.3704L27.2386 49.2313ZM74.1073 73V19.8997H109.887C122.024 19.8997 128.219 24.4512 128.219 33.4909C128.219 39.8123 125.185 43.9213 118.8 45.9442C126.006 47.8406 129.61 52.2656 129.61 59.2192C129.61 67.5635 124.489 73 111.657 73H74.1073ZM90.7959 60.1042H106.852C111.214 60.1042 112.921 58.5239 112.921 55.8056C112.921 52.8978 111.277 51.4438 106.852 51.4438H90.7959V60.1042ZM90.7959 41.4559H105.146C109.887 41.4559 111.53 40.002 111.53 37.0941C111.53 34.3127 109.76 32.7955 105.146 32.7955H90.7959V41.4559ZM133.388 46.4499C133.388 29.8244 144.577 19.1412 165.375 19.1412C186.109 19.1412 197.361 29.8244 197.361 46.4499C197.361 63.0753 186.109 73.7586 165.375 73.7586C144.577 73.7586 133.388 63.0753 133.388 46.4499ZM150.14 46.4499C150.14 54.6678 154.755 59.7249 165.375 59.7249C175.932 59.7249 180.546 54.6678 180.546 46.4499C180.546 38.232 175.932 33.1748 165.375 33.1748C154.755 33.1748 150.14 38.232 150.14 46.4499ZM231.135 73.7586C213.119 73.7586 202.751 65.92 202.751 52.2656V19.8997H219.44V51.8863C219.44 56.9435 223.612 59.7249 231.135 59.7249C238.657 59.7249 242.766 56.9435 242.766 51.8863V19.8997H259.455V52.2656C259.455 65.92 249.151 73.7586 231.135 73.7586ZM285.805 73V33.5541H263.554V19.8997H324.682V33.5541H302.494V73H285.805ZM349.375 73V19.8997H372.258L386.292 45.0592L399.694 19.8997H422.577V73H406.268V37.5998L392.234 65.2878H380.476L365.684 37.0309V73H349.375ZM430.183 73V19.8997H480.312V33.1748H446.872V40.002H474.623V51.7599H446.872V59.7249H480.312V73H430.183Z"/>
</mask>
<path d="M0.309189 73L-0.618141 72.6258L-1.17275 74H0.309189V73ZM21.7389 19.8997V18.8997H21.0641L20.8116 19.5255L21.7389 19.8997ZM48.858 19.8997L49.7853 19.5255L49.5328 18.8997H48.858V19.8997ZM70.2877 73V74H71.7697L71.2151 72.6258L70.2877 73ZM52.4612 73L51.5279 73.359L51.7744 74H52.4612V73ZM48.0362 61.4949L48.9696 61.136L48.723 60.4949H48.0362V61.4949ZM22.4975 61.4949V60.4949H21.8107L21.5642 61.136L22.4975 61.4949ZM18.0725 73V74H18.7593L19.0058 73.359L18.0725 73ZM27.2386 49.2313L26.3063 48.8696L25.778 50.2313H27.2386V49.2313ZM43.2951 49.2313V50.2313H44.7557L44.2274 48.8696L43.2951 49.2313ZM37.1633 33.4277L38.0956 33.0659L37.8479 32.4277H37.1633V33.4277ZM33.3704 33.4277V32.4277H32.6858L32.4381 33.0659L33.3704 33.4277ZM1.23652 73.3742L22.6663 20.274L20.8116 19.5255L-0.618141 72.6258L1.23652 73.3742ZM21.7389 20.8997H48.858V18.8997H21.7389V20.8997ZM47.9307 20.274L69.3604 73.3742L71.2151 72.6258L49.7853 19.5255L47.9307 20.274ZM70.2877 72H52.4612V74H70.2877V72ZM53.3946 72.641L48.9696 61.136L47.1029 61.8539L51.5279 73.359L53.3946 72.641ZM48.0362 60.4949H22.4975V62.4949H48.0362V60.4949ZM21.5642 61.136L17.1391 72.641L19.0058 73.359L23.4309 61.8539L21.5642 61.136ZM18.0725 72H0.309189V74H18.0725V72ZM27.2386 50.2313H43.2951V48.2313H27.2386V50.2313ZM44.2274 48.8696L38.0956 33.0659L36.231 33.7894L42.3628 49.593L44.2274 48.8696ZM37.1633 32.4277H33.3704V34.4277H37.1633V32.4277ZM32.4381 33.0659L26.3063 48.8696L28.1709 49.593L34.3027 33.7894L32.4381 33.0659ZM74.1073 73H73.1073V74H74.1073V73ZM74.1073 19.8997V18.8997H73.1073V19.8997H74.1073ZM118.8 45.9442L118.498 44.9909L115.208 46.0331L118.546 46.9112L118.8 45.9442ZM90.7959 60.1042H89.7959V61.1042H90.7959V60.1042ZM90.7959 51.4438V50.4438H89.7959V51.4438H90.7959ZM90.7959 41.4559H89.7959V42.4559H90.7959V41.4559ZM90.7959 32.7955V31.7955H89.7959V32.7955H90.7959ZM75.1073 73V19.8997H73.1073V73H75.1073ZM74.1073 20.8997H109.887V18.8997H74.1073V20.8997ZM109.887 20.8997C115.859 20.8997 120.191 22.0244 123.01 24.1094C125.773 26.1537 127.219 29.2244 127.219 33.4909H129.219C129.219 28.7176 127.567 24.9928 124.199 22.5015C120.886 20.0508 116.052 18.8997 109.887 18.8997V20.8997ZM127.219 33.4909C127.219 36.4884 126.502 38.87 125.104 40.7285C123.704 42.5904 121.549 44.0243 118.498 44.9909L119.102 46.8975C122.436 45.8412 124.99 44.2091 126.703 41.9305C128.419 39.6485 129.219 36.8148 129.219 33.4909H127.219ZM118.546 46.9112C122.006 47.822 124.5 49.3122 126.132 51.3167C127.758 53.3143 128.61 55.9205 128.61 59.2192H130.61C130.61 55.5644 129.659 52.4812 127.683 50.0538C125.712 47.6332 122.8 45.9628 119.054 44.9771L118.546 46.9112ZM128.61 59.2192C128.61 63.1784 127.404 66.306 124.805 68.4703C122.173 70.6626 117.955 72 111.657 72V74C118.191 74 122.949 72.6192 126.085 70.0071C129.255 67.3671 130.61 63.6043 130.61 59.2192H128.61ZM111.657 72H74.1073V74H111.657V72ZM90.7959 61.1042H106.852V59.1042H90.7959V61.1042ZM106.852 61.1042C109.122 61.1042 110.899 60.6991 112.126 59.7719C113.41 58.801 113.921 57.391 113.921 55.8056H111.921C111.921 56.9385 111.579 57.6778 110.919 58.1766C110.202 58.7192 108.945 59.1042 106.852 59.1042V61.1042ZM113.921 55.8056C113.921 54.1557 113.444 52.713 112.148 51.7358C110.921 50.8103 109.133 50.4438 106.852 50.4438V52.4438C108.997 52.4438 110.243 52.8043 110.944 53.3327C111.576 53.8095 111.921 54.5477 111.921 55.8056H113.921ZM106.852 50.4438H90.7959V52.4438H106.852V50.4438ZM89.7959 51.4438V60.1042H91.7959V51.4438H89.7959ZM90.7959 42.4559H105.146V40.4559H90.7959V42.4559ZM105.146 42.4559C107.573 42.4559 109.436 42.0928 110.703 41.1753C112.05 40.1988 112.53 38.7472 112.53 37.0941H110.53C110.53 38.3489 110.188 39.0782 109.529 39.5556C108.789 40.0921 107.459 40.4559 105.146 40.4559V42.4559ZM112.53 37.0941C112.53 35.4685 111.996 34.0482 110.649 33.0876C109.376 32.1795 107.525 31.7955 105.146 31.7955V33.7955C107.381 33.7955 108.722 34.1701 109.488 34.7159C110.18 35.2092 110.53 35.9383 110.53 37.0941H112.53ZM105.146 31.7955H90.7959V33.7955H105.146V31.7955ZM89.7959 32.7955V41.4559H91.7959V32.7955H89.7959ZM134.388 46.4499C134.388 38.3725 137.098 31.839 142.243 27.3117C147.404 22.7701 155.138 20.1412 165.375 20.1412V18.1412C154.814 18.1412 146.554 20.8539 140.922 25.8102C135.273 30.781 132.388 37.9018 132.388 46.4499H134.388ZM165.375 20.1412C175.58 20.1412 183.314 22.7698 188.483 27.3122C193.637 31.8403 196.361 38.3742 196.361 46.4499H198.361C198.361 37.9001 195.46 30.7797 189.804 25.8098C184.164 20.8542 175.904 18.1412 165.375 18.1412V20.1412ZM196.361 46.4499C196.361 54.5256 193.637 61.0595 188.483 65.5875C183.314 70.13 175.58 72.7586 165.375 72.7586V74.7586C175.904 74.7586 184.164 72.0455 189.804 67.09C195.46 62.1201 198.361 54.9996 198.361 46.4499H196.361ZM165.375 72.7586C155.138 72.7586 147.404 70.1296 142.243 65.588C137.098 61.0608 134.388 54.5273 134.388 46.4499H132.388C132.388 54.9979 135.273 62.1188 140.922 67.0895C146.554 72.0459 154.814 74.7586 165.375 74.7586V72.7586ZM149.14 46.4499C149.14 50.7436 150.35 54.3673 153.096 56.9037C155.829 59.4275 159.922 60.7249 165.375 60.7249V58.7249C160.208 58.7249 156.683 57.4938 154.453 55.4345C152.237 53.3879 151.14 50.374 151.14 46.4499H149.14ZM165.375 60.7249C170.798 60.7249 174.875 59.4268 177.599 56.9027C180.336 54.3664 181.546 50.7435 181.546 46.4499H179.546C179.546 50.3741 178.449 53.3888 176.24 55.4356C174.018 57.4945 170.509 58.7249 165.375 58.7249V60.7249ZM181.546 46.4499C181.546 42.1562 180.336 38.5334 177.599 35.9971C174.875 33.473 170.798 32.1748 165.375 32.1748V34.1748C170.509 34.1748 174.018 35.4052 176.24 37.4642C178.449 39.511 179.546 42.5256 179.546 46.4499H181.546ZM165.375 32.1748C159.922 32.1748 155.829 33.4723 153.096 35.996C150.35 38.5325 149.14 42.1561 149.14 46.4499H151.14C151.14 42.5257 152.237 39.5118 154.453 37.4653C156.683 35.4059 160.208 34.1748 165.375 34.1748V32.1748ZM202.751 19.8997V18.8997H201.751V19.8997H202.751ZM219.44 19.8997H220.44V18.8997H219.44V19.8997ZM242.766 19.8997V18.8997H241.766V19.8997H242.766ZM259.455 19.8997H260.455V18.8997H259.455V19.8997ZM231.135 72.7586C222.253 72.7586 215.4 70.8239 210.791 67.3351C206.22 63.8756 203.751 58.8105 203.751 52.2656H201.751C201.751 59.3751 204.466 65.0564 209.584 68.9298C214.662 72.774 222 74.7586 231.135 74.7586V72.7586ZM203.751 52.2656V19.8997H201.751V52.2656H203.751ZM202.751 20.8997H219.44V18.8997H202.751V20.8997ZM218.44 19.8997V51.8863H220.44V19.8997H218.44ZM218.44 51.8863C218.44 54.736 219.639 57.013 221.91 58.5331C224.125 60.0155 227.275 60.7249 231.135 60.7249V58.7249C227.472 58.7249 224.775 58.0437 223.023 56.871C221.327 55.7361 220.44 54.0939 220.44 51.8863H218.44ZM231.135 60.7249C234.994 60.7249 238.13 60.0156 240.331 58.531C242.588 57.0082 243.766 54.7301 243.766 51.8863H241.766C241.766 54.0997 240.89 55.7409 239.212 56.8731C237.477 58.0435 234.798 58.7249 231.135 58.7249V60.7249ZM243.766 51.8863V19.8997H241.766V51.8863H243.766ZM242.766 20.8997H259.455V18.8997H242.766V20.8997ZM258.455 19.8997V52.2656H260.455V19.8997H258.455ZM258.455 52.2656C258.455 58.8127 256 63.8776 251.446 67.3361C246.853 70.8239 240.017 72.7586 231.135 72.7586V74.7586C240.269 74.7586 247.592 72.774 252.656 68.9289C257.758 65.0545 260.455 59.3729 260.455 52.2656H258.455ZM285.805 73H284.805V74H285.805V73ZM285.805 33.5541H286.805V32.5541H285.805V33.5541ZM263.554 33.5541H262.554V34.5541H263.554V33.5541ZM263.554 19.8997V18.8997H262.554V19.8997H263.554ZM324.682 19.8997H325.682V18.8997H324.682V19.8997ZM324.682 33.5541V34.5541H325.682V33.5541H324.682ZM302.494 33.5541V32.5541H301.494V33.5541H302.494ZM302.494 73V74H303.494V73H302.494ZM286.805 73V33.5541H284.805V73H286.805ZM285.805 32.5541H263.554V34.5541H285.805V32.5541ZM264.554 33.5541V19.8997H262.554V33.5541H264.554ZM263.554 20.8997H324.682V18.8997H263.554V20.8997ZM323.682 19.8997V33.5541H325.682V19.8997H323.682ZM324.682 32.5541H302.494V34.5541H324.682V32.5541ZM301.494 33.5541V73H303.494V33.5541H301.494ZM302.494 72H285.805V74H302.494V72ZM349.375 73H348.375V74H349.375V73ZM349.375 19.8997V18.8997H348.375V19.8997H349.375ZM372.258 19.8997L373.132 19.4126L372.846 18.8997H372.258V19.8997ZM386.292 45.0592L385.419 45.5463L386.312 47.1482L387.175 45.5293L386.292 45.0592ZM399.694 19.8997V18.8997H399.093L398.811 19.4296L399.694 19.8997ZM422.577 19.8997H423.577V18.8997H422.577V19.8997ZM422.577 73V74H423.577V73H422.577ZM406.268 73H405.268V74H406.268V73ZM406.268 37.5998H407.268L405.376 37.1477L406.268 37.5998ZM392.234 65.2878V66.2878H392.848L393.126 65.7399L392.234 65.2878ZM380.476 65.2878L379.59 65.7516L379.871 66.2878H380.476V65.2878ZM365.684 37.0309L366.57 36.5671L364.684 37.0309H365.684ZM365.684 73V74H366.684V73H365.684ZM350.375 73V19.8997H348.375V73H350.375ZM349.375 20.8997H372.258V18.8997H349.375V20.8997ZM371.385 20.3869L385.419 45.5463L387.165 44.572L373.132 19.4126L371.385 20.3869ZM387.175 45.5293L400.576 20.3699L398.811 19.4296L385.409 44.589L387.175 45.5293ZM399.694 20.8997H422.577V18.8997H399.694V20.8997ZM421.577 19.8997V73H423.577V19.8997H421.577ZM422.577 72H406.268V74H422.577V72ZM407.268 73V37.5998H405.268V73H407.268ZM405.376 37.1477L391.342 64.8357L393.126 65.7399L407.16 38.0519L405.376 37.1477ZM392.234 64.2878H380.476V66.2878H392.234V64.2878ZM381.362 64.824L366.57 36.5671L364.798 37.4947L379.59 65.7516L381.362 64.824ZM364.684 37.0309V73H366.684V37.0309H364.684ZM365.684 72H349.375V74H365.684V72ZM430.183 73H429.183V74H430.183V73ZM430.183 19.8997V18.8997H429.183V19.8997H430.183ZM480.312 19.8997H481.312V18.8997H480.312V19.8997ZM480.312 33.1748V34.1748H481.312V33.1748H480.312ZM446.872 33.1748V32.1748H445.872V33.1748H446.872ZM446.872 40.002H445.872V41.002H446.872V40.002ZM474.623 40.002H475.623V39.002H474.623V40.002ZM474.623 51.7599V52.7599H475.623V51.7599H474.623ZM446.872 51.7599V50.7599H445.872V51.7599H446.872ZM446.872 59.7249H445.872V60.7249H446.872V59.7249ZM480.312 59.7249H481.312V58.7249H480.312V59.7249ZM480.312 73V74H481.312V73H480.312ZM431.183 73V19.8997H429.183V73H431.183ZM430.183 20.8997H480.312V18.8997H430.183V20.8997ZM479.312 19.8997V33.1748H481.312V19.8997H479.312ZM480.312 32.1748H446.872V34.1748H480.312V32.1748ZM445.872 33.1748V40.002H447.872V33.1748H445.872ZM446.872 41.002H474.623V39.002H446.872V41.002ZM473.623 40.002V51.7599H475.623V40.002H473.623ZM474.623 50.7599H446.872V52.7599H474.623V50.7599ZM445.872 51.7599V59.7249H447.872V51.7599H445.872ZM446.872 60.7249H480.312V58.7249H446.872V60.7249ZM479.312 59.7249V73H481.312V59.7249H479.312ZM480.312 72H430.183V74H480.312V72Z" fill="white" fill-opacity="0.3" mask="url(#path-1-outside-1_199_2704)"/>
<path d="M0.309189 63L21.7389 9.89974H48.858L70.2877 63H52.4612L48.0362 51.4949H22.4975L18.0725 63H0.309189ZM27.2386 39.2313H43.2951L37.1633 23.4277H33.3704L27.2386 39.2313ZM74.1073 63V9.89974H109.887C122.024 9.89974 128.219 14.4512 128.219 23.4909C128.219 29.8123 125.185 33.9213 118.8 35.9442C126.006 37.8406 129.61 42.2656 129.61 49.2192C129.61 57.5635 124.489 63 111.657 63H74.1073ZM90.7959 50.1042H106.852C111.214 50.1042 112.921 48.5239 112.921 45.8056C112.921 42.8978 111.277 41.4438 106.852 41.4438H90.7959V50.1042ZM90.7959 31.4559H105.146C109.887 31.4559 111.53 30.002 111.53 27.0941C111.53 24.3127 109.76 22.7955 105.146 22.7955H90.7959V31.4559ZM133.388 36.4499C133.388 19.8244 144.577 9.14117 165.375 9.14117C186.109 9.14117 197.361 19.8244 197.361 36.4499C197.361 53.0753 186.109 63.7586 165.375 63.7586C144.577 63.7586 133.388 53.0753 133.388 36.4499ZM150.14 36.4499C150.14 44.6678 154.755 49.7249 165.375 49.7249C175.932 49.7249 180.546 44.6678 180.546 36.4499C180.546 28.232 175.932 23.1748 165.375 23.1748C154.755 23.1748 150.14 28.232 150.14 36.4499ZM231.135 63.7586C213.119 63.7586 202.751 55.92 202.751 42.2656V9.89974H219.44V41.8863C219.44 46.9435 223.612 49.7249 231.135 49.7249C238.657 49.7249 242.766 46.9435 242.766 41.8863V9.89974H259.455V42.2656C259.455 55.92 249.151 63.7586 231.135 63.7586ZM285.805 63V23.5541H263.554V9.89974H324.682V23.5541H302.494V63H285.805ZM349.375 63V9.89974H372.258L386.292 35.0592L399.694 9.89974H422.577V63H406.268V27.5998L392.234 55.2878H380.476L365.684 27.0309V63H349.375ZM430.183 63V9.89974H480.312V23.1748H446.872V30.002H474.623V41.7599H446.872V49.7249H480.312V63H430.183Z" fill="white"/>
</svg>
