<svg width="45" height="45" viewBox="0 0 45 45" fill="none" xmlns="http://www.w3.org/2000/svg">
<rect width="45" height="45" rx="22.5" fill="#C8FF00"/>
<path d="M14.1852 29.2581L22.0652 15.2501C22.1088 15.1731 22.1721 15.1091 22.2485 15.0646C22.3249 15.02 22.4118 14.9966 22.5002 14.9966C22.5887 14.9966 22.6755 15.02 22.7519 15.0646C22.8284 15.1091 22.8916 15.1731 22.9352 15.2501L30.8152 29.2581C30.8653 29.3479 30.8865 29.4509 30.8759 29.5532C30.8654 29.6555 30.8235 29.7521 30.756 29.8297C30.6886 29.9073 30.5988 29.9623 30.499 29.987C30.3992 30.0118 30.2941 30.0052 30.1982 29.9681L22.6812 27.0461C22.5648 27.0008 22.4356 27.0008 22.3192 27.0461L14.8022 29.9691C14.7062 30.0064 14.6009 30.0131 14.5009 29.9884C14.4009 29.9636 14.311 29.9085 14.2435 29.8307C14.1759 29.7529 14.1341 29.6561 14.1237 29.5536C14.1132 29.4511 14.1347 29.3479 14.1852 29.2581Z" fill="black" stroke="black" stroke-width="1.5" stroke-linecap="round" stroke-linejoin="round"/>
</svg>
