<svg width="325" height="245" viewBox="0 0 325 245" fill="none" xmlns="http://www.w3.org/2000/svg">
<path d="M3.79288 54V0.899744H20.4815V40.3456H48.2327V54H3.79288ZM72.8993 54V0.899744H123.028V14.1748H89.5879V21.002H117.339V32.7599H89.5879V40.7249H123.028V54H72.8993ZM167.887 54V14.5541H145.636V0.899744H206.764V14.5541H184.576V54H167.887ZM230.775 24.9845L230.143 0.899744H242.786L242.154 24.9845H230.775ZM266.856 17.462C266.856 6.46263 276.781 0.141167 294.038 0.141167C311.612 0.141167 321.284 6.71549 321.284 18.7895H304.342C304.342 14.4277 299.791 12.2784 293.28 12.2784C287.021 12.2784 283.608 14.3012 283.608 17.2723C283.608 20.4963 288.033 21.1284 293.28 21.5077C305.48 22.4559 322.169 22.1398 322.169 36.1735C322.169 48.6268 312.497 54.7586 294.607 54.7586C275.832 54.7586 266.161 47.9946 266.161 35.8574H283.165C283.165 40.3456 287.401 42.6214 295.682 42.6214C302.256 42.6214 305.354 41.1674 305.354 38.2596C305.354 34.4035 299.98 33.8345 293.027 33.392C281.964 32.6967 266.856 32.3174 266.856 17.462ZM34.7048 136.863C39.762 136.863 43.6813 135.599 45.2616 134.524V128.835H30.9119V118.214H61.9503V140.529C55.6288 146.661 45.957 149.759 34.8312 149.759C14.4761 149.759 1.89644 139.265 1.89644 122.45C1.89644 105.824 14.0336 95.1412 32.7452 95.1412C49.0545 95.1412 60.0539 101.905 61.1285 113.853H44.1238C43.6181 110.313 39.193 108.037 32.998 108.037C23.7687 108.037 18.6483 113.221 18.6483 122.387C18.6483 131.553 24.5273 136.863 34.7048 136.863ZM75.8748 149V95.8997H126.004V109.175H92.5634V116.002H120.315V127.76H92.5634V135.725H126.004V149H75.8748ZM158.22 149V109.554H135.968V95.8997H197.097V109.554H174.908V149H158.22ZM235.697 149V95.8997H252.385V149H235.697ZM266.911 149V95.8997H287.835L308.317 128.455V95.8997H324.247V149H303.323L282.841 116.192V149H266.911ZM22.8837 244V204.554H0.632146V190.9H61.7607V204.554H39.5723V244H22.8837ZM64.3085 217.45C64.3085 200.824 75.4975 190.141 96.2951 190.141C117.029 190.141 128.282 200.824 128.282 217.45C128.282 234.075 117.029 244.759 96.2951 244.759C75.4975 244.759 64.3085 234.075 64.3085 217.45ZM81.0604 217.45C81.0604 225.668 85.675 230.725 96.2951 230.725C106.852 230.725 111.467 225.668 111.467 217.45C111.467 209.232 106.852 204.175 96.2951 204.175C85.675 204.175 81.0604 209.232 81.0604 217.45ZM162.055 244.759C144.039 244.759 133.672 236.92 133.672 223.266V190.9H150.36V222.886C150.36 227.943 154.533 230.725 162.055 230.725C169.578 230.725 173.687 227.943 173.687 222.886V190.9H190.375V223.266C190.375 236.92 180.071 244.759 162.055 244.759ZM227.092 231.104C233.983 231.104 237.902 227.943 238.534 223.266H255.223C255.223 236.414 243.908 244.759 226.713 244.759C207.875 244.759 195.738 234.075 195.738 217.45C195.738 200.824 207.875 190.141 226.713 190.141C243.908 190.141 255.223 198.485 255.223 211.634H238.534C237.902 206.956 233.793 203.796 226.587 203.796C217.61 203.796 212.49 208.726 212.49 217.387C212.49 225.857 217.99 231.104 227.092 231.104ZM260.911 244V190.9H277.599V209.611H300.736V190.9H317.425V244H300.736V223.266H277.599V244H260.911Z" fill="white"/>
</svg>
