<svg width="329" height="292" viewBox="0 0 329 292" fill="none" xmlns="http://www.w3.org/2000/svg">
<g clip-path="url(#clip0_248_600)">
<mask id="mask0_248_600" style="mask-type:luminance" maskUnits="userSpaceOnUse" x="-1" y="20" width="327" height="247">
<path d="M326 20H-1V267H326V20Z" fill="white"/>
<path d="M3.79257 74.9999V21.8996H20.4812V61.3455H48.2324V74.9999H3.79257ZM72.899 74.9999V21.8996H123.028V35.1747H89.5876V42.0019H117.339V53.7598H89.5876V61.7248H123.028V74.9999H72.899ZM167.887 74.9999V35.554H145.636V21.8996H206.764V35.554H184.576V74.9999H167.887ZM230.775 45.9844L230.143 21.8996H242.786L242.154 45.9844H230.775ZM266.856 38.4619C266.856 27.4625 276.781 21.1411 294.038 21.1411C311.612 21.1411 321.284 27.7154 321.284 39.7894H304.342C304.342 35.4276 299.791 33.2783 293.28 33.2783C287.021 33.2783 283.608 35.3011 283.608 38.2722C283.608 41.4962 288.033 42.1283 293.28 42.5076C305.48 43.4558 322.169 43.1397 322.169 57.1734C322.169 69.6267 312.497 75.7585 294.607 75.7585C275.832 75.7585 266.161 68.9945 266.161 56.8573H283.165C283.165 61.3455 287.401 63.6213 295.682 63.6213C302.256 63.6213 305.354 62.1673 305.354 59.2595C305.354 55.4034 299.98 54.8344 293.027 54.3919C281.964 53.6966 266.856 53.3173 266.856 38.4619ZM34.7045 157.863C39.7617 157.863 43.681 156.599 45.2613 155.524V149.835H30.9116V139.214H61.95V161.529C55.6285 167.661 45.9567 170.759 34.8309 170.759C14.4758 170.759 1.89613 160.265 1.89613 143.45C1.89613 126.824 14.0333 116.141 32.7449 116.141C49.0542 116.141 60.0536 122.905 61.1282 134.853H44.1235C43.6178 131.313 39.1927 129.037 32.9977 129.037C23.7684 129.037 18.648 134.221 18.648 143.387C18.648 152.553 24.527 157.863 34.7045 157.863ZM75.8745 170V116.9H126.004V130.175H92.5631V137.002H120.315V148.76H92.5631V156.725H126.004V170H75.8745ZM158.22 170V130.554H135.968V116.9H197.097V130.554H174.908V170H158.22ZM235.697 170V116.9H252.385V170H235.697ZM266.911 170V116.9H287.835L308.317 149.455V116.9H324.247V170H303.323L282.841 137.192V170H266.911ZM22.8834 265V225.554H0.631836V211.9H61.7604V225.554H39.572V265H22.8834ZM64.3082 238.45C64.3082 221.824 75.4972 211.141 96.2948 211.141C117.029 211.141 128.282 221.824 128.282 238.45C128.282 255.075 117.029 265.759 96.2948 265.759C75.4972 265.759 64.3082 255.075 64.3082 238.45ZM81.0601 238.45C81.0601 246.668 85.6747 251.725 96.2948 251.725C106.852 251.725 111.467 246.668 111.467 238.45C111.467 230.232 106.852 225.175 96.2948 225.175C85.6747 225.175 81.0601 230.232 81.0601 238.45ZM162.055 265.759C144.039 265.759 133.672 257.92 133.672 244.266V211.9H150.36V243.886C150.36 248.943 154.533 251.725 162.055 251.725C169.578 251.725 173.687 248.943 173.687 243.886V211.9H190.375V244.266C190.375 257.92 180.071 265.759 162.055 265.759ZM227.092 252.104C233.983 252.104 237.902 248.943 238.534 244.266H255.223C255.223 257.414 243.908 265.759 226.713 265.759C207.875 265.759 195.738 255.075 195.738 238.45C195.738 221.824 207.875 211.141 226.713 211.141C243.908 211.141 255.223 219.485 255.223 232.634H238.534C237.902 227.956 233.793 224.796 226.587 224.796C217.61 224.796 212.49 229.726 212.49 238.387C212.49 246.857 217.99 252.104 227.092 252.104ZM260.911 265V211.9H277.599V230.611H300.736V211.9H317.425V265H300.736V244.266H277.599V265H260.911Z" fill="black"/>
</mask>
<g mask="url(#mask0_248_600)">
<path d="M3.79257 74.9999H2.79257V75.9999H3.79257V74.9999ZM3.79257 21.8996V20.8996H2.79257V21.8996H3.79257ZM20.4812 21.8996H21.4812V20.8996H20.4812V21.8996ZM20.4812 61.3455H19.4812V62.3455H20.4812V61.3455ZM48.2324 61.3455H49.2324V60.3455H48.2324V61.3455ZM48.2324 74.9999V75.9999H49.2324V74.9999H48.2324ZM4.79257 74.9999V21.8996H2.79257V74.9999H4.79257ZM3.79257 22.8996H20.4812V20.8996H3.79257V22.8996ZM19.4812 21.8996V61.3455H21.4812V21.8996H19.4812ZM20.4812 62.3455H48.2324V60.3455H20.4812V62.3455ZM47.2324 61.3455V74.9999H49.2324V61.3455H47.2324ZM48.2324 73.9999H3.79257V75.9999H48.2324V73.9999ZM72.899 74.9999H71.899V75.9999H72.899V74.9999ZM72.899 21.8996V20.8996H71.899V21.8996H72.899ZM123.028 21.8996H124.028V20.8996H123.028V21.8996ZM123.028 35.1747V36.1747H124.028V35.1747H123.028ZM89.5876 35.1747V34.1747H88.5876V35.1747H89.5876ZM89.5876 42.0019H88.5876V43.0019H89.5876V42.0019ZM117.339 42.0019H118.339V41.0019H117.339V42.0019ZM117.339 53.7598V54.7598H118.339V53.7598H117.339ZM89.5876 53.7598V52.7598H88.5876V53.7598H89.5876ZM89.5876 61.7248H88.5876V62.7248H89.5876V61.7248ZM123.028 61.7248H124.028V60.7248H123.028V61.7248ZM123.028 74.9999V75.9999H124.028V74.9999H123.028ZM73.899 74.9999V21.8996H71.899V74.9999H73.899ZM72.899 22.8996H123.028V20.8996H72.899V22.8996ZM122.028 21.8996V35.1747H124.028V21.8996H122.028ZM123.028 34.1747H89.5876V36.1747H123.028V34.1747ZM88.5876 35.1747V42.0019H90.5876V35.1747H88.5876ZM89.5876 43.0019H117.339V41.0019H89.5876V43.0019ZM116.339 42.0019V53.7598H118.339V42.0019H116.339ZM117.339 52.7598H89.5876V54.7598H117.339V52.7598ZM88.5876 53.7598V61.7248H90.5876V53.7598H88.5876ZM89.5876 62.7248H123.028V60.7248H89.5876V62.7248ZM122.028 61.7248V74.9999H124.028V61.7248H122.028ZM123.028 73.9999H72.899V75.9999H123.028V73.9999ZM167.887 74.9999H166.887V75.9999H167.887V74.9999ZM167.887 35.554H168.887V34.554H167.887V35.554ZM145.636 35.554H144.636V36.554H145.636V35.554ZM145.636 21.8996V20.8996H144.636V21.8996H145.636ZM206.764 21.8996H207.764V20.8996H206.764V21.8996ZM206.764 35.554V36.554H207.764V35.554H206.764ZM184.576 35.554V34.554H183.576V35.554H184.576ZM184.576 74.9999V75.9999H185.576V74.9999H184.576ZM168.887 74.9999V35.554H166.887V74.9999H168.887ZM167.887 34.554H145.636V36.554H167.887V34.554ZM146.636 35.554V21.8996H144.636V35.554H146.636ZM145.636 22.8996H206.764V20.8996H145.636V22.8996ZM205.764 21.8996V35.554H207.764V21.8996H205.764ZM206.764 34.554H184.576V36.554H206.764V34.554ZM183.576 35.554V74.9999H185.576V35.554H183.576ZM184.576 73.9999H167.887V75.9999H184.576V73.9999ZM230.775 45.9844L229.776 46.0106L229.801 46.9844H230.775V45.9844ZM230.143 21.8996V20.8996H229.116L229.143 21.9259L230.143 21.8996ZM242.786 21.8996L243.786 21.9259L243.813 20.8996H242.786V21.8996ZM242.154 45.9844V46.9844H243.128L243.154 46.0106L242.154 45.9844ZM231.775 45.9582L231.143 21.8734L229.143 21.9259L229.776 46.0106L231.775 45.9582ZM230.143 22.8996H242.786V20.8996H230.143V22.8996ZM241.786 21.8734L241.154 45.9582L243.154 46.0106L243.786 21.9259L241.786 21.8734ZM242.154 44.9844H230.775V46.9844H242.154V44.9844ZM321.284 39.7894V40.7894H322.284V39.7894H321.284ZM304.342 39.7894H303.342V40.7894H304.342V39.7894ZM293.28 42.5076L293.357 41.5106L293.352 41.5102L293.28 42.5076ZM266.161 56.8573V55.8573H265.161V56.8573H266.161ZM283.165 56.8573H284.165V55.8573H283.165V56.8573ZM267.856 38.4619C267.856 33.3181 270.15 29.2995 274.513 26.5201C278.928 23.7071 285.508 22.1411 294.038 22.1411V20.1411C285.31 20.1411 278.3 21.7358 273.438 24.8333C268.524 27.9645 265.856 32.6063 265.856 38.4619H267.856ZM294.038 22.1411C302.725 22.1411 309.306 23.7701 313.687 26.7632C318.012 29.7181 320.284 34.0617 320.284 39.7894H322.284C322.284 33.443 319.72 28.4625 314.815 25.1118C309.967 21.7992 302.925 20.1411 294.038 20.1411V22.1411ZM321.284 38.7894H304.342V40.7894H321.284V38.7894ZM305.342 39.7894C305.342 37.1808 303.947 35.2489 301.738 34.0237C299.578 32.826 296.621 32.2783 293.28 32.2783V34.2783C296.449 34.2783 299.023 34.8052 300.768 35.7726C302.462 36.7124 303.342 38.0361 303.342 39.7894H305.342ZM293.28 32.2783C290.064 32.2783 287.462 32.7946 285.624 33.7798C283.755 34.7822 282.608 36.3252 282.608 38.2722H284.608C284.608 37.2481 285.167 36.2942 286.569 35.5424C288.003 34.7734 290.237 34.2783 293.28 34.2783V32.2783ZM282.608 38.2722C282.608 39.3362 282.984 40.228 283.659 40.9326C284.308 41.6102 285.19 42.0705 286.15 42.4019C288.054 43.0594 290.6 43.3165 293.208 43.505L293.352 41.5102C290.713 41.3194 288.423 41.0708 286.803 40.5114C286 40.2344 285.448 39.9085 285.103 39.5489C284.785 39.2164 284.608 38.8202 284.608 38.2722H282.608ZM293.202 43.5046C299.402 43.9864 306.445 44.1386 311.999 45.8873C314.752 46.754 317.034 47.9856 318.626 49.7621C320.198 51.5163 321.169 53.8814 321.169 57.1734H323.169C323.169 53.4485 322.054 50.5906 320.115 48.4274C318.197 46.2866 315.544 44.9067 312.6 43.9796C306.76 42.1409 299.358 41.977 293.357 41.5106L293.202 43.5046ZM321.169 57.1734C321.169 63.097 318.893 67.4155 314.544 70.3028C310.127 73.2348 303.467 74.7585 294.607 74.7585V76.7585C303.637 76.7585 310.758 75.2162 315.65 71.969C320.609 68.6771 323.169 63.703 323.169 57.1734H321.169ZM294.607 74.7585C285.313 74.7585 278.432 73.0798 273.902 70.0298C269.432 67.0203 267.161 62.6168 267.161 56.8573H265.161C265.161 63.2351 267.725 68.2821 272.785 71.6888C277.785 75.0552 285.126 76.7585 294.607 76.7585V74.7585ZM266.161 57.8573H283.165V55.8573H266.161V57.8573ZM282.165 56.8573C282.165 58.1428 282.471 59.3146 283.108 60.3367C283.743 61.3554 284.674 62.1713 285.843 62.8024C288.154 64.0494 291.481 64.6213 295.682 64.6213V62.6213C291.601 62.6213 288.67 62.0552 286.793 61.0423C285.869 60.5435 285.223 59.9489 284.805 59.2786C284.389 58.6117 284.165 57.8159 284.165 56.8573H282.165ZM295.682 64.6213C299.01 64.6213 301.603 64.2584 303.398 63.4409C304.309 63.0259 305.058 62.4743 305.578 61.7526C306.106 61.0207 306.354 60.1752 306.354 59.2595H304.354C304.354 59.7977 304.214 60.2244 303.956 60.5829C303.69 60.9516 303.254 61.3088 302.569 61.6208C301.171 62.2572 298.928 62.6213 295.682 62.6213V64.6213ZM306.354 59.2595C306.354 58.0306 305.912 57.0142 305.107 56.2215C304.333 55.46 303.272 54.9523 302.091 54.5897C299.745 53.869 296.539 53.6134 293.09 53.394L292.963 55.3899C296.468 55.613 299.425 55.8631 301.504 56.5015C302.536 56.8185 303.253 57.2037 303.704 57.6472C304.123 58.0595 304.354 58.5603 304.354 59.2595H306.354ZM293.09 53.394C287.492 53.0422 281.139 52.7738 276.16 50.8069C273.698 49.8339 271.639 48.4677 270.192 46.5233C268.751 44.5879 267.856 41.9977 267.856 38.4619H265.856C265.856 42.3537 266.849 45.3817 268.587 47.7173C270.319 50.0438 272.728 51.6013 275.425 52.667C280.767 54.7774 287.498 55.0464 292.963 55.3899L293.09 53.394ZM45.2613 155.524L45.8237 156.351L46.2613 156.053V155.524H45.2613ZM45.2613 149.835H46.2613V148.835H45.2613V149.835ZM30.9116 149.835H29.9116V150.835H30.9116V149.835ZM30.9116 139.214V138.214H29.9116V139.214H30.9116ZM61.95 139.214H62.95V138.214H61.95V139.214ZM61.95 161.529L62.6463 162.247L62.95 161.952V161.529H61.95ZM61.1282 134.853V135.853H62.2222L62.1242 134.763L61.1282 134.853ZM44.1235 134.853L43.1335 134.994L43.2562 135.853H44.1235V134.853ZM34.7045 158.863C39.8793 158.863 44.02 157.577 45.8237 156.351L44.699 154.697C43.3419 155.62 39.6441 156.863 34.7045 156.863V158.863ZM46.2613 155.524V149.835H44.2613V155.524H46.2613ZM45.2613 148.835H30.9116V150.835H45.2613V148.835ZM31.9116 149.835V139.214H29.9116V149.835H31.9116ZM30.9116 140.214H61.95V138.214H30.9116V140.214ZM60.95 139.214V161.529H62.95V139.214H60.95ZM61.2537 160.811C55.1778 166.705 45.7924 169.759 34.8309 169.759V171.759C46.121 171.759 56.0793 168.617 62.6463 162.247L61.2537 160.811ZM34.8309 169.759C24.8152 169.759 16.8308 167.177 11.3693 162.641C5.92908 158.122 2.89613 151.588 2.89613 143.45H0.896128C0.896128 152.127 4.15302 159.247 10.0915 164.179C16.0086 169.094 24.4916 171.759 34.8309 171.759V169.759ZM2.89613 143.45C2.89613 135.396 5.82766 128.852 10.9659 124.31C16.1169 119.758 23.5746 117.141 32.7449 117.141V115.141C23.2036 115.141 15.2369 117.866 9.64143 122.812C4.03319 127.768 0.896128 134.879 0.896128 143.45H2.89613ZM32.7449 117.141C40.7761 117.141 47.3951 118.809 52.1064 121.856C56.7868 124.884 59.6241 129.293 60.1322 134.942L62.1242 134.763C61.5577 128.465 58.358 123.518 53.1927 120.177C48.0583 116.856 41.023 115.141 32.7449 115.141V117.141ZM61.1282 133.853H44.1235V135.853H61.1282V133.853ZM45.1134 134.711C44.8012 132.525 43.2862 130.839 41.1557 129.73C39.0295 128.624 36.2042 128.037 32.9977 128.037V130.037C35.9863 130.037 38.4709 130.588 40.2325 131.504C41.9897 132.419 42.9401 133.64 43.1335 134.994L45.1134 134.711ZM32.9977 128.037C28.1992 128.037 24.3259 129.388 21.6536 132.069C18.9819 134.749 17.648 138.621 17.648 143.387H19.648C19.648 138.986 20.8743 135.683 23.0701 133.48C25.2654 131.278 28.5669 130.037 32.9977 130.037V128.037ZM17.648 143.387C17.648 148.192 19.1962 152.104 22.1899 154.805C25.169 157.492 29.4512 158.863 34.7045 158.863V156.863C29.7803 156.863 26.0343 155.579 23.5295 153.319C21.0393 151.073 19.648 147.748 19.648 143.387H17.648ZM75.8745 170H74.8745V171H75.8745V170ZM75.8745 116.9V115.9H74.8745V116.9H75.8745ZM126.004 116.9H127.004V115.9H126.004V116.9ZM126.004 130.175V131.175H127.004V130.175H126.004ZM92.5631 130.175V129.175H91.5631V130.175H92.5631ZM92.5631 137.002H91.5631V138.002H92.5631V137.002ZM120.315 137.002H121.315V136.002H120.315V137.002ZM120.315 148.76V149.76H121.315V148.76H120.315ZM92.5631 148.76V147.76H91.5631V148.76H92.5631ZM92.5631 156.725H91.5631V157.725H92.5631V156.725ZM126.004 156.725H127.004V155.725H126.004V156.725ZM126.004 170V171H127.004V170H126.004ZM76.8745 170V116.9H74.8745V170H76.8745ZM75.8745 117.9H126.004V115.9H75.8745V117.9ZM125.004 116.9V130.175H127.004V116.9H125.004ZM126.004 129.175H92.5631V131.175H126.004V129.175ZM91.5631 130.175V137.002H93.5631V130.175H91.5631ZM92.5631 138.002H120.315V136.002H92.5631V138.002ZM119.315 137.002V148.76H121.315V137.002H119.315ZM120.315 147.76H92.5631V149.76H120.315V147.76ZM91.5631 148.76V156.725H93.5631V148.76H91.5631ZM92.5631 157.725H126.004V155.725H92.5631V157.725ZM125.004 156.725V170H127.004V156.725H125.004ZM126.004 169H75.8745V171H126.004V169ZM158.22 170H157.22V171H158.22V170ZM158.22 130.554H159.22V129.554H158.22V130.554ZM135.968 130.554H134.968V131.554H135.968V130.554ZM135.968 116.9V115.9H134.968V116.9H135.968ZM197.097 116.9H198.097V115.9H197.097V116.9ZM197.097 130.554V131.554H198.097V130.554H197.097ZM174.908 130.554V129.554H173.908V130.554H174.908ZM174.908 170V171H175.908V170H174.908ZM159.22 170V130.554H157.22V170H159.22ZM158.22 129.554H135.968V131.554H158.22V129.554ZM136.968 130.554V116.9H134.968V130.554H136.968ZM135.968 117.9H197.097V115.9H135.968V117.9ZM196.097 116.9V130.554H198.097V116.9H196.097ZM197.097 129.554H174.908V131.554H197.097V129.554ZM173.908 130.554V170H175.908V130.554H173.908ZM174.908 169H158.22V171H174.908V169ZM235.697 170H234.697V171H235.697V170ZM235.697 116.9V115.9H234.697V116.9H235.697ZM252.385 116.9H253.385V115.9H252.385V116.9ZM252.385 170V171H253.385V170H252.385ZM236.697 170V116.9H234.697V170H236.697ZM235.697 117.9H252.385V115.9H235.697V117.9ZM251.385 116.9V170H253.385V116.9H251.385ZM252.385 169H235.697V171H252.385V169ZM266.911 170H265.911V171H266.911V170ZM266.911 116.9V115.9H265.911V116.9H266.911ZM287.835 116.9L288.682 116.367L288.388 115.9H287.835V116.9ZM308.317 149.455L307.47 149.988L309.317 152.923V149.455H308.317ZM308.317 116.9V115.9H307.317V116.9H308.317ZM324.247 116.9H325.247V115.9H324.247V116.9ZM324.247 170V171H325.247V170H324.247ZM303.323 170L302.475 170.53L302.768 171H303.323V170ZM282.841 137.192L283.69 136.662L281.841 133.701V137.192H282.841ZM282.841 170V171H283.841V170H282.841ZM267.911 170V116.9H265.911V170H267.911ZM266.911 117.9H287.835V115.9H266.911V117.9ZM286.989 117.432L307.47 149.988L309.163 148.923L288.682 116.367L286.989 117.432ZM309.317 149.455V116.9H307.317V149.455H309.317ZM308.317 117.9H324.247V115.9H308.317V117.9ZM323.247 116.9V170H325.247V116.9H323.247ZM324.247 169H303.323V171H324.247V169ZM304.171 169.47L283.69 136.662L281.993 137.721L302.475 170.53L304.171 169.47ZM281.841 137.192V170H283.841V137.192H281.841ZM282.841 169H266.911V171H282.841V169ZM22.8834 265H21.8834V266H22.8834V265ZM22.8834 225.554H23.8834V224.554H22.8834V225.554ZM0.631836 225.554H-0.368164V226.554H0.631836V225.554ZM0.631836 211.9V210.9H-0.368164V211.9H0.631836ZM61.7604 211.9H62.7604V210.9H61.7604V211.9ZM61.7604 225.554V226.554H62.7604V225.554H61.7604ZM39.572 225.554V224.554H38.572V225.554H39.572ZM39.572 265V266H40.572V265H39.572ZM23.8834 265V225.554H21.8834V265H23.8834ZM22.8834 224.554H0.631836V226.554H22.8834V224.554ZM1.63184 225.554V211.9H-0.368164V225.554H1.63184ZM0.631836 212.9H61.7604V210.9H0.631836V212.9ZM60.7604 211.9V225.554H62.7604V211.9H60.7604ZM61.7604 224.554H39.572V226.554H61.7604V224.554ZM38.572 225.554V265H40.572V225.554H38.572ZM39.572 264H22.8834V266H39.572V264ZM65.3082 238.45C65.3082 230.372 68.018 223.839 73.163 219.312C78.3243 214.77 86.0576 212.141 96.2948 212.141V210.141C85.7343 210.141 77.4744 212.854 71.8418 217.81C66.1929 222.781 63.3082 229.902 63.3082 238.45H65.3082ZM96.2948 212.141C106.5 212.141 114.234 214.77 119.404 219.312C124.557 223.84 127.282 230.374 127.282 238.45H129.282C129.282 229.9 126.38 222.78 120.724 217.81C115.084 212.854 106.825 210.141 96.2948 210.141V212.141ZM127.282 238.45C127.282 246.526 124.557 253.059 119.404 257.588C114.234 262.13 106.5 264.759 96.2948 264.759V266.759C106.825 266.759 115.084 264.046 120.724 259.09C126.38 254.12 129.282 247 129.282 238.45H127.282ZM96.2948 264.759C86.0576 264.759 78.3243 262.13 73.163 257.588C68.018 253.061 65.3082 246.527 65.3082 238.45H63.3082C63.3082 246.998 66.1929 254.119 71.8418 259.089C77.4744 264.046 85.7343 266.759 96.2948 266.759V264.759ZM80.0601 238.45C80.0601 242.744 81.27 246.367 84.0164 248.904C86.749 251.427 90.8418 252.725 96.2948 252.725V250.725C91.1277 250.725 87.6031 249.494 85.3734 247.434C83.1574 245.388 82.0601 242.374 82.0601 238.45H80.0601ZM96.2948 252.725C101.718 252.725 105.795 251.427 108.519 248.903C111.257 246.366 112.467 242.744 112.467 238.45H110.467C110.467 242.374 109.369 245.389 107.16 247.436C104.938 249.494 101.429 250.725 96.2948 250.725V252.725ZM112.467 238.45C112.467 234.156 111.257 230.533 108.519 227.997C105.795 225.473 101.718 224.175 96.2948 224.175V226.175C101.429 226.175 104.938 227.405 107.16 229.464C109.369 231.511 110.467 234.526 110.467 238.45H112.467ZM96.2948 224.175C90.8418 224.175 86.749 225.472 84.0164 227.996C81.27 230.532 80.0601 234.156 80.0601 238.45H82.0601C82.0601 234.526 83.1574 231.512 85.3734 229.465C87.6031 227.406 91.1277 226.175 96.2948 226.175V224.175ZM133.672 211.9V210.9H132.672V211.9H133.672ZM150.36 211.9H151.36V210.9H150.36V211.9ZM173.687 211.9V210.9H172.687V211.9H173.687ZM190.375 211.9H191.375V210.9H190.375V211.9ZM162.055 264.759C153.173 264.759 146.32 262.824 141.711 259.335C137.14 255.876 134.672 250.811 134.672 244.266H132.672C132.672 251.375 135.387 257.056 140.504 260.93C145.582 264.774 152.921 266.759 162.055 266.759V264.759ZM134.672 244.266V211.9H132.672V244.266H134.672ZM133.672 212.9H150.36V210.9H133.672V212.9ZM149.36 211.9V243.886H151.36V211.9H149.36ZM149.36 243.886C149.36 246.736 150.559 249.013 152.831 250.533C155.045 252.015 158.195 252.725 162.055 252.725V250.725C158.392 250.725 155.695 250.044 153.943 248.871C152.247 247.736 151.36 246.094 151.36 243.886H149.36ZM162.055 252.725C165.915 252.725 169.051 252.016 171.251 250.531C173.508 249.008 174.687 246.73 174.687 243.886H172.687C172.687 246.1 171.811 247.741 170.132 248.873C168.398 250.044 165.718 250.725 162.055 250.725V252.725ZM174.687 243.886V211.9H172.687V243.886H174.687ZM173.687 212.9H190.375V210.9H173.687V212.9ZM189.375 211.9V244.266H191.375V211.9H189.375ZM189.375 244.266C189.375 250.813 186.921 255.878 182.366 259.336C177.774 262.824 170.937 264.759 162.055 264.759V266.759C171.189 266.759 178.513 264.774 183.576 260.929C188.678 257.054 191.375 251.373 191.375 244.266H189.375ZM238.534 244.266V243.266H237.66L237.543 244.132L238.534 244.266ZM255.223 244.266H256.223V243.266H255.223V244.266ZM255.223 232.634V233.634H256.223V232.634H255.223ZM238.534 232.634L237.543 232.768L237.66 233.634H238.534V232.634ZM227.092 253.104C230.682 253.104 233.607 252.281 235.742 250.752C237.896 249.21 239.174 247 239.525 244.4L237.543 244.132C237.263 246.209 236.265 247.918 234.578 249.126C232.873 250.347 230.393 251.104 227.092 251.104V253.104ZM238.534 245.266H255.223V243.266H238.534V245.266ZM254.223 244.266C254.223 250.519 251.547 255.598 246.816 259.143C242.058 262.707 235.161 264.759 226.713 264.759V266.759C235.459 266.759 242.817 264.638 248.016 260.743C253.241 256.828 256.223 251.161 256.223 244.266H254.223ZM226.713 264.759C217.478 264.759 209.989 262.141 204.823 257.589C199.669 253.047 196.738 246.504 196.738 238.45H194.738C194.738 247.021 197.875 254.132 203.5 259.089C209.112 264.034 217.11 266.759 226.713 266.759V264.759ZM196.738 238.45C196.738 230.396 199.669 223.852 204.823 219.311C209.989 214.759 217.478 212.141 226.713 212.141V210.141C217.11 210.141 209.112 212.865 203.5 217.811C197.875 222.768 194.738 229.879 194.738 238.45H196.738ZM226.713 212.141C235.161 212.141 242.058 214.192 246.816 217.757C251.547 221.302 254.223 226.381 254.223 232.634H256.223C256.223 225.739 253.241 220.072 248.016 216.157C242.817 212.262 235.459 210.141 226.713 210.141V212.141ZM255.223 231.634H238.534V233.634H255.223V231.634ZM239.525 232.5C239.172 229.882 237.833 227.671 235.591 226.136C233.371 224.615 230.326 223.796 226.587 223.796V225.796C230.054 225.796 232.667 226.557 234.461 227.786C236.233 229 237.265 230.708 237.543 232.768L239.525 232.5ZM226.587 223.796C221.921 223.796 218.118 225.079 215.478 227.623C212.833 230.173 211.49 233.859 211.49 238.387H213.49C213.49 234.254 214.707 231.144 216.866 229.063C219.031 226.977 222.276 225.796 226.587 225.796V223.796ZM211.49 238.387C211.49 242.845 212.943 246.557 215.691 249.149C218.433 251.736 222.352 253.104 227.092 253.104V251.104C222.73 251.104 219.348 249.85 217.064 247.695C214.786 245.546 213.49 242.399 213.49 238.387H211.49ZM260.911 265H259.911V266H260.911V265ZM260.911 211.9V210.9H259.911V211.9H260.911ZM277.599 211.9H278.599V210.9H277.599V211.9ZM277.599 230.611H276.599V231.611H277.599V230.611ZM300.736 230.611V231.611H301.736V230.611H300.736ZM300.736 211.9V210.9H299.736V211.9H300.736ZM317.425 211.9H318.425V210.9H317.425V211.9ZM317.425 265V266H318.425V265H317.425ZM300.736 265H299.736V266H300.736V265ZM300.736 244.266H301.736V243.266H300.736V244.266ZM277.599 244.266V243.266H276.599V244.266H277.599ZM277.599 265V266H278.599V265H277.599ZM261.911 265V211.9H259.911V265H261.911ZM260.911 212.9H277.599V210.9H260.911V212.9ZM276.599 211.9V230.611H278.599V211.9H276.599ZM277.599 231.611H300.736V229.611H277.599V231.611ZM301.736 230.611V211.9H299.736V230.611H301.736ZM300.736 212.9H317.425V210.9H300.736V212.9ZM316.425 211.9V265H318.425V211.9H316.425ZM317.425 264H300.736V266H317.425V264ZM301.736 265V244.266H299.736V265H301.736ZM300.736 243.266H277.599V245.266H300.736V243.266ZM276.599 244.266V265H278.599V244.266H276.599ZM277.599 264H260.911V266H277.599V264Z" fill="black" fill-opacity="0.3"/>
</g>
<path d="M3.79257 67.9999V14.8996H20.4812V54.3455H48.2324V67.9999H3.79257ZM72.899 67.9999V14.8996H123.028V28.1747H89.5876V35.0019H117.339V46.7598H89.5876V54.7248H123.028V67.9999H72.899ZM167.887 67.9999V28.554H145.636V14.8996H206.764V28.554H184.576V67.9999H167.887ZM230.775 38.9844L230.143 14.8996H242.786L242.154 38.9844H230.775ZM266.856 31.4619C266.856 20.4625 276.781 14.1411 294.038 14.1411C311.612 14.1411 321.284 20.7154 321.284 32.7894H304.342C304.342 28.4276 299.791 26.2783 293.28 26.2783C287.021 26.2783 283.608 28.3011 283.608 31.2722C283.608 34.4962 288.033 35.1283 293.28 35.5076C305.48 36.4558 322.169 36.1397 322.169 50.1734C322.169 62.6267 312.497 68.7585 294.607 68.7585C275.832 68.7585 266.161 61.9945 266.161 49.8573H283.165C283.165 54.3455 287.401 56.6213 295.682 56.6213C302.256 56.6213 305.354 55.1673 305.354 52.2595C305.354 48.4034 299.98 47.8344 293.027 47.3919C281.964 46.6966 266.856 46.3173 266.856 31.4619ZM34.7045 150.863C39.7617 150.863 43.681 149.599 45.2613 148.524V142.835H30.9116V132.214H61.95V154.529C55.6285 160.661 45.9567 163.759 34.8309 163.759C14.4758 163.759 1.89613 153.265 1.89613 136.45C1.89613 119.824 14.0333 109.141 32.7449 109.141C49.0542 109.141 60.0536 115.905 61.1282 127.853H44.1235C43.6178 124.313 39.1927 122.037 32.9977 122.037C23.7684 122.037 18.648 127.221 18.648 136.387C18.648 145.553 24.527 150.863 34.7045 150.863ZM75.8745 163V109.9H126.004V123.175H92.5631V130.002H120.315V141.76H92.5631V149.725H126.004V163H75.8745ZM158.22 163V123.554H135.968V109.9H197.097V123.554H174.908V163H158.22ZM235.697 163V109.9H252.385V163H235.697ZM266.911 163V109.9H287.835L308.317 142.455V109.9H324.247V163H303.323L282.841 130.192V163H266.911ZM22.8834 258V218.554H0.631836V204.9H61.7604V218.554H39.572V258H22.8834ZM64.3082 231.45C64.3082 214.824 75.4972 204.141 96.2948 204.141C117.029 204.141 128.282 214.824 128.282 231.45C128.282 248.075 117.029 258.759 96.2948 258.759C75.4972 258.759 64.3082 248.075 64.3082 231.45ZM81.0601 231.45C81.0601 239.668 85.6747 244.725 96.2948 244.725C106.852 244.725 111.467 239.668 111.467 231.45C111.467 223.232 106.852 218.175 96.2948 218.175C85.6747 218.175 81.0601 223.232 81.0601 231.45ZM162.055 258.759C144.039 258.759 133.672 250.92 133.672 237.266V204.9H150.36V236.886C150.36 241.943 154.533 244.725 162.055 244.725C169.578 244.725 173.687 241.943 173.687 236.886V204.9H190.375V237.266C190.375 250.92 180.071 258.759 162.055 258.759ZM227.092 245.104C233.983 245.104 237.902 241.943 238.534 237.266H255.223C255.223 250.414 243.908 258.759 226.713 258.759C207.875 258.759 195.738 248.075 195.738 231.45C195.738 214.824 207.875 204.141 226.713 204.141C243.908 204.141 255.223 212.485 255.223 225.634H238.534C237.902 220.956 233.793 217.796 226.587 217.796C217.61 217.796 212.49 222.726 212.49 231.387C212.49 239.857 217.99 245.104 227.092 245.104ZM260.911 258V204.9H277.599V223.611H300.736V204.9H317.425V258H300.736V237.266H277.599V258H260.911Z" fill="black"/>
</g>
<defs>
<clipPath id="clip0_248_600">
<rect width="329" height="292" fill="white"/>
</clipPath>
</defs>
</svg>
