<svg width="329" height="292" viewBox="0 0 329 292" fill="none" xmlns="http://www.w3.org/2000/svg">
<mask id="path-1-outside-1_218_386" maskUnits="userSpaceOnUse" x="-1" y="20" width="327" height="247" fill="black">
<rect fill="white" x="-1" y="20" width="327" height="247"/>
<path d="M3.79288 75V21.8997H20.4815V61.3456H48.2327V75H3.79288ZM72.8993 75V21.8997H123.028V35.1748H89.5879V42.002H117.339V53.7599H89.5879V61.7249H123.028V75H72.8993ZM167.887 75V35.5541H145.636V21.8997H206.764V35.5541H184.576V75H167.887ZM230.775 45.9845L230.143 21.8997H242.786L242.154 45.9845H230.775ZM266.856 38.462C266.856 27.4626 276.781 21.1412 294.038 21.1412C311.612 21.1412 321.284 27.7155 321.284 39.7895H304.342C304.342 35.4277 299.791 33.2784 293.28 33.2784C287.021 33.2784 283.608 35.3012 283.608 38.2723C283.608 41.4963 288.033 42.1284 293.28 42.5077C305.48 43.4559 322.169 43.1398 322.169 57.1735C322.169 69.6268 312.497 75.7586 294.607 75.7586C275.832 75.7586 266.161 68.9946 266.161 56.8574H283.165C283.165 61.3456 287.401 63.6214 295.682 63.6214C302.256 63.6214 305.354 62.1674 305.354 59.2596C305.354 55.4035 299.98 54.8345 293.027 54.392C281.964 53.6967 266.856 53.3174 266.856 38.462ZM34.7048 157.863C39.762 157.863 43.6813 156.599 45.2616 155.524V149.835H30.9119V139.214H61.9503V161.529C55.6288 167.661 45.957 170.759 34.8312 170.759C14.4761 170.759 1.89644 160.265 1.89644 143.45C1.89644 126.824 14.0336 116.141 32.7452 116.141C49.0545 116.141 60.0539 122.905 61.1285 134.853H44.1238C43.6181 131.313 39.193 129.037 32.998 129.037C23.7687 129.037 18.6483 134.221 18.6483 143.387C18.6483 152.553 24.5273 157.863 34.7048 157.863ZM75.8748 170V116.9H126.004V130.175H92.5634V137.002H120.315V148.76H92.5634V156.725H126.004V170H75.8748ZM158.22 170V130.554H135.968V116.9H197.097V130.554H174.908V170H158.22ZM235.697 170V116.9H252.385V170H235.697ZM266.911 170V116.9H287.835L308.317 149.455V116.9H324.247V170H303.323L282.841 137.192V170H266.911ZM22.8837 265V225.554H0.632146V211.9H61.7607V225.554H39.5723V265H22.8837ZM64.3085 238.45C64.3085 221.824 75.4975 211.141 96.2951 211.141C117.029 211.141 128.282 221.824 128.282 238.45C128.282 255.075 117.029 265.759 96.2951 265.759C75.4975 265.759 64.3085 255.075 64.3085 238.45ZM81.0604 238.45C81.0604 246.668 85.675 251.725 96.2951 251.725C106.852 251.725 111.467 246.668 111.467 238.45C111.467 230.232 106.852 225.175 96.2951 225.175C85.675 225.175 81.0604 230.232 81.0604 238.45ZM162.055 265.759C144.039 265.759 133.672 257.92 133.672 244.266V211.9H150.36V243.886C150.36 248.943 154.533 251.725 162.055 251.725C169.578 251.725 173.687 248.943 173.687 243.886V211.9H190.375V244.266C190.375 257.92 180.071 265.759 162.055 265.759ZM227.092 252.104C233.983 252.104 237.902 248.943 238.534 244.266H255.223C255.223 257.414 243.908 265.759 226.713 265.759C207.875 265.759 195.738 255.075 195.738 238.45C195.738 221.824 207.875 211.141 226.713 211.141C243.908 211.141 255.223 219.485 255.223 232.634H238.534C237.902 227.956 233.793 224.796 226.587 224.796C217.61 224.796 212.49 229.726 212.49 238.387C212.49 246.857 217.99 252.104 227.092 252.104ZM260.911 265V211.9H277.599V230.611H300.736V211.9H317.425V265H300.736V244.266H277.599V265H260.911Z"/>
</mask>
<path d="M3.79288 75H2.79288V76H3.79288V75ZM3.79288 21.8997V20.8997H2.79288V21.8997H3.79288ZM20.4815 21.8997H21.4815V20.8997H20.4815V21.8997ZM20.4815 61.3456H19.4815V62.3456H20.4815V61.3456ZM48.2327 61.3456H49.2327V60.3456H48.2327V61.3456ZM48.2327 75V76H49.2327V75H48.2327ZM4.79288 75V21.8997H2.79288V75H4.79288ZM3.79288 22.8997H20.4815V20.8997H3.79288V22.8997ZM19.4815 21.8997V61.3456H21.4815V21.8997H19.4815ZM20.4815 62.3456H48.2327V60.3456H20.4815V62.3456ZM47.2327 61.3456V75H49.2327V61.3456H47.2327ZM48.2327 74H3.79288V76H48.2327V74ZM72.8993 75H71.8993V76H72.8993V75ZM72.8993 21.8997V20.8997H71.8993V21.8997H72.8993ZM123.028 21.8997H124.028V20.8997H123.028V21.8997ZM123.028 35.1748V36.1748H124.028V35.1748H123.028ZM89.5879 35.1748V34.1748H88.5879V35.1748H89.5879ZM89.5879 42.002H88.5879V43.002H89.5879V42.002ZM117.339 42.002H118.339V41.002H117.339V42.002ZM117.339 53.7599V54.7599H118.339V53.7599H117.339ZM89.5879 53.7599V52.7599H88.5879V53.7599H89.5879ZM89.5879 61.7249H88.5879V62.7249H89.5879V61.7249ZM123.028 61.7249H124.028V60.7249H123.028V61.7249ZM123.028 75V76H124.028V75H123.028ZM73.8993 75V21.8997H71.8993V75H73.8993ZM72.8993 22.8997H123.028V20.8997H72.8993V22.8997ZM122.028 21.8997V35.1748H124.028V21.8997H122.028ZM123.028 34.1748H89.5879V36.1748H123.028V34.1748ZM88.5879 35.1748V42.002H90.5879V35.1748H88.5879ZM89.5879 43.002H117.339V41.002H89.5879V43.002ZM116.339 42.002V53.7599H118.339V42.002H116.339ZM117.339 52.7599H89.5879V54.7599H117.339V52.7599ZM88.5879 53.7599V61.7249H90.5879V53.7599H88.5879ZM89.5879 62.7249H123.028V60.7249H89.5879V62.7249ZM122.028 61.7249V75H124.028V61.7249H122.028ZM123.028 74H72.8993V76H123.028V74ZM167.887 75H166.887V76H167.887V75ZM167.887 35.5541H168.887V34.5541H167.887V35.5541ZM145.636 35.5541H144.636V36.5541H145.636V35.5541ZM145.636 21.8997V20.8997H144.636V21.8997H145.636ZM206.764 21.8997H207.764V20.8997H206.764V21.8997ZM206.764 35.5541V36.5541H207.764V35.5541H206.764ZM184.576 35.5541V34.5541H183.576V35.5541H184.576ZM184.576 75V76H185.576V75H184.576ZM168.887 75V35.5541H166.887V75H168.887ZM167.887 34.5541H145.636V36.5541H167.887V34.5541ZM146.636 35.5541V21.8997H144.636V35.5541H146.636ZM145.636 22.8997H206.764V20.8997H145.636V22.8997ZM205.764 21.8997V35.5541H207.764V21.8997H205.764ZM206.764 34.5541H184.576V36.5541H206.764V34.5541ZM183.576 35.5541V75H185.576V35.5541H183.576ZM184.576 74H167.887V76H184.576V74ZM230.775 45.9845L229.776 46.0107L229.801 46.9845H230.775V45.9845ZM230.143 21.8997V20.8997H229.116L229.143 21.926L230.143 21.8997ZM242.786 21.8997L243.786 21.926L243.813 20.8997H242.786V21.8997ZM242.154 45.9845V46.9845H243.128L243.154 46.0107L242.154 45.9845ZM231.775 45.9583L231.143 21.8735L229.143 21.926L229.776 46.0107L231.775 45.9583ZM230.143 22.8997H242.786V20.8997H230.143V22.8997ZM241.786 21.8735L241.154 45.9583L243.154 46.0107L243.786 21.926L241.786 21.8735ZM242.154 44.9845H230.775V46.9845H242.154V44.9845ZM321.284 39.7895V40.7895H322.284V39.7895H321.284ZM304.342 39.7895H303.342V40.7895H304.342V39.7895ZM293.28 42.5077L293.357 41.5107L293.352 41.5103L293.28 42.5077ZM266.161 56.8574V55.8574H265.161V56.8574H266.161ZM283.165 56.8574H284.165V55.8574H283.165V56.8574ZM293.027 54.392L293.09 53.3941L293.09 53.394L293.027 54.392ZM267.856 38.462C267.856 33.3182 270.15 29.2996 274.513 26.5202C278.928 23.7072 285.508 22.1412 294.038 22.1412V20.1412C285.31 20.1412 278.3 21.7359 273.438 24.8334C268.524 27.9646 265.856 32.6064 265.856 38.462H267.856ZM294.038 22.1412C302.725 22.1412 309.306 23.7702 313.687 26.7633C318.012 29.7182 320.284 34.0618 320.284 39.7895H322.284C322.284 33.4431 319.72 28.4626 314.815 25.1119C309.967 21.7993 302.925 20.1412 294.038 20.1412V22.1412ZM321.284 38.7895H304.342V40.7895H321.284V38.7895ZM305.342 39.7895C305.342 37.1809 303.947 35.249 301.738 34.0238C299.578 32.8261 296.621 32.2784 293.28 32.2784V34.2784C296.449 34.2784 299.023 34.8053 300.768 35.7727C302.462 36.7125 303.342 38.0362 303.342 39.7895H305.342ZM293.28 32.2784C290.064 32.2784 287.462 32.7947 285.624 33.7799C283.755 34.7823 282.608 36.3253 282.608 38.2723H284.608C284.608 37.2482 285.167 36.2943 286.569 35.5425C288.003 34.7735 290.237 34.2784 293.28 34.2784V32.2784ZM282.608 38.2723C282.608 39.3363 282.984 40.2281 283.659 40.9327C284.308 41.6103 285.19 42.0706 286.15 42.402C288.054 43.0595 290.6 43.3166 293.208 43.5051L293.352 41.5103C290.713 41.3195 288.423 41.0709 286.803 40.5115C286 40.2345 285.448 39.9086 285.103 39.549C284.785 39.2165 284.608 38.8203 284.608 38.2723H282.608ZM293.202 43.5047C299.402 43.9865 306.445 44.1387 311.999 45.8874C314.752 46.7541 317.034 47.9857 318.626 49.7622C320.198 51.5164 321.169 53.8815 321.169 57.1735H323.169C323.169 53.4486 322.054 50.5907 320.115 48.4275C318.197 46.2867 315.544 44.9068 312.6 43.9797C306.76 42.141 299.358 41.9771 293.357 41.5107L293.202 43.5047ZM321.169 57.1735C321.169 63.0971 318.893 67.4156 314.544 70.3029C310.127 73.2349 303.467 74.7586 294.607 74.7586V76.7586C303.637 76.7586 310.758 75.2163 315.65 71.9691C320.609 68.6772 323.169 63.7031 323.169 57.1735H321.169ZM294.607 74.7586C285.313 74.7586 278.432 73.0799 273.902 70.0299C269.432 67.0204 267.161 62.6169 267.161 56.8574H265.161C265.161 63.2352 267.725 68.2822 272.785 71.6889C277.785 75.0553 285.126 76.7586 294.607 76.7586V74.7586ZM266.161 57.8574H283.165V55.8574H266.161V57.8574ZM282.165 56.8574C282.165 58.1429 282.471 59.3147 283.108 60.3368C283.743 61.3555 284.674 62.1714 285.843 62.8025C288.154 64.0495 291.481 64.6214 295.682 64.6214V62.6214C291.601 62.6214 288.67 62.0553 286.793 61.0424C285.869 60.5436 285.223 59.949 284.805 59.2787C284.389 58.6118 284.165 57.816 284.165 56.8574H282.165ZM295.682 64.6214C299.01 64.6214 301.603 64.2585 303.398 63.441C304.309 63.026 305.058 62.4744 305.578 61.7527C306.106 61.0208 306.354 60.1753 306.354 59.2596H304.354C304.354 59.7978 304.214 60.2245 303.956 60.583C303.69 60.9517 303.254 61.3089 302.569 61.6209C301.171 62.2573 298.928 62.6214 295.682 62.6214V64.6214ZM306.354 59.2596C306.354 58.0307 305.912 57.0143 305.107 56.2216C304.333 55.4601 303.272 54.9524 302.091 54.5898C299.745 53.8691 296.539 53.6135 293.09 53.3941L292.963 55.39C296.468 55.6131 299.425 55.8632 301.504 56.5016C302.536 56.8186 303.253 57.2038 303.704 57.6473C304.123 58.0596 304.354 58.5604 304.354 59.2596H306.354ZM293.09 53.394C287.492 53.0422 281.139 52.7739 276.16 50.807C273.698 49.834 271.639 48.4678 270.192 46.5234C268.751 44.588 267.856 41.9978 267.856 38.462H265.856C265.856 42.3538 266.849 45.3818 268.587 47.7174C270.319 50.0439 272.728 51.6014 275.425 52.6671C280.767 54.7775 287.499 55.0466 292.964 55.3901L293.09 53.394ZM45.2616 155.524L45.824 156.351L46.2616 156.053V155.524H45.2616ZM45.2616 149.835H46.2616V148.835H45.2616V149.835ZM30.9119 149.835H29.9119V150.835H30.9119V149.835ZM30.9119 139.214V138.214H29.9119V139.214H30.9119ZM61.9503 139.214H62.9503V138.214H61.9503V139.214ZM61.9503 161.529L62.6466 162.247L62.9503 161.952V161.529H61.9503ZM61.1285 134.853V135.853H62.2225L62.1245 134.763L61.1285 134.853ZM44.1238 134.853L43.1338 134.994L43.2565 135.853H44.1238V134.853ZM34.7048 158.863C39.8796 158.863 44.0203 157.577 45.824 156.351L44.6993 154.697C43.3422 155.62 39.6444 156.863 34.7048 156.863V158.863ZM46.2616 155.524V149.835H44.2616V155.524H46.2616ZM45.2616 148.835H30.9119V150.835H45.2616V148.835ZM31.9119 149.835V139.214H29.9119V149.835H31.9119ZM30.9119 140.214H61.9503V138.214H30.9119V140.214ZM60.9503 139.214V161.529H62.9503V139.214H60.9503ZM61.254 160.811C55.1781 166.705 45.7927 169.759 34.8312 169.759V171.759C46.1213 171.759 56.0796 168.617 62.6466 162.247L61.254 160.811ZM34.8312 169.759C24.8155 169.759 16.8311 167.177 11.3696 162.641C5.92939 158.122 2.89644 151.588 2.89644 143.45H0.896438C0.896438 152.127 4.15333 159.247 10.0918 164.179C16.0089 169.094 24.4919 171.759 34.8312 171.759V169.759ZM2.89644 143.45C2.89644 135.396 5.82797 128.852 10.9662 124.31C16.1172 119.758 23.5749 117.141 32.7452 117.141V115.141C23.2039 115.141 15.2372 117.866 9.64174 122.812C4.0335 127.768 0.896438 134.879 0.896438 143.45H2.89644ZM32.7452 117.141C40.7764 117.141 47.3954 118.809 52.1067 121.856C56.7871 124.884 59.6244 129.293 60.1325 134.942L62.1245 134.763C61.558 128.465 58.3583 123.518 53.193 120.177C48.0586 116.856 41.0233 115.141 32.7452 115.141V117.141ZM61.1285 133.853H44.1238V135.853H61.1285V133.853ZM45.1137 134.711C44.8015 132.525 43.2865 130.839 41.156 129.73C39.0298 128.624 36.2045 128.037 32.998 128.037V130.037C35.9866 130.037 38.4712 130.588 40.2328 131.504C41.99 132.419 42.9404 133.64 43.1338 134.994L45.1137 134.711ZM32.998 128.037C28.1995 128.037 24.3262 129.388 21.6539 132.069C18.9822 134.749 17.6483 138.621 17.6483 143.387H19.6483C19.6483 138.986 20.8746 135.683 23.0704 133.48C25.2657 131.278 28.5672 130.037 32.998 130.037V128.037ZM17.6483 143.387C17.6483 148.192 19.1965 152.104 22.1902 154.805C25.1693 157.492 29.4515 158.863 34.7048 158.863V156.863C29.7806 156.863 26.0346 155.579 23.5298 153.319C21.0396 151.073 19.6483 147.748 19.6483 143.387H17.6483ZM75.8748 170H74.8748V171H75.8748V170ZM75.8748 116.9V115.9H74.8748V116.9H75.8748ZM126.004 116.9H127.004V115.9H126.004V116.9ZM126.004 130.175V131.175H127.004V130.175H126.004ZM92.5634 130.175V129.175H91.5634V130.175H92.5634ZM92.5634 137.002H91.5634V138.002H92.5634V137.002ZM120.315 137.002H121.315V136.002H120.315V137.002ZM120.315 148.76V149.76H121.315V148.76H120.315ZM92.5634 148.76V147.76H91.5634V148.76H92.5634ZM92.5634 156.725H91.5634V157.725H92.5634V156.725ZM126.004 156.725H127.004V155.725H126.004V156.725ZM126.004 170V171H127.004V170H126.004ZM76.8748 170V116.9H74.8748V170H76.8748ZM75.8748 117.9H126.004V115.9H75.8748V117.9ZM125.004 116.9V130.175H127.004V116.9H125.004ZM126.004 129.175H92.5634V131.175H126.004V129.175ZM91.5634 130.175V137.002H93.5634V130.175H91.5634ZM92.5634 138.002H120.315V136.002H92.5634V138.002ZM119.315 137.002V148.76H121.315V137.002H119.315ZM120.315 147.76H92.5634V149.76H120.315V147.76ZM91.5634 148.76V156.725H93.5634V148.76H91.5634ZM92.5634 157.725H126.004V155.725H92.5634V157.725ZM125.004 156.725V170H127.004V156.725H125.004ZM126.004 169H75.8748V171H126.004V169ZM158.22 170H157.22V171H158.22V170ZM158.22 130.554H159.22V129.554H158.22V130.554ZM135.968 130.554H134.968V131.554H135.968V130.554ZM135.968 116.9V115.9H134.968V116.9H135.968ZM197.097 116.9H198.097V115.9H197.097V116.9ZM197.097 130.554V131.554H198.097V130.554H197.097ZM174.908 130.554V129.554H173.908V130.554H174.908ZM174.908 170V171H175.908V170H174.908ZM159.22 170V130.554H157.22V170H159.22ZM158.22 129.554H135.968V131.554H158.22V129.554ZM136.968 130.554V116.9H134.968V130.554H136.968ZM135.968 117.9H197.097V115.9H135.968V117.9ZM196.097 116.9V130.554H198.097V116.9H196.097ZM197.097 129.554H174.908V131.554H197.097V129.554ZM173.908 130.554V170H175.908V130.554H173.908ZM174.908 169H158.22V171H174.908V169ZM235.697 170H234.697V171H235.697V170ZM235.697 116.9V115.9H234.697V116.9H235.697ZM252.385 116.9H253.385V115.9H252.385V116.9ZM252.385 170V171H253.385V170H252.385ZM236.697 170V116.9H234.697V170H236.697ZM235.697 117.9H252.385V115.9H235.697V117.9ZM251.385 116.9V170H253.385V116.9H251.385ZM252.385 169H235.697V171H252.385V169ZM266.911 170H265.911V171H266.911V170ZM266.911 116.9V115.9H265.911V116.9H266.911ZM287.835 116.9L288.682 116.367L288.388 115.9H287.835V116.9ZM308.317 149.455L307.47 149.988L309.317 152.923V149.455H308.317ZM308.317 116.9V115.9H307.317V116.9H308.317ZM324.247 116.9H325.247V115.9H324.247V116.9ZM324.247 170V171H325.247V170H324.247ZM303.323 170L302.475 170.53L302.768 171H303.323V170ZM282.841 137.192L283.69 136.662L281.841 133.701V137.192H282.841ZM282.841 170V171H283.841V170H282.841ZM267.911 170V116.9H265.911V170H267.911ZM266.911 117.9H287.835V115.9H266.911V117.9ZM286.989 117.432L307.47 149.988L309.163 148.923L288.682 116.367L286.989 117.432ZM309.317 149.455V116.9H307.317V149.455H309.317ZM308.317 117.9H324.247V115.9H308.317V117.9ZM323.247 116.9V170H325.247V116.9H323.247ZM324.247 169H303.323V171H324.247V169ZM304.171 169.47L283.69 136.662L281.993 137.721L302.475 170.53L304.171 169.47ZM281.841 137.192V170H283.841V137.192H281.841ZM282.841 169H266.911V171H282.841V169ZM22.8837 265H21.8837V266H22.8837V265ZM22.8837 225.554H23.8837V224.554H22.8837V225.554ZM0.632146 225.554H-0.367854V226.554H0.632146V225.554ZM0.632146 211.9V210.9H-0.367854V211.9H0.632146ZM61.7607 211.9H62.7607V210.9H61.7607V211.9ZM61.7607 225.554V226.554H62.7607V225.554H61.7607ZM39.5723 225.554V224.554H38.5723V225.554H39.5723ZM39.5723 265V266H40.5723V265H39.5723ZM23.8837 265V225.554H21.8837V265H23.8837ZM22.8837 224.554H0.632146V226.554H22.8837V224.554ZM1.63215 225.554V211.9H-0.367854V225.554H1.63215ZM0.632146 212.9H61.7607V210.9H0.632146V212.9ZM60.7607 211.9V225.554H62.7607V211.9H60.7607ZM61.7607 224.554H39.5723V226.554H61.7607V224.554ZM38.5723 225.554V265H40.5723V225.554H38.5723ZM39.5723 264H22.8837V266H39.5723V264ZM65.3085 238.45C65.3085 230.372 68.0183 223.839 73.1633 219.312C78.3246 214.77 86.0579 212.141 96.2951 212.141V210.141C85.7346 210.141 77.4747 212.854 71.8421 217.81C66.1932 222.781 63.3085 229.902 63.3085 238.45H65.3085ZM96.2951 212.141C106.5 212.141 114.234 214.77 119.404 219.312C124.557 223.84 127.282 230.374 127.282 238.45H129.282C129.282 229.9 126.38 222.78 120.724 217.81C115.084 212.854 106.825 210.141 96.2951 210.141V212.141ZM127.282 238.45C127.282 246.526 124.557 253.059 119.404 257.588C114.234 262.13 106.5 264.759 96.2951 264.759V266.759C106.825 266.759 115.084 264.046 120.724 259.09C126.38 254.12 129.282 247 129.282 238.45H127.282ZM96.2951 264.759C86.0579 264.759 78.3246 262.13 73.1633 257.588C68.0183 253.061 65.3085 246.527 65.3085 238.45H63.3085C63.3085 246.998 66.1932 254.119 71.8421 259.089C77.4747 264.046 85.7346 266.759 96.2951 266.759V264.759ZM80.0604 238.45C80.0604 242.744 81.2703 246.367 84.0167 248.904C86.7493 251.427 90.8421 252.725 96.2951 252.725V250.725C91.128 250.725 87.6034 249.494 85.3737 247.434C83.1577 245.388 82.0604 242.374 82.0604 238.45H80.0604ZM96.2951 252.725C101.718 252.725 105.795 251.427 108.519 248.903C111.257 246.366 112.467 242.744 112.467 238.45H110.467C110.467 242.374 109.369 245.389 107.16 247.436C104.938 249.494 101.429 250.725 96.2951 250.725V252.725ZM112.467 238.45C112.467 234.156 111.257 230.533 108.519 227.997C105.795 225.473 101.718 224.175 96.2951 224.175V226.175C101.429 226.175 104.938 227.405 107.16 229.464C109.369 231.511 110.467 234.526 110.467 238.45H112.467ZM96.2951 224.175C90.8421 224.175 86.7493 225.472 84.0167 227.996C81.2703 230.532 80.0604 234.156 80.0604 238.45H82.0604C82.0604 234.526 83.1577 231.512 85.3737 229.465C87.6034 227.406 91.128 226.175 96.2951 226.175V224.175ZM133.672 211.9V210.9H132.672V211.9H133.672ZM150.36 211.9H151.36V210.9H150.36V211.9ZM173.687 211.9V210.9H172.687V211.9H173.687ZM190.375 211.9H191.375V210.9H190.375V211.9ZM162.055 264.759C153.173 264.759 146.32 262.824 141.711 259.335C137.14 255.876 134.672 250.811 134.672 244.266H132.672C132.672 251.375 135.387 257.056 140.504 260.93C145.582 264.774 152.921 266.759 162.055 266.759V264.759ZM134.672 244.266V211.9H132.672V244.266H134.672ZM133.672 212.9H150.36V210.9H133.672V212.9ZM149.36 211.9V243.886H151.36V211.9H149.36ZM149.36 243.886C149.36 246.736 150.559 249.013 152.831 250.533C155.045 252.015 158.195 252.725 162.055 252.725V250.725C158.392 250.725 155.695 250.044 153.943 248.871C152.247 247.736 151.36 246.094 151.36 243.886H149.36ZM162.055 252.725C165.915 252.725 169.051 252.016 171.251 250.531C173.508 249.008 174.687 246.73 174.687 243.886H172.687C172.687 246.1 171.811 247.741 170.132 248.873C168.398 250.044 165.718 250.725 162.055 250.725V252.725ZM174.687 243.886V211.9H172.687V243.886H174.687ZM173.687 212.9H190.375V210.9H173.687V212.9ZM189.375 211.9V244.266H191.375V211.9H189.375ZM189.375 244.266C189.375 250.813 186.921 255.878 182.366 259.336C177.774 262.824 170.937 264.759 162.055 264.759V266.759C171.189 266.759 178.513 264.774 183.576 260.929C188.678 257.054 191.375 251.373 191.375 244.266H189.375ZM238.534 244.266V243.266H237.66L237.543 244.132L238.534 244.266ZM255.223 244.266H256.223V243.266H255.223V244.266ZM255.223 232.634V233.634H256.223V232.634H255.223ZM238.534 232.634L237.543 232.768L237.66 233.634H238.534V232.634ZM227.092 253.104C230.682 253.104 233.607 252.281 235.742 250.752C237.896 249.21 239.174 247 239.525 244.4L237.543 244.132C237.263 246.209 236.265 247.918 234.578 249.126C232.873 250.347 230.393 251.104 227.092 251.104V253.104ZM238.534 245.266H255.223V243.266H238.534V245.266ZM254.223 244.266C254.223 250.519 251.547 255.598 246.816 259.143C242.058 262.707 235.161 264.759 226.713 264.759V266.759C235.459 266.759 242.817 264.638 248.016 260.743C253.241 256.828 256.223 251.161 256.223 244.266H254.223ZM226.713 264.759C217.478 264.759 209.989 262.141 204.823 257.589C199.669 253.047 196.738 246.504 196.738 238.45H194.738C194.738 247.021 197.875 254.132 203.5 259.089C209.112 264.034 217.11 266.759 226.713 266.759V264.759ZM196.738 238.45C196.738 230.396 199.669 223.852 204.823 219.311C209.989 214.759 217.478 212.141 226.713 212.141V210.141C217.11 210.141 209.112 212.865 203.5 217.811C197.875 222.768 194.738 229.879 194.738 238.45H196.738ZM226.713 212.141C235.161 212.141 242.058 214.192 246.816 217.757C251.547 221.302 254.223 226.381 254.223 232.634H256.223C256.223 225.739 253.241 220.072 248.016 216.157C242.817 212.262 235.459 210.141 226.713 210.141V212.141ZM255.223 231.634H238.534V233.634H255.223V231.634ZM239.525 232.5C239.172 229.882 237.833 227.671 235.591 226.136C233.371 224.615 230.326 223.796 226.587 223.796V225.796C230.054 225.796 232.667 226.557 234.461 227.786C236.233 229 237.265 230.708 237.543 232.768L239.525 232.5ZM226.587 223.796C221.921 223.796 218.118 225.079 215.478 227.623C212.833 230.173 211.49 233.859 211.49 238.387H213.49C213.49 234.254 214.707 231.144 216.866 229.063C219.031 226.977 222.276 225.796 226.587 225.796V223.796ZM211.49 238.387C211.49 242.845 212.943 246.557 215.691 249.149C218.433 251.736 222.352 253.104 227.092 253.104V251.104C222.73 251.104 219.348 249.85 217.064 247.695C214.786 245.546 213.49 242.399 213.49 238.387H211.49ZM260.911 265H259.911V266H260.911V265ZM260.911 211.9V210.9H259.911V211.9H260.911ZM277.599 211.9H278.599V210.9H277.599V211.9ZM277.599 230.611H276.599V231.611H277.599V230.611ZM300.736 230.611V231.611H301.736V230.611H300.736ZM300.736 211.9V210.9H299.736V211.9H300.736ZM317.425 211.9H318.425V210.9H317.425V211.9ZM317.425 265V266H318.425V265H317.425ZM300.736 265H299.736V266H300.736V265ZM300.736 244.266H301.736V243.266H300.736V244.266ZM277.599 244.266V243.266H276.599V244.266H277.599ZM277.599 265V266H278.599V265H277.599ZM261.911 265V211.9H259.911V265H261.911ZM260.911 212.9H277.599V210.9H260.911V212.9ZM276.599 211.9V230.611H278.599V211.9H276.599ZM277.599 231.611H300.736V229.611H277.599V231.611ZM301.736 230.611V211.9H299.736V230.611H301.736ZM300.736 212.9H317.425V210.9H300.736V212.9ZM316.425 211.9V265H318.425V211.9H316.425ZM317.425 264H300.736V266H317.425V264ZM301.736 265V244.266H299.736V265H301.736ZM300.736 243.266H277.599V245.266H300.736V243.266ZM276.599 244.266V265H278.599V244.266H276.599ZM277.599 264H260.911V266H277.599V264Z" fill="white" fill-opacity="0.3" mask="url(#path-1-outside-1_218_386)"/>
<path d="M3.79288 68V14.8997H20.4815V54.3456H48.2327V68H3.79288ZM72.8993 68V14.8997H123.028V28.1748H89.5879V35.002H117.339V46.7599H89.5879V54.7249H123.028V68H72.8993ZM167.887 68V28.5541H145.636V14.8997H206.764V28.5541H184.576V68H167.887ZM230.775 38.9845L230.143 14.8997H242.786L242.154 38.9845H230.775ZM266.856 31.462C266.856 20.4626 276.781 14.1412 294.038 14.1412C311.612 14.1412 321.284 20.7155 321.284 32.7895H304.342C304.342 28.4277 299.791 26.2784 293.28 26.2784C287.021 26.2784 283.608 28.3012 283.608 31.2723C283.608 34.4963 288.033 35.1284 293.28 35.5077C305.48 36.4559 322.169 36.1398 322.169 50.1735C322.169 62.6268 312.497 68.7586 294.607 68.7586C275.832 68.7586 266.161 61.9946 266.161 49.8574H283.165C283.165 54.3456 287.401 56.6214 295.682 56.6214C302.256 56.6214 305.354 55.1674 305.354 52.2596C305.354 48.4035 299.98 47.8345 293.027 47.392C281.964 46.6967 266.856 46.3174 266.856 31.462ZM34.7048 150.863C39.762 150.863 43.6813 149.599 45.2616 148.524V142.835H30.9119V132.214H61.9503V154.529C55.6288 160.661 45.957 163.759 34.8312 163.759C14.4761 163.759 1.89644 153.265 1.89644 136.45C1.89644 119.824 14.0336 109.141 32.7452 109.141C49.0545 109.141 60.0539 115.905 61.1285 127.853H44.1238C43.6181 124.313 39.193 122.037 32.998 122.037C23.7687 122.037 18.6483 127.221 18.6483 136.387C18.6483 145.553 24.5273 150.863 34.7048 150.863ZM75.8748 163V109.9H126.004V123.175H92.5634V130.002H120.315V141.76H92.5634V149.725H126.004V163H75.8748ZM158.22 163V123.554H135.968V109.9H197.097V123.554H174.908V163H158.22ZM235.697 163V109.9H252.385V163H235.697ZM266.911 163V109.9H287.835L308.317 142.455V109.9H324.247V163H303.323L282.841 130.192V163H266.911ZM22.8837 258V218.554H0.632146V204.9H61.7607V218.554H39.5723V258H22.8837ZM64.3085 231.45C64.3085 214.824 75.4975 204.141 96.2951 204.141C117.029 204.141 128.282 214.824 128.282 231.45C128.282 248.075 117.029 258.759 96.2951 258.759C75.4975 258.759 64.3085 248.075 64.3085 231.45ZM81.0604 231.45C81.0604 239.668 85.675 244.725 96.2951 244.725C106.852 244.725 111.467 239.668 111.467 231.45C111.467 223.232 106.852 218.175 96.2951 218.175C85.675 218.175 81.0604 223.232 81.0604 231.45ZM162.055 258.759C144.039 258.759 133.672 250.92 133.672 237.266V204.9H150.36V236.886C150.36 241.943 154.533 244.725 162.055 244.725C169.578 244.725 173.687 241.943 173.687 236.886V204.9H190.375V237.266C190.375 250.92 180.071 258.759 162.055 258.759ZM227.092 245.104C233.983 245.104 237.902 241.943 238.534 237.266H255.223C255.223 250.414 243.908 258.759 226.713 258.759C207.875 258.759 195.738 248.075 195.738 231.45C195.738 214.824 207.875 204.141 226.713 204.141C243.908 204.141 255.223 212.485 255.223 225.634H238.534C237.902 220.956 233.793 217.796 226.587 217.796C217.61 217.796 212.49 222.726 212.49 231.387C212.49 239.857 217.99 245.104 227.092 245.104ZM260.911 258V204.9H277.599V223.611H300.736V204.9H317.425V258H300.736V237.266H277.599V258H260.911Z" fill="white"/>
</svg>
