<svg width="573" height="93" viewBox="0 0 573 93" fill="none" xmlns="http://www.w3.org/2000/svg">
<mask id="path-1-outside-1_199_2710" maskUnits="userSpaceOnUse" x="2" y="16" width="570" height="57" fill="black">
<rect fill="white" x="2" y="16" width="570" height="57"/>
<path d="M3.91351 71V17.8997H54.0427V31.1748H20.6022V38.002H48.3534V49.7599H20.6022V57.7249H54.0427V71H3.91351ZM104.211 71L90.0513 55.2596L76.9027 71H56.4211L80.1266 44.2602L56.4211 17.8997H77.7877L91.9477 33.6402L105.096 17.8997H125.578L101.872 44.6395L125.578 71H104.211ZM129.355 71V17.8997H165.261C176.892 17.8997 184.099 24.7901 184.099 36.1055C184.099 47.737 176.513 55.7021 165.261 55.7021H146.044V71H129.355ZM146.044 42.8063H160.33C164.882 42.8063 167.41 40.7202 167.41 37.1802C167.41 33.577 164.755 31.5541 160.33 31.5541H146.044V42.8063ZM189.792 71V17.8997H239.921V31.1748H206.48V38.002H234.231V49.7599H206.48V57.7249H239.921V71H189.792ZM246.092 71V17.8997H281.239C293.945 17.8997 302.227 24.4108 302.227 34.3355C302.227 41.6684 297.738 47.1049 291.164 48.622C293.882 50.0128 296.032 51.9724 297.422 54.6274L305.893 71H287.877L280.607 56.8399C279.027 53.8056 277.257 53.0471 271.504 53.0471H262.781V71H246.092ZM262.781 42.0477H278.458C283.009 42.0477 285.538 40.1513 285.538 36.7377C285.538 33.4505 282.883 31.5541 278.458 31.5541H262.781V42.0477ZM311.591 71V17.8997H328.279V71H311.591ZM335.852 71V17.8997H385.981V31.1748H352.54V38.002H380.292V49.7599H352.54V57.7249H385.981V71H335.852ZM392.152 71V17.8997H413.076L433.558 50.4553V17.8997H449.488V71H428.564L408.082 38.1916V71H392.152ZM486.553 58.1042C493.444 58.1042 497.363 54.9435 497.995 50.2656H514.684C514.684 63.4142 503.369 71.7586 486.174 71.7586C467.336 71.7586 455.199 61.0753 455.199 44.4499C455.199 27.8244 467.336 17.1412 486.174 17.1412C503.369 17.1412 514.684 25.4855 514.684 38.6341H497.995C497.363 33.9562 493.254 30.7955 486.048 30.7955C477.071 30.7955 471.951 35.7263 471.951 44.3867C471.951 52.8574 477.451 58.1042 486.553 58.1042ZM520.372 71V17.8997H570.501V31.1748H537.06V38.002H564.812V49.7599H537.06V57.7249H570.501V71H520.372Z"/>
</mask>
<path d="M3.91351 71H2.91351V72H3.91351V71ZM3.91351 17.8997V16.8997H2.91351V17.8997H3.91351ZM54.0427 17.8997H55.0427V16.8997H54.0427V17.8997ZM54.0427 31.1748V32.1748H55.0427V31.1748H54.0427ZM20.6022 31.1748V30.1748H19.6022V31.1748H20.6022ZM20.6022 38.002H19.6022V39.002H20.6022V38.002ZM48.3534 38.002H49.3534V37.002H48.3534V38.002ZM48.3534 49.7599V50.7599H49.3534V49.7599H48.3534ZM20.6022 49.7599V48.7599H19.6022V49.7599H20.6022ZM20.6022 57.7249H19.6022V58.7249H20.6022V57.7249ZM54.0427 57.7249H55.0427V56.7249H54.0427V57.7249ZM54.0427 71V72H55.0427V71H54.0427ZM4.91351 71V17.8997H2.91351V71H4.91351ZM3.91351 18.8997H54.0427V16.8997H3.91351V18.8997ZM53.0427 17.8997V31.1748H55.0427V17.8997H53.0427ZM54.0427 30.1748H20.6022V32.1748H54.0427V30.1748ZM19.6022 31.1748V38.002H21.6022V31.1748H19.6022ZM20.6022 39.002H48.3534V37.002H20.6022V39.002ZM47.3534 38.002V49.7599H49.3534V38.002H47.3534ZM48.3534 48.7599H20.6022V50.7599H48.3534V48.7599ZM19.6022 49.7599V57.7249H21.6022V49.7599H19.6022ZM20.6022 58.7249H54.0427V56.7249H20.6022V58.7249ZM53.0427 57.7249V71H55.0427V57.7249H53.0427ZM54.0427 70H3.91351V72H54.0427V70ZM104.211 71L103.468 71.6688L103.766 72H104.211V71ZM90.0513 55.2596L90.7947 54.5908L90.0233 53.7332L89.2838 54.6185L90.0513 55.2596ZM76.9027 71V72H77.3703L77.6701 71.6411L76.9027 71ZM56.4211 71L55.6728 70.3366L54.1982 72H56.4211V71ZM80.1266 44.2602L80.8749 44.9236L81.4672 44.2555L80.8702 43.5916L80.1266 44.2602ZM56.4211 17.8997V16.8997H54.177L55.6776 18.5684L56.4211 17.8997ZM77.7877 17.8997L78.5311 17.2309L78.2332 16.8997H77.7877V17.8997ZM91.9477 33.6402L91.2043 34.309L91.9757 35.1665L92.7152 34.2813L91.9477 33.6402ZM105.096 17.8997V16.8997H104.629L104.329 17.2587L105.096 17.8997ZM125.578 17.8997L126.326 18.5631L127.801 16.8997H125.578V17.8997ZM101.872 44.6395L101.124 43.9761L100.532 44.6443L101.129 45.3082L101.872 44.6395ZM125.578 71V72H127.822L126.321 70.3313L125.578 71ZM104.955 70.3312L90.7947 54.5908L89.3078 55.9284L103.468 71.6688L104.955 70.3312ZM89.2838 54.6185L76.1352 70.3589L77.6701 71.6411L90.8188 55.9007L89.2838 54.6185ZM76.9027 70H56.4211V72H76.9027V70ZM57.1694 71.6634L80.8749 44.9236L79.3783 43.5969L55.6728 70.3366L57.1694 71.6634ZM80.8702 43.5916L57.1647 17.2311L55.6776 18.5684L79.383 44.9289L80.8702 43.5916ZM56.4211 18.8997H77.7877V16.8997H56.4211V18.8997ZM77.0442 18.5685L91.2043 34.309L92.6912 32.9714L78.5311 17.2309L77.0442 18.5685ZM92.7152 34.2813L105.864 18.5408L104.329 17.2587L91.1803 32.9991L92.7152 34.2813ZM105.096 18.8997H125.578V16.8997H105.096V18.8997ZM124.83 17.2364L101.124 43.9761L102.621 45.3029L126.326 18.5631L124.83 17.2364ZM101.129 45.3082L124.834 71.6687L126.321 70.3313L102.616 43.9708L101.129 45.3082ZM125.578 70H104.211V72H125.578V70ZM129.355 71H128.355V72H129.355V71ZM129.355 17.8997V16.8997H128.355V17.8997H129.355ZM146.044 55.7021V54.7021H145.044V55.7021H146.044ZM146.044 71V72H147.044V71H146.044ZM146.044 42.8063H145.044V43.8063H146.044V42.8063ZM146.044 31.5541V30.5541H145.044V31.5541H146.044ZM130.355 71V17.8997H128.355V71H130.355ZM129.355 18.8997H165.261V16.8997H129.355V18.8997ZM165.261 18.8997C170.88 18.8997 175.319 20.5612 178.348 23.4795C181.372 26.3933 183.099 30.6651 183.099 36.1055H185.099C185.099 30.2306 183.223 25.3994 179.736 22.0393C176.253 18.6835 171.273 16.8997 165.261 16.8997V18.8997ZM183.099 36.1055C183.099 41.7016 181.277 46.3404 178.178 49.5736C175.081 52.803 170.642 54.7021 165.261 54.7021V56.7021C171.132 56.7021 176.111 54.6186 179.621 50.9577C183.127 47.3004 185.099 42.141 185.099 36.1055H183.099ZM165.261 54.7021H146.044V56.7021H165.261V54.7021ZM145.044 55.7021V71H147.044V55.7021H145.044ZM146.044 70H129.355V72H146.044V70ZM146.044 43.8063H160.33V41.8063H146.044V43.8063ZM160.33 43.8063C162.742 43.8063 164.764 43.2553 166.203 42.1006C167.673 40.9208 168.41 39.2092 168.41 37.1802H166.41C166.41 38.6912 165.883 39.7927 164.951 40.5409C163.987 41.3142 162.469 41.8063 160.33 41.8063V43.8063ZM168.41 37.1802C168.41 35.1081 167.633 33.3967 166.147 32.2296C164.696 31.0889 162.678 30.5541 160.33 30.5541V32.5541C162.407 32.5541 163.93 33.0307 164.912 33.8023C165.86 34.5474 166.41 35.649 166.41 37.1802H168.41ZM160.33 30.5541H146.044V32.5541H160.33V30.5541ZM145.044 31.5541V42.8063H147.044V31.5541H145.044ZM189.792 71H188.792V72H189.792V71ZM189.792 17.8997V16.8997H188.792V17.8997H189.792ZM239.921 17.8997H240.921V16.8997H239.921V17.8997ZM239.921 31.1748V32.1748H240.921V31.1748H239.921ZM206.48 31.1748V30.1748H205.48V31.1748H206.48ZM206.48 38.002H205.48V39.002H206.48V38.002ZM234.231 38.002H235.231V37.002H234.231V38.002ZM234.231 49.7599V50.7599H235.231V49.7599H234.231ZM206.48 49.7599V48.7599H205.48V49.7599H206.48ZM206.48 57.7249H205.48V58.7249H206.48V57.7249ZM239.921 57.7249H240.921V56.7249H239.921V57.7249ZM239.921 71V72H240.921V71H239.921ZM190.792 71V17.8997H188.792V71H190.792ZM189.792 18.8997H239.921V16.8997H189.792V18.8997ZM238.921 17.8997V31.1748H240.921V17.8997H238.921ZM239.921 30.1748H206.48V32.1748H239.921V30.1748ZM205.48 31.1748V38.002H207.48V31.1748H205.48ZM206.48 39.002H234.231V37.002H206.48V39.002ZM233.231 38.002V49.7599H235.231V38.002H233.231ZM234.231 48.7599H206.48V50.7599H234.231V48.7599ZM205.48 49.7599V57.7249H207.48V49.7599H205.48ZM206.48 58.7249H239.921V56.7249H206.48V58.7249ZM238.921 57.7249V71H240.921V57.7249H238.921ZM239.921 70H189.792V72H239.921V70ZM246.092 71H245.092V72H246.092V71ZM246.092 17.8997V16.8997H245.092V17.8997H246.092ZM291.164 48.622L290.939 47.6476L288.269 48.2639L290.709 49.5123L291.164 48.622ZM297.422 54.6274L298.31 54.1679L298.308 54.1634L297.422 54.6274ZM305.893 71V72H307.536L306.781 70.5405L305.893 71ZM287.877 71L286.987 71.4567L287.266 72H287.877V71ZM280.607 56.8399L281.497 56.3832L281.494 56.378L280.607 56.8399ZM262.781 53.0471V52.0471H261.781V53.0471H262.781ZM262.781 71V72H263.781V71H262.781ZM262.781 42.0477H261.781V43.0477H262.781V42.0477ZM262.781 31.5541V30.5541H261.781V31.5541H262.781ZM247.092 71V17.8997H245.092V71H247.092ZM246.092 18.8997H281.239V16.8997H246.092V18.8997ZM281.239 18.8997C287.432 18.8997 292.442 20.487 295.881 23.1828C299.297 25.8611 301.227 29.6796 301.227 34.3355H303.227C303.227 29.0668 301.016 24.6674 297.115 21.6089C293.236 18.568 287.753 16.8997 281.239 16.8997V18.8997ZM301.227 34.3355C301.227 41.2102 297.053 46.2369 290.939 47.6476L291.389 49.5964C298.424 47.9729 303.227 42.1267 303.227 34.3355H301.227ZM290.709 49.5123C293.271 50.8235 295.256 52.6461 296.536 55.0914L298.308 54.1634C296.808 51.2987 294.493 49.202 291.62 47.7318L290.709 49.5123ZM296.534 55.0869L305.005 71.4595L306.781 70.5405L298.31 54.1679L296.534 55.0869ZM305.893 70H287.877V72H305.893V70ZM288.767 70.5433L281.497 56.3832L279.718 57.2967L286.987 71.4567L288.767 70.5433ZM281.494 56.378C280.64 54.7383 279.655 53.5734 278.006 52.8832C276.445 52.2294 274.382 52.0471 271.504 52.0471V54.0471C274.379 54.0471 276.078 54.244 277.234 54.7281C278.303 55.1757 278.994 55.9073 279.72 57.3019L281.494 56.378ZM271.504 52.0471H262.781V54.0471H271.504V52.0471ZM261.781 53.0471V71H263.781V53.0471H261.781ZM262.781 70H246.092V72H262.781V70ZM262.781 43.0477H278.458V41.0477H262.781V43.0477ZM278.458 43.0477C280.851 43.0477 282.865 42.5522 284.305 41.4728C285.787 40.3609 286.538 38.7202 286.538 36.7377H284.538C284.538 38.1688 284.024 39.1831 283.105 39.8728C282.142 40.595 280.616 41.0477 278.458 41.0477V43.0477ZM286.538 36.7377C286.538 34.789 285.733 33.1862 284.245 32.1045C282.799 31.0522 280.795 30.5541 278.458 30.5541V32.5541C280.546 32.5541 282.082 33.0042 283.069 33.7219C284.016 34.4102 284.538 35.3992 284.538 36.7377H286.538ZM278.458 30.5541H262.781V32.5541H278.458V30.5541ZM261.781 31.5541V42.0477H263.781V31.5541H261.781ZM311.591 71H310.591V72H311.591V71ZM311.591 17.8997V16.8997H310.591V17.8997H311.591ZM328.279 17.8997H329.279V16.8997H328.279V17.8997ZM328.279 71V72H329.279V71H328.279ZM312.591 71V17.8997H310.591V71H312.591ZM311.591 18.8997H328.279V16.8997H311.591V18.8997ZM327.279 17.8997V71H329.279V17.8997H327.279ZM328.279 70H311.591V72H328.279V70ZM335.852 71H334.852V72H335.852V71ZM335.852 17.8997V16.8997H334.852V17.8997H335.852ZM385.981 17.8997H386.981V16.8997H385.981V17.8997ZM385.981 31.1748V32.1748H386.981V31.1748H385.981ZM352.54 31.1748V30.1748H351.54V31.1748H352.54ZM352.54 38.002H351.54V39.002H352.54V38.002ZM380.292 38.002H381.292V37.002H380.292V38.002ZM380.292 49.7599V50.7599H381.292V49.7599H380.292ZM352.54 49.7599V48.7599H351.54V49.7599H352.54ZM352.54 57.7249H351.54V58.7249H352.54V57.7249ZM385.981 57.7249H386.981V56.7249H385.981V57.7249ZM385.981 71V72H386.981V71H385.981ZM336.852 71V17.8997H334.852V71H336.852ZM335.852 18.8997H385.981V16.8997H335.852V18.8997ZM384.981 17.8997V31.1748H386.981V17.8997H384.981ZM385.981 30.1748H352.54V32.1748H385.981V30.1748ZM351.54 31.1748V38.002H353.54V31.1748H351.54ZM352.54 39.002H380.292V37.002H352.54V39.002ZM379.292 38.002V49.7599H381.292V38.002H379.292ZM380.292 48.7599H352.54V50.7599H380.292V48.7599ZM351.54 49.7599V57.7249H353.54V49.7599H351.54ZM352.54 58.7249H385.981V56.7249H352.54V58.7249ZM384.981 57.7249V71H386.981V57.7249H384.981ZM385.981 70H335.852V72H385.981V70ZM392.152 71H391.152V72H392.152V71ZM392.152 17.8997V16.8997H391.152V17.8997H392.152ZM413.076 17.8997L413.923 17.3672L413.629 16.8997H413.076V17.8997ZM433.558 50.4553L432.711 50.9878L434.558 53.9227V50.4553H433.558ZM433.558 17.8997V16.8997H432.558V17.8997H433.558ZM449.488 17.8997H450.488V16.8997H449.488V17.8997ZM449.488 71V72H450.488V71H449.488ZM428.564 71L427.716 71.5296L428.009 72H428.564V71ZM408.082 38.1916L408.931 37.6621L407.082 34.7014V38.1916H408.082ZM408.082 71V72H409.082V71H408.082ZM393.152 71V17.8997H391.152V71H393.152ZM392.152 18.8997H413.076V16.8997H392.152V18.8997ZM412.23 18.4323L432.711 50.9878L434.404 49.9227L413.923 17.3672L412.23 18.4323ZM434.558 50.4553V17.8997H432.558V50.4553H434.558ZM433.558 18.8997H449.488V16.8997H433.558V18.8997ZM448.488 17.8997V71H450.488V17.8997H448.488ZM449.488 70H428.564V72H449.488V70ZM429.412 70.4704L408.931 37.6621L407.234 38.7212L427.716 71.5296L429.412 70.4704ZM407.082 38.1916V71H409.082V38.1916H407.082ZM408.082 70H392.152V72H408.082V70ZM497.995 50.2656V49.2656H497.121L497.004 50.1317L497.995 50.2656ZM514.684 50.2656H515.684V49.2656H514.684V50.2656ZM514.684 38.6341V39.6341H515.684V38.6341H514.684ZM497.995 38.6341L497.004 38.768L497.121 39.6341H497.995V38.6341ZM486.553 59.1042C490.143 59.1042 493.068 58.2813 495.203 56.7522C497.357 55.2102 498.635 52.9999 498.986 50.3995L497.004 50.1317C496.724 52.2092 495.726 53.9183 494.039 55.1261C492.334 56.3468 489.854 57.1042 486.553 57.1042V59.1042ZM497.995 51.2656H514.684V49.2656H497.995V51.2656ZM513.684 50.2656C513.684 56.5191 511.008 61.5982 506.277 65.1425C501.519 68.7073 494.622 70.7586 486.174 70.7586V72.7586C494.92 72.7586 502.278 70.6377 507.477 66.7431C512.702 62.8282 515.684 57.1607 515.684 50.2656H513.684ZM486.174 70.7586C476.939 70.7586 469.45 68.1412 464.283 63.5885C459.13 59.0474 456.199 52.504 456.199 44.4499H454.199C454.199 53.0212 457.336 60.1321 462.961 65.089C468.573 70.0344 476.571 72.7586 486.174 72.7586V70.7586ZM456.199 44.4499C456.199 36.3958 459.13 29.8523 464.283 25.3112C469.45 20.7586 476.939 18.1412 486.174 18.1412V16.1412C476.571 16.1412 468.573 18.8654 462.961 23.8107C457.336 28.7676 454.199 35.8785 454.199 44.4499H456.199ZM486.174 18.1412C494.622 18.1412 501.519 20.1924 506.277 23.7572C511.008 27.3016 513.684 32.3806 513.684 38.6341H515.684C515.684 31.739 512.702 26.0716 507.477 22.1566C502.278 18.2621 494.92 16.1412 486.174 16.1412V18.1412ZM514.684 37.6341H497.995V39.6341H514.684V37.6341ZM498.986 38.5002C498.633 35.8824 497.293 33.6711 495.052 32.1356C492.832 30.6146 489.787 29.7955 486.048 29.7955V31.7955C489.515 31.7955 492.128 32.5568 493.922 33.7856C495.694 35 496.726 36.7079 497.004 38.768L498.986 38.5002ZM486.048 29.7955C481.382 29.7955 477.579 31.0791 474.939 33.6234C472.294 36.1729 470.951 39.8587 470.951 44.3867H472.951C472.951 40.2542 474.168 37.1445 476.327 35.0635C478.492 32.9773 481.737 31.7955 486.048 31.7955V29.7955ZM470.951 44.3867C470.951 48.845 472.404 52.5567 475.152 55.1494C477.894 57.7355 481.813 59.1042 486.553 59.1042V57.1042C482.191 57.1042 478.809 55.8495 476.525 53.6946C474.247 51.5461 472.951 48.3991 472.951 44.3867H470.951ZM520.372 71H519.372V72H520.372V71ZM520.372 17.8997V16.8997H519.372V17.8997H520.372ZM570.501 17.8997H571.501V16.8997H570.501V17.8997ZM570.501 31.1748V32.1748H571.501V31.1748H570.501ZM537.06 31.1748V30.1748H536.06V31.1748H537.06ZM537.06 38.002H536.06V39.002H537.06V38.002ZM564.812 38.002H565.812V37.002H564.812V38.002ZM564.812 49.7599V50.7599H565.812V49.7599H564.812ZM537.06 49.7599V48.7599H536.06V49.7599H537.06ZM537.06 57.7249H536.06V58.7249H537.06V57.7249ZM570.501 57.7249H571.501V56.7249H570.501V57.7249ZM570.501 71V72H571.501V71H570.501ZM521.372 71V17.8997H519.372V71H521.372ZM520.372 18.8997H570.501V16.8997H520.372V18.8997ZM569.501 17.8997V31.1748H571.501V17.8997H569.501ZM570.501 30.1748H537.06V32.1748H570.501V30.1748ZM536.06 31.1748V38.002H538.06V31.1748H536.06ZM537.06 39.002H564.812V37.002H537.06V39.002ZM563.812 38.002V49.7599H565.812V38.002H563.812ZM564.812 48.7599H537.06V50.7599H564.812V48.7599ZM536.06 49.7599V57.7249H538.06V49.7599H536.06ZM537.06 58.7249H570.501V56.7249H537.06V58.7249ZM569.501 57.7249V71H571.501V57.7249H569.501ZM570.501 70H520.372V72H570.501V70Z" fill="white" fill-opacity="0.3" mask="url(#path-1-outside-1_199_2710)"/>
<path d="M3.91351 63V9.89974H54.0427V23.1748H20.6022V30.002H48.3534V41.7599H20.6022V49.7249H54.0427V63H3.91351ZM104.211 63L90.0513 47.2596L76.9027 63H56.4211L80.1266 36.2602L56.4211 9.89974H77.7877L91.9477 25.6402L105.096 9.89974H125.578L101.872 36.6395L125.578 63H104.211ZM129.355 63V9.89974H165.261C176.892 9.89974 184.099 16.7901 184.099 28.1055C184.099 39.737 176.513 47.7021 165.261 47.7021H146.044V63H129.355ZM146.044 34.8063H160.33C164.882 34.8063 167.41 32.7202 167.41 29.1802C167.41 25.577 164.755 23.5541 160.33 23.5541H146.044V34.8063ZM189.792 63V9.89974H239.921V23.1748H206.48V30.002H234.231V41.7599H206.48V49.7249H239.921V63H189.792ZM246.092 63V9.89974H281.239C293.945 9.89974 302.227 16.4108 302.227 26.3355C302.227 33.6684 297.738 39.1049 291.164 40.622C293.882 42.0128 296.032 43.9724 297.422 46.6274L305.893 63H287.877L280.607 48.8399C279.027 45.8056 277.257 45.0471 271.504 45.0471H262.781V63H246.092ZM262.781 34.0477H278.458C283.009 34.0477 285.538 32.1513 285.538 28.7377C285.538 25.4505 282.883 23.5541 278.458 23.5541H262.781V34.0477ZM311.591 63V9.89974H328.279V63H311.591ZM335.852 63V9.89974H385.981V23.1748H352.54V30.002H380.292V41.7599H352.54V49.7249H385.981V63H335.852ZM392.152 63V9.89974H413.076L433.558 42.4553V9.89974H449.488V63H428.564L408.082 30.1916V63H392.152ZM486.553 50.1042C493.444 50.1042 497.363 46.9435 497.995 42.2656H514.684C514.684 55.4142 503.369 63.7586 486.174 63.7586C467.336 63.7586 455.199 53.0753 455.199 36.4499C455.199 19.8244 467.336 9.14117 486.174 9.14117C503.369 9.14117 514.684 17.4855 514.684 30.6341H497.995C497.363 25.9562 493.254 22.7955 486.048 22.7955C477.071 22.7955 471.951 27.7263 471.951 36.3867C471.951 44.8574 477.451 50.1042 486.553 50.1042ZM520.372 63V9.89974H570.501V23.1748H537.06V30.002H564.812V41.7599H537.06V49.7249H570.501V63H520.372Z" fill="white"/>
</svg>
