<svg width="573" height="93" viewBox="0 0 573 93" fill="none" xmlns="http://www.w3.org/2000/svg">
<mask id="mask0_248_607" style="mask-type:luminance" maskUnits="userSpaceOnUse" x="2" y="16" width="570" height="57">
<path d="M572 16H2V73H572V16Z" fill="white"/>
<path d="M3.91309 70.9999V17.8996H54.0423V31.1747H20.6018V38.0019H48.353V49.7598H20.6018V57.7248H54.0423V70.9999H3.91309ZM104.211 70.9999L90.0509 55.2595L76.9023 70.9999H56.4207L80.1262 44.2601L56.4207 17.8996H77.7873L91.9473 33.6401L105.096 17.8996H125.578L101.872 44.6394L125.578 70.9999H104.211ZM129.355 70.9999V17.8996H165.261C176.892 17.8996 184.099 24.79 184.099 36.1054C184.099 47.7369 176.513 55.702 165.261 55.702H146.044V70.9999H129.355ZM146.044 42.8062H160.33C164.882 42.8062 167.41 40.7201 167.41 37.1801C167.41 33.5769 164.755 31.554 160.33 31.554H146.044V42.8062ZM189.792 70.9999V17.8996H239.921V31.1747H206.48V38.0019H234.231V49.7598H206.48V57.7248H239.921V70.9999H189.792ZM246.092 70.9999V17.8996H281.239C293.945 17.8996 302.227 24.4107 302.227 34.3354C302.227 41.6683 297.738 47.1048 291.164 48.6219C293.882 50.0127 296.032 51.9723 297.422 54.6273L305.893 70.9999H287.877L280.607 56.8398C279.027 53.8055 277.257 53.047 271.504 53.047H262.781V70.9999H246.092ZM262.781 42.0476H278.458C283.009 42.0476 285.538 40.1512 285.538 36.7376C285.538 33.4504 282.883 31.554 278.458 31.554H262.781V42.0476ZM311.591 70.9999V17.8996H328.279V70.9999H311.591ZM335.852 70.9999V17.8996H385.981V31.1747H352.54V38.0019H380.292V49.7598H352.54V57.7248H385.981V70.9999H335.852ZM392.152 70.9999V17.8996H413.076L433.558 50.4552V17.8996H449.488V70.9999H428.564L408.082 38.1915V70.9999H392.152ZM486.553 58.1041C493.444 58.1041 497.363 54.9434 497.995 50.2655H514.684C514.684 63.4141 503.369 71.7585 486.174 71.7585C467.336 71.7585 455.199 61.0752 455.199 44.4498C455.199 27.8243 467.336 17.1411 486.174 17.1411C503.369 17.1411 514.684 25.4854 514.684 38.634H497.995C497.363 33.9561 493.254 30.7954 486.048 30.7954C477.071 30.7954 471.951 35.7262 471.951 44.3866C471.951 52.8573 477.451 58.1041 486.553 58.1041ZM520.372 70.9999V17.8996H570.501V31.1747H537.06V38.0019H564.812V49.7598H537.06V57.7248H570.501V70.9999H520.372Z" fill="black"/>
</mask>
<g mask="url(#mask0_248_607)">
<path d="M3.91309 70.9999H2.91309V71.9999H3.91309V70.9999ZM3.91309 17.8996V16.8996H2.91309V17.8996H3.91309ZM54.0423 17.8996H55.0423V16.8996H54.0423V17.8996ZM54.0423 31.1747V32.1747H55.0423V31.1747H54.0423ZM20.6018 31.1747V30.1747H19.6018V31.1747H20.6018ZM20.6018 38.0019H19.6018V39.0019H20.6018V38.0019ZM48.353 38.0019H49.353V37.0019H48.353V38.0019ZM48.353 49.7598V50.7598H49.353V49.7598H48.353ZM20.6018 49.7598V48.7598H19.6018V49.7598H20.6018ZM20.6018 57.7248H19.6018V58.7248H20.6018V57.7248ZM54.0423 57.7248H55.0423V56.7248H54.0423V57.7248ZM54.0423 70.9999V71.9999H55.0423V70.9999H54.0423ZM4.91309 70.9999V17.8996H2.91309V70.9999H4.91309ZM3.91309 18.8996H54.0423V16.8996H3.91309V18.8996ZM53.0423 17.8996V31.1747H55.0423V17.8996H53.0423ZM54.0423 30.1747H20.6018V32.1747H54.0423V30.1747ZM19.6018 31.1747V38.0019H21.6018V31.1747H19.6018ZM20.6018 39.0019H48.353V37.0019H20.6018V39.0019ZM47.353 38.0019V49.7598H49.353V38.0019H47.353ZM48.353 48.7598H20.6018V50.7598H48.353V48.7598ZM19.6018 49.7598V57.7248H21.6018V49.7598H19.6018ZM20.6018 58.7248H54.0423V56.7248H20.6018V58.7248ZM53.0423 57.7248V70.9999H55.0423V57.7248H53.0423ZM54.0423 69.9999H3.91309V71.9999H54.0423V69.9999ZM104.211 70.9999L103.468 71.6687L103.766 71.9999H104.211V70.9999ZM90.0509 55.2595L90.7943 54.5907L90.0229 53.7331L89.2834 54.6184L90.0509 55.2595ZM76.9023 70.9999V71.9999H77.3699L77.6697 71.641L76.9023 70.9999ZM56.4207 70.9999L55.6724 70.3365L54.1978 71.9999H56.4207V70.9999ZM80.1262 44.2601L80.8745 44.9235L81.4668 44.2554L80.8698 43.5915L80.1262 44.2601ZM56.4207 17.8996V16.8996H54.1766L55.6772 18.5683L56.4207 17.8996ZM77.7873 17.8996L78.5307 17.2308L78.2328 16.8996H77.7873V17.8996ZM91.9473 33.6401L91.2039 34.3089L91.9753 35.1664L92.7148 34.2812L91.9473 33.6401ZM105.096 17.8996V16.8996H104.629L104.329 17.2586L105.096 17.8996ZM125.578 17.8996L126.326 18.563L127.801 16.8996H125.578V17.8996ZM101.872 44.6394L101.124 43.976L100.532 44.6442L101.129 45.3081L101.872 44.6394ZM125.578 70.9999V71.9999H127.822L126.321 70.3312L125.578 70.9999ZM104.955 70.3311L90.7943 54.5907L89.3074 55.9283L103.468 71.6687L104.955 70.3311ZM89.2834 54.6184L76.1348 70.3588L77.6697 71.641L90.8184 55.9006L89.2834 54.6184ZM76.9023 69.9999H56.4207V71.9999H76.9023V69.9999ZM57.169 71.6633L80.8745 44.9235L79.3779 43.5968L55.6724 70.3365L57.169 71.6633ZM80.8698 43.5915L57.1643 17.231L55.6772 18.5683L79.3826 44.9288L80.8698 43.5915ZM56.4207 18.8996H77.7873V16.8996H56.4207V18.8996ZM77.0438 18.5684L91.2039 34.3089L92.6908 32.9713L78.5307 17.2308L77.0438 18.5684ZM92.7148 34.2812L105.864 18.5407L104.329 17.2586L91.1799 32.999L92.7148 34.2812ZM105.096 18.8996H125.578V16.8996H105.096V18.8996ZM124.83 17.2363L101.124 43.976L102.621 45.3028L126.326 18.563L124.83 17.2363ZM101.129 45.3081L124.834 71.6686L126.321 70.3312L102.616 43.9707L101.129 45.3081ZM125.578 69.9999H104.211V71.9999H125.578V69.9999ZM129.355 70.9999H128.355V71.9999H129.355V70.9999ZM129.355 17.8996V16.8996H128.355V17.8996H129.355ZM146.044 55.702V54.702H145.044V55.702H146.044ZM146.044 70.9999V71.9999H147.044V70.9999H146.044ZM146.044 42.8062H145.044V43.8062H146.044V42.8062ZM146.044 31.554V30.554H145.044V31.554H146.044ZM130.355 70.9999V17.8996H128.355V70.9999H130.355ZM129.355 18.8996H165.261V16.8996H129.355V18.8996ZM165.261 18.8996C170.88 18.8996 175.319 20.5611 178.348 23.4794C181.372 26.3932 183.099 30.665 183.099 36.1054H185.099C185.099 30.2305 183.223 25.3993 179.736 22.0392C176.253 18.6834 171.273 16.8996 165.261 16.8996V18.8996ZM183.099 36.1054C183.099 41.7015 181.277 46.3403 178.178 49.5735C175.081 52.8029 170.642 54.702 165.261 54.702V56.702C171.132 56.702 176.111 54.6185 179.621 50.9576C183.127 47.3003 185.099 42.1409 185.099 36.1054H183.099ZM165.261 54.702H146.044V56.702H165.261V54.702ZM145.044 55.702V70.9999H147.044V55.702H145.044ZM146.044 69.9999H129.355V71.9999H146.044V69.9999ZM146.044 43.8062H160.33V41.8062H146.044V43.8062ZM160.33 43.8062C162.742 43.8062 164.764 43.2552 166.203 42.1005C167.673 40.9207 168.41 39.2091 168.41 37.1801H166.41C166.41 38.6911 165.883 39.7926 164.951 40.5408C163.987 41.3141 162.469 41.8062 160.33 41.8062V43.8062ZM168.41 37.1801C168.41 35.108 167.633 33.3966 166.147 32.2295C164.696 31.0888 162.678 30.554 160.33 30.554V32.554C162.407 32.554 163.93 33.0306 164.912 33.8022C165.86 34.5473 166.41 35.6489 166.41 37.1801H168.41ZM160.33 30.554H146.044V32.554H160.33V30.554ZM145.044 31.554V42.8062H147.044V31.554H145.044ZM189.792 70.9999H188.792V71.9999H189.792V70.9999ZM189.792 17.8996V16.8996H188.792V17.8996H189.792ZM239.921 17.8996H240.921V16.8996H239.921V17.8996ZM239.921 31.1747V32.1747H240.921V31.1747H239.921ZM206.48 31.1747V30.1747H205.48V31.1747H206.48ZM206.48 38.0019H205.48V39.0019H206.48V38.0019ZM234.231 38.0019H235.231V37.0019H234.231V38.0019ZM234.231 49.7598V50.7598H235.231V49.7598H234.231ZM206.48 49.7598V48.7598H205.48V49.7598H206.48ZM206.48 57.7248H205.48V58.7248H206.48V57.7248ZM239.921 57.7248H240.921V56.7248H239.921V57.7248ZM239.921 70.9999V71.9999H240.921V70.9999H239.921ZM190.792 70.9999V17.8996H188.792V70.9999H190.792ZM189.792 18.8996H239.921V16.8996H189.792V18.8996ZM238.921 17.8996V31.1747H240.921V17.8996H238.921ZM239.921 30.1747H206.48V32.1747H239.921V30.1747ZM205.48 31.1747V38.0019H207.48V31.1747H205.48ZM206.48 39.0019H234.231V37.0019H206.48V39.0019ZM233.231 38.0019V49.7598H235.231V38.0019H233.231ZM234.231 48.7598H206.48V50.7598H234.231V48.7598ZM205.48 49.7598V57.7248H207.48V49.7598H205.48ZM206.48 58.7248H239.921V56.7248H206.48V58.7248ZM238.921 57.7248V70.9999H240.921V57.7248H238.921ZM239.921 69.9999H189.792V71.9999H239.921V69.9999ZM246.092 70.9999H245.092V71.9999H246.092V70.9999ZM246.092 17.8996V16.8996H245.092V17.8996H246.092ZM291.164 48.6219L290.939 47.6475L288.269 48.2638L290.709 49.5122L291.164 48.6219ZM297.422 54.6273L298.31 54.1678L298.308 54.1633L297.422 54.6273ZM305.893 70.9999V71.9999H307.536L306.781 70.5404L305.893 70.9999ZM287.877 70.9999L286.987 71.4566L287.266 71.9999H287.877V70.9999ZM280.607 56.8398L281.497 56.3831L281.494 56.3779L280.607 56.8398ZM262.781 53.047V52.047H261.781V53.047H262.781ZM262.781 70.9999V71.9999H263.781V70.9999H262.781ZM262.781 42.0476H261.781V43.0476H262.781V42.0476ZM262.781 31.554V30.554H261.781V31.554H262.781ZM247.092 70.9999V17.8996H245.092V70.9999H247.092ZM246.092 18.8996H281.239V16.8996H246.092V18.8996ZM281.239 18.8996C287.432 18.8996 292.442 20.4869 295.881 23.1827C299.297 25.861 301.227 29.6795 301.227 34.3354H303.227C303.227 29.0667 301.016 24.6673 297.115 21.6088C293.236 18.5679 287.753 16.8996 281.239 16.8996V18.8996ZM301.227 34.3354C301.227 41.2101 297.053 46.2368 290.939 47.6475L291.389 49.5963C298.424 47.9728 303.227 42.1266 303.227 34.3354H301.227ZM290.709 49.5122C293.271 50.8234 295.256 52.646 296.536 55.0913L298.308 54.1633C296.808 51.2986 294.493 49.2019 291.62 47.7317L290.709 49.5122ZM296.534 55.0868L305.005 71.4594L306.781 70.5404L298.31 54.1678L296.534 55.0868ZM305.893 69.9999H287.877V71.9999H305.893V69.9999ZM288.767 70.5432L281.497 56.3831L279.718 57.2966L286.987 71.4566L288.767 70.5432ZM281.494 56.3779C280.64 54.7382 279.655 53.5733 278.006 52.8831C276.445 52.2293 274.382 52.047 271.504 52.047V54.047C274.379 54.047 276.078 54.2439 277.234 54.728C278.303 55.1756 278.994 55.9072 279.72 57.3018L281.494 56.3779ZM271.504 52.047H262.781V54.047H271.504V52.047ZM261.781 53.047V70.9999H263.781V53.047H261.781ZM262.781 69.9999H246.092V71.9999H262.781V69.9999ZM262.781 43.0476H278.458V41.0476H262.781V43.0476ZM278.458 43.0476C280.851 43.0476 282.865 42.5521 284.305 41.4727C285.787 40.3608 286.538 38.7201 286.538 36.7376H284.538C284.538 38.1687 284.024 39.183 283.105 39.8727C282.142 40.5949 280.616 41.0476 278.458 41.0476V43.0476ZM286.538 36.7376C286.538 34.7889 285.733 33.1861 284.245 32.1044C282.799 31.0521 280.795 30.554 278.458 30.554V32.554C280.546 32.554 282.082 33.0041 283.069 33.7218C284.016 34.4101 284.538 35.3991 284.538 36.7376H286.538ZM278.458 30.554H262.781V32.554H278.458V30.554ZM261.781 31.554V42.0476H263.781V31.554H261.781ZM311.591 70.9999H310.591V71.9999H311.591V70.9999ZM311.591 17.8996V16.8996H310.591V17.8996H311.591ZM328.279 17.8996H329.279V16.8996H328.279V17.8996ZM328.279 70.9999V71.9999H329.279V70.9999H328.279ZM312.591 70.9999V17.8996H310.591V70.9999H312.591ZM311.591 18.8996H328.279V16.8996H311.591V18.8996ZM327.279 17.8996V70.9999H329.279V17.8996H327.279ZM328.279 69.9999H311.591V71.9999H328.279V69.9999ZM335.852 70.9999H334.852V71.9999H335.852V70.9999ZM335.852 17.8996V16.8996H334.852V17.8996H335.852ZM385.981 17.8996H386.981V16.8996H385.981V17.8996ZM385.981 31.1747V32.1747H386.981V31.1747H385.981ZM352.54 31.1747V30.1747H351.54V31.1747H352.54ZM352.54 38.0019H351.54V39.0019H352.54V38.0019ZM380.292 38.0019H381.292V37.0019H380.292V38.0019ZM380.292 49.7598V50.7598H381.292V49.7598H380.292ZM352.54 49.7598V48.7598H351.54V49.7598H352.54ZM352.54 57.7248H351.54V58.7248H352.54V57.7248ZM385.981 57.7248H386.981V56.7248H385.981V57.7248ZM385.981 70.9999V71.9999H386.981V70.9999H385.981ZM336.852 70.9999V17.8996H334.852V70.9999H336.852ZM335.852 18.8996H385.981V16.8996H335.852V18.8996ZM384.981 17.8996V31.1747H386.981V17.8996H384.981ZM385.981 30.1747H352.54V32.1747H385.981V30.1747ZM351.54 31.1747V38.0019H353.54V31.1747H351.54ZM352.54 39.0019H380.292V37.0019H352.54V39.0019ZM379.292 38.0019V49.7598H381.292V38.0019H379.292ZM380.292 48.7598H352.54V50.7598H380.292V48.7598ZM351.54 49.7598V57.7248H353.54V49.7598H351.54ZM352.54 58.7248H385.981V56.7248H352.54V58.7248ZM384.981 57.7248V70.9999H386.981V57.7248H384.981ZM385.981 69.9999H335.852V71.9999H385.981V69.9999ZM392.152 70.9999H391.152V71.9999H392.152V70.9999ZM392.152 17.8996V16.8996H391.152V17.8996H392.152ZM413.076 17.8996L413.923 17.3671L413.629 16.8996H413.076V17.8996ZM433.558 50.4552L432.711 50.9877L434.558 53.9226V50.4552H433.558ZM433.558 17.8996V16.8996H432.558V17.8996H433.558ZM449.488 17.8996H450.488V16.8996H449.488V17.8996ZM449.488 70.9999V71.9999H450.488V70.9999H449.488ZM428.564 70.9999L427.716 71.5295L428.009 71.9999H428.564V70.9999ZM408.082 38.1915L408.931 37.662L407.082 34.7013V38.1915H408.082ZM408.082 70.9999V71.9999H409.082V70.9999H408.082ZM393.152 70.9999V17.8996H391.152V70.9999H393.152ZM392.152 18.8996H413.076V16.8996H392.152V18.8996ZM412.23 18.4322L432.711 50.9877L434.404 49.9226L413.923 17.3671L412.23 18.4322ZM434.558 50.4552V17.8996H432.558V50.4552H434.558ZM433.558 18.8996H449.488V16.8996H433.558V18.8996ZM448.488 17.8996V70.9999H450.488V17.8996H448.488ZM449.488 69.9999H428.564V71.9999H449.488V69.9999ZM429.412 70.4703L408.931 37.662L407.234 38.7211L427.716 71.5295L429.412 70.4703ZM407.082 38.1915V70.9999H409.082V38.1915H407.082ZM408.082 69.9999H392.152V71.9999H408.082V69.9999ZM497.995 50.2655V49.2655H497.121L497.004 50.1316L497.995 50.2655ZM514.684 50.2655H515.684V49.2655H514.684V50.2655ZM514.684 38.634V39.634H515.684V38.634H514.684ZM497.995 38.634L497.004 38.7679L497.121 39.634H497.995V38.634ZM486.553 59.1041C490.143 59.1041 493.068 58.2812 495.203 56.7521C497.357 55.2101 498.635 52.9998 498.986 50.3994L497.004 50.1316C496.724 52.2091 495.726 53.9182 494.039 55.126C492.334 56.3467 489.854 57.1041 486.553 57.1041V59.1041ZM497.995 51.2655H514.684V49.2655H497.995V51.2655ZM513.684 50.2655C513.684 56.519 511.008 61.5981 506.277 65.1424C501.519 68.7072 494.622 70.7585 486.174 70.7585V72.7585C494.92 72.7585 502.278 70.6376 507.477 66.743C512.702 62.8281 515.684 57.1606 515.684 50.2655H513.684ZM486.174 70.7585C476.939 70.7585 469.45 68.1411 464.283 63.5884C459.13 59.0473 456.199 52.5039 456.199 44.4498H454.199C454.199 53.0211 457.336 60.132 462.961 65.0889C468.573 70.0343 476.571 72.7585 486.174 72.7585V70.7585ZM456.199 44.4498C456.199 36.3957 459.13 29.8522 464.283 25.3111C469.45 20.7585 476.939 18.1411 486.174 18.1411V16.1411C476.571 16.1411 468.573 18.8653 462.961 23.8106C457.336 28.7675 454.199 35.8784 454.199 44.4498H456.199ZM486.174 18.1411C494.622 18.1411 501.519 20.1923 506.277 23.7571C511.008 27.3015 513.684 32.3805 513.684 38.634H515.684C515.684 31.7389 512.702 26.0715 507.477 22.1565C502.278 18.262 494.92 16.1411 486.174 16.1411V18.1411ZM514.684 37.634H497.995V39.634H514.684V37.634ZM498.986 38.5001C498.633 35.8823 497.293 33.671 495.052 32.1355C492.832 30.6145 489.787 29.7954 486.048 29.7954V31.7954C489.515 31.7954 492.128 32.5567 493.922 33.7855C495.694 34.9999 496.726 36.7078 497.004 38.7679L498.986 38.5001ZM486.048 29.7954C481.382 29.7954 477.579 31.079 474.939 33.6233C472.294 36.1728 470.951 39.8586 470.951 44.3866H472.951C472.951 40.2541 474.168 37.1444 476.327 35.0634C478.492 32.9772 481.737 31.7954 486.048 31.7954V29.7954ZM470.951 44.3866C470.951 48.8449 472.404 52.5566 475.152 55.1493C477.894 57.7354 481.813 59.1041 486.553 59.1041V57.1041C482.191 57.1041 478.809 55.8494 476.525 53.6945C474.247 51.546 472.951 48.399 472.951 44.3866H470.951ZM520.372 70.9999H519.372V71.9999H520.372V70.9999ZM520.372 17.8996V16.8996H519.372V17.8996H520.372ZM570.501 17.8996H571.501V16.8996H570.501V17.8996ZM570.501 31.1747V32.1747H571.501V31.1747H570.501ZM537.06 31.1747V30.1747H536.06V31.1747H537.06ZM537.06 38.0019H536.06V39.0019H537.06V38.0019ZM564.812 38.0019H565.812V37.0019H564.812V38.0019ZM564.812 49.7598V50.7598H565.812V49.7598H564.812ZM537.06 49.7598V48.7598H536.06V49.7598H537.06ZM537.06 57.7248H536.06V58.7248H537.06V57.7248ZM570.501 57.7248H571.501V56.7248H570.501V57.7248ZM570.501 70.9999V71.9999H571.501V70.9999H570.501ZM521.372 70.9999V17.8996H519.372V70.9999H521.372ZM520.372 18.8996H570.501V16.8996H520.372V18.8996ZM569.501 17.8996V31.1747H571.501V17.8996H569.501ZM570.501 30.1747H537.06V32.1747H570.501V30.1747ZM536.06 31.1747V38.0019H538.06V31.1747H536.06ZM537.06 39.0019H564.812V37.0019H537.06V39.0019ZM563.812 38.0019V49.7598H565.812V38.0019H563.812ZM564.812 48.7598H537.06V50.7598H564.812V48.7598ZM536.06 49.7598V57.7248H538.06V49.7598H536.06ZM537.06 58.7248H570.501V56.7248H537.06V58.7248ZM569.501 57.7248V70.9999H571.501V57.7248H569.501ZM570.501 69.9999H520.372V71.9999H570.501V69.9999Z" fill="black" fill-opacity="0.3"/>
</g>
<path d="M3.91309 62.9999V9.89968H54.0423V23.1747H20.6018V30.0019H48.353V41.7598H20.6018V49.7248H54.0423V62.9999H3.91309ZM104.211 62.9999L90.0509 47.2595L76.9023 62.9999H56.4207L80.1262 36.2601L56.4207 9.89968H77.7873L91.9473 25.6401L105.096 9.89968H125.578L101.872 36.6394L125.578 62.9999H104.211ZM129.355 62.9999V9.89968H165.261C176.892 9.89968 184.099 16.79 184.099 28.1054C184.099 39.7369 176.513 47.702 165.261 47.702H146.044V62.9999H129.355ZM146.044 34.8062H160.33C164.882 34.8062 167.41 32.7201 167.41 29.1801C167.41 25.5769 164.755 23.554 160.33 23.554H146.044V34.8062ZM189.792 62.9999V9.89968H239.921V23.1747H206.48V30.0019H234.231V41.7598H206.48V49.7248H239.921V62.9999H189.792ZM246.092 62.9999V9.89968H281.239C293.945 9.89968 302.227 16.4107 302.227 26.3354C302.227 33.6683 297.738 39.1048 291.164 40.6219C293.882 42.0127 296.032 43.9723 297.422 46.6273L305.893 62.9999H287.877L280.607 48.8398C279.027 45.8055 277.257 45.047 271.504 45.047H262.781V62.9999H246.092ZM262.781 34.0476H278.458C283.009 34.0476 285.538 32.1512 285.538 28.7376C285.538 25.4504 282.883 23.554 278.458 23.554H262.781V34.0476ZM311.591 62.9999V9.89968H328.279V62.9999H311.591ZM335.852 62.9999V9.89968H385.981V23.1747H352.54V30.0019H380.292V41.7598H352.54V49.7248H385.981V62.9999H335.852ZM392.152 62.9999V9.89968H413.076L433.558 42.4552V9.89968H449.488V62.9999H428.564L408.082 30.1915V62.9999H392.152ZM486.553 50.1041C493.444 50.1041 497.363 46.9434 497.995 42.2655H514.684C514.684 55.4141 503.369 63.7585 486.174 63.7585C467.336 63.7585 455.199 53.0752 455.199 36.4498C455.199 19.8243 467.336 9.14111 486.174 9.14111C503.369 9.14111 514.684 17.4854 514.684 30.634H497.995C497.363 25.9561 493.254 22.7954 486.048 22.7954C477.071 22.7954 471.951 27.7262 471.951 36.3866C471.951 44.8573 477.451 50.1041 486.553 50.1041ZM520.372 62.9999V9.89968H570.501V23.1747H537.06V30.0019H564.812V41.7598H537.06V49.7248H570.501V62.9999H520.372Z" fill="black"/>
</svg>
