<svg width="518" height="95" viewBox="0 0 518 95" fill="none" xmlns="http://www.w3.org/2000/svg">
<mask id="path-1-outside-1_214_310" maskUnits="userSpaceOnUse" x="2" y="18" width="515" height="57" fill="black">
<rect fill="white" x="2" y="18" width="515" height="57"/>
<path d="M3.97729 73V19.8997H39.8832C51.5147 19.8997 58.7211 26.7901 58.7211 38.1055C58.7211 49.737 51.1354 57.7021 39.8832 57.7021H20.6659V73H3.97729ZM20.6659 44.8063H34.9524C39.5039 44.8063 42.0325 42.7202 42.0325 39.1802C42.0325 35.577 39.3775 33.5541 34.9524 33.5541H20.6659V44.8063ZM62.5175 46.4499C62.5175 29.8244 73.7064 19.1412 94.504 19.1412C115.238 19.1412 126.491 29.8244 126.491 46.4499C126.491 63.0753 115.238 73.7586 94.504 73.7586C73.7064 73.7586 62.5175 63.0753 62.5175 46.4499ZM79.2693 46.4499C79.2693 54.6678 83.884 59.7249 94.504 59.7249C105.061 59.7249 109.676 54.6678 109.676 46.4499C109.676 38.232 105.061 33.1748 94.504 33.1748C83.884 33.1748 79.2693 38.232 79.2693 46.4499ZM132.197 73V19.8997H167.344C180.05 19.8997 188.331 26.4108 188.331 36.3355C188.331 43.6684 183.843 49.1049 177.269 50.622C179.987 52.0128 182.136 53.9724 183.527 56.6274L191.998 73H173.982L166.712 58.8399C165.132 55.8056 163.362 55.0471 157.609 55.0471H148.885V73H132.197ZM148.885 44.0477H164.563C169.114 44.0477 171.643 42.1513 171.643 38.7377C171.643 35.4505 168.988 33.5541 164.563 33.5541H148.885V44.0477ZM214.255 73V33.5541H192.004V19.8997H253.132V33.5541H230.944V73H214.255ZM257.576 73V19.8997H307.326V33.1748H274.265V41.5191H301.763V53.277H274.265V73H257.576ZM310.375 46.4499C310.375 29.8244 321.564 19.1412 342.362 19.1412C363.096 19.1412 374.349 29.8244 374.349 46.4499C374.349 63.0753 363.096 73.7586 342.362 73.7586C321.564 73.7586 310.375 63.0753 310.375 46.4499ZM327.127 46.4499C327.127 54.6678 331.742 59.7249 342.362 59.7249C352.919 59.7249 357.534 54.6678 357.534 46.4499C357.534 38.232 352.919 33.1748 342.362 33.1748C331.742 33.1748 327.127 38.232 327.127 46.4499ZM380.055 73V19.8997H396.743V59.3456H424.495V73H380.055ZM429.565 73V19.8997H446.253V73H429.565ZM451.929 46.4499C451.929 29.8244 463.118 19.1412 483.916 19.1412C504.65 19.1412 515.902 29.8244 515.902 46.4499C515.902 63.0753 504.65 73.7586 483.916 73.7586C463.118 73.7586 451.929 63.0753 451.929 46.4499ZM468.681 46.4499C468.681 54.6678 473.296 59.7249 483.916 59.7249C494.473 59.7249 499.087 54.6678 499.087 46.4499C499.087 38.232 494.473 33.1748 483.916 33.1748C473.296 33.1748 468.681 38.232 468.681 46.4499Z"/>
</mask>
<path d="M3.97729 73H2.97729V74H3.97729V73ZM3.97729 19.8997V18.8997H2.97729V19.8997H3.97729ZM20.6659 57.7021V56.7021H19.6659V57.7021H20.6659ZM20.6659 73V74H21.6659V73H20.6659ZM20.6659 44.8063H19.6659V45.8063H20.6659V44.8063ZM20.6659 33.5541V32.5541H19.6659V33.5541H20.6659ZM4.97729 73V19.8997H2.97729V73H4.97729ZM3.97729 20.8997H39.8832V18.8997H3.97729V20.8997ZM39.8832 20.8997C45.5027 20.8997 49.9416 22.5612 52.9701 25.4795C55.9941 28.3933 57.7211 32.6651 57.7211 38.1055H59.7211C59.7211 32.2306 57.845 27.3994 54.3578 24.0393C50.8752 20.6835 45.8951 18.8997 39.8832 18.8997V20.8997ZM57.7211 38.1055C57.7211 43.7016 55.8996 48.3404 52.7999 51.5736C49.7038 54.803 45.2643 56.7021 39.8832 56.7021V58.7021C45.7543 58.7021 50.7338 56.6186 54.2436 52.9577C57.7498 49.3004 59.7211 44.141 59.7211 38.1055H57.7211ZM39.8832 56.7021H20.6659V58.7021H39.8832V56.7021ZM19.6659 57.7021V73H21.6659V57.7021H19.6659ZM20.6659 72H3.97729V74H20.6659V72ZM20.6659 45.8063H34.9524V43.8063H20.6659V45.8063ZM34.9524 45.8063C37.3645 45.8063 39.3865 45.2553 40.8252 44.1006C42.2952 42.9208 43.0325 41.2092 43.0325 39.1802H41.0325C41.0325 40.6912 40.5055 41.7927 39.5733 42.5409C38.6098 43.3142 37.0918 43.8063 34.9524 43.8063V45.8063ZM43.0325 39.1802C43.0325 37.1081 42.2551 35.3967 40.7697 34.2296C39.3178 33.0889 37.3007 32.5541 34.9524 32.5541V34.5541C37.0293 34.5541 38.5521 35.0307 39.534 35.8023C40.4824 36.5474 41.0325 37.649 41.0325 39.1802H43.0325ZM34.9524 32.5541H20.6659V34.5541H34.9524V32.5541ZM19.6659 33.5541V44.8063H21.6659V33.5541H19.6659ZM63.5175 46.4499C63.5175 38.3725 66.2273 31.839 71.3723 27.3117C76.5335 22.7701 84.2669 20.1412 94.504 20.1412V18.1412C83.9436 18.1412 75.6837 20.8539 70.051 25.8102C64.4021 30.781 61.5175 37.9018 61.5175 46.4499H63.5175ZM94.504 20.1412C104.709 20.1412 112.443 22.7698 117.613 27.3122C122.766 31.8403 125.491 38.3742 125.491 46.4499H127.491C127.491 37.9002 124.589 30.7797 118.933 25.8098C113.293 20.8542 105.034 18.1412 94.504 18.1412V20.1412ZM125.491 46.4499C125.491 54.5256 122.766 61.0595 117.613 65.5875C112.443 70.13 104.709 72.7586 94.504 72.7586V74.7586C105.034 74.7586 113.293 72.0455 118.933 67.09C124.589 62.1201 127.491 54.9996 127.491 46.4499H125.491ZM94.504 72.7586C84.2669 72.7586 76.5335 70.1296 71.3723 65.588C66.2273 61.0608 63.5175 54.5273 63.5175 46.4499H61.5175C61.5175 54.9979 64.4021 62.1188 70.051 67.0895C75.6837 72.0459 83.9436 74.7586 94.504 74.7586V72.7586ZM78.2693 46.4499C78.2693 50.7436 79.4793 54.3673 82.2257 56.9037C84.9583 59.4275 89.0511 60.7249 94.504 60.7249V58.7249C89.337 58.7249 85.8124 57.4938 83.5826 55.4345C81.3667 53.3879 80.2693 50.374 80.2693 46.4499H78.2693ZM94.504 60.7249C99.9268 60.7249 104.004 59.4268 106.728 56.9027C109.466 54.3664 110.676 50.7435 110.676 46.4499H108.676C108.676 50.3741 107.578 53.3888 105.369 55.4356C103.147 57.4945 99.6381 58.7249 94.504 58.7249V60.7249ZM110.676 46.4499C110.676 42.1562 109.466 38.5333 106.728 35.9971C104.004 33.473 99.9268 32.1748 94.504 32.1748V34.1748C99.6381 34.1748 103.147 35.4052 105.369 37.4642C107.578 39.511 108.676 42.5256 108.676 46.4499H110.676ZM94.504 32.1748C89.0511 32.1748 84.9583 33.4723 82.2257 35.996C79.4793 38.5325 78.2693 42.1561 78.2693 46.4499H80.2693C80.2693 42.5257 81.3667 39.5118 83.5826 37.4653C85.8124 35.4059 89.337 34.1748 94.504 34.1748V32.1748ZM132.197 73H131.197V74H132.197V73ZM132.197 19.8997V18.8997H131.197V19.8997H132.197ZM177.269 50.622L177.044 49.6476L174.373 50.2639L176.813 51.5123L177.269 50.622ZM183.527 56.6274L184.415 56.1679L184.413 56.1634L183.527 56.6274ZM191.998 73V74H193.641L192.886 72.5405L191.998 73ZM173.982 73L173.092 73.4567L173.371 74H173.982V73ZM166.712 58.8399L167.602 58.3832L167.599 58.378L166.712 58.8399ZM148.885 55.0471V54.0471H147.885V55.0471H148.885ZM148.885 73V74H149.885V73H148.885ZM148.885 44.0477H147.885V45.0477H148.885V44.0477ZM148.885 33.5541V32.5541H147.885V33.5541H148.885ZM133.197 73V19.8997H131.197V73H133.197ZM132.197 20.8997H167.344V18.8997H132.197V20.8997ZM167.344 20.8997C173.537 20.8997 178.547 22.487 181.985 25.1828C185.402 27.8611 187.331 31.6796 187.331 36.3355H189.331C189.331 31.0668 187.12 26.6674 183.219 23.6089C179.341 20.568 173.858 18.8997 167.344 18.8997V20.8997ZM187.331 36.3355C187.331 43.2102 183.157 48.2369 177.044 49.6476L177.494 51.5964C184.529 49.9729 189.331 44.1267 189.331 36.3355H187.331ZM176.813 51.5123C179.376 52.8235 181.36 54.6461 182.641 57.0914L184.413 56.1634C182.912 53.2987 180.598 51.202 177.724 49.7318L176.813 51.5123ZM182.639 57.0869L191.11 73.4595L192.886 72.5405L184.415 56.1679L182.639 57.0869ZM191.998 72H173.982V74H191.998V72ZM174.871 72.5433L167.602 58.3832L165.822 59.2966L173.092 73.4567L174.871 72.5433ZM167.599 58.378C166.745 56.7383 165.76 55.5734 164.111 54.8832C162.549 54.2294 160.487 54.0471 157.609 54.0471V56.0471C160.483 56.0471 162.182 56.244 163.339 56.7281C164.408 57.1757 165.099 57.9073 165.825 59.3019L167.599 58.378ZM157.609 54.0471H148.885V56.0471H157.609V54.0471ZM147.885 55.0471V73H149.885V55.0471H147.885ZM148.885 72H132.197V74H148.885V72ZM148.885 45.0477H164.563V43.0477H148.885V45.0477ZM164.563 45.0477C166.956 45.0477 168.97 44.5522 170.409 43.4728C171.892 42.3609 172.643 40.7202 172.643 38.7377H170.643C170.643 40.1688 170.129 41.1831 169.209 41.8728C168.247 42.595 166.721 43.0477 164.563 43.0477V45.0477ZM172.643 38.7377C172.643 36.789 171.838 35.1862 170.35 34.1045C168.903 33.0522 166.899 32.5541 164.563 32.5541V34.5541C166.651 34.5541 168.187 35.0042 169.174 35.7219C170.12 36.4102 170.643 37.3992 170.643 38.7377H172.643ZM164.563 32.5541H148.885V34.5541H164.563V32.5541ZM147.885 33.5541V44.0477H149.885V33.5541H147.885ZM214.255 73H213.255V74H214.255V73ZM214.255 33.5541H215.255V32.5541H214.255V33.5541ZM192.004 33.5541H191.004V34.5541H192.004V33.5541ZM192.004 19.8997V18.8997H191.004V19.8997H192.004ZM253.132 19.8997H254.132V18.8997H253.132V19.8997ZM253.132 33.5541V34.5541H254.132V33.5541H253.132ZM230.944 33.5541V32.5541H229.944V33.5541H230.944ZM230.944 73V74H231.944V73H230.944ZM215.255 73V33.5541H213.255V73H215.255ZM214.255 32.5541H192.004V34.5541H214.255V32.5541ZM193.004 33.5541V19.8997H191.004V33.5541H193.004ZM192.004 20.8997H253.132V18.8997H192.004V20.8997ZM252.132 19.8997V33.5541H254.132V19.8997H252.132ZM253.132 32.5541H230.944V34.5541H253.132V32.5541ZM229.944 33.5541V73H231.944V33.5541H229.944ZM230.944 72H214.255V74H230.944V72ZM257.576 73H256.576V74H257.576V73ZM257.576 19.8997V18.8997H256.576V19.8997H257.576ZM307.326 19.8997H308.326V18.8997H307.326V19.8997ZM307.326 33.1748V34.1748H308.326V33.1748H307.326ZM274.265 33.1748V32.1748H273.265V33.1748H274.265ZM274.265 41.5191H273.265V42.5191H274.265V41.5191ZM301.763 41.5191H302.763V40.5191H301.763V41.5191ZM301.763 53.277V54.277H302.763V53.277H301.763ZM274.265 53.277V52.277H273.265V53.277H274.265ZM274.265 73V74H275.265V73H274.265ZM258.576 73V19.8997H256.576V73H258.576ZM257.576 20.8997H307.326V18.8997H257.576V20.8997ZM306.326 19.8997V33.1748H308.326V19.8997H306.326ZM307.326 32.1748H274.265V34.1748H307.326V32.1748ZM273.265 33.1748V41.5191H275.265V33.1748H273.265ZM274.265 42.5191H301.763V40.5191H274.265V42.5191ZM300.763 41.5191V53.277H302.763V41.5191H300.763ZM301.763 52.277H274.265V54.277H301.763V52.277ZM273.265 53.277V73H275.265V53.277H273.265ZM274.265 72H257.576V74H274.265V72ZM311.375 46.4499C311.375 38.3725 314.085 31.839 319.23 27.3117C324.392 22.7701 332.125 20.1412 342.362 20.1412V18.1412C331.802 18.1412 323.542 20.8539 317.909 25.8102C312.26 30.781 309.375 37.9018 309.375 46.4499H311.375ZM342.362 20.1412C352.567 20.1412 360.301 22.7698 365.471 27.3122C370.624 31.8403 373.349 38.3742 373.349 46.4499H375.349C375.349 37.9002 372.447 30.7797 366.791 25.8098C361.151 20.8542 352.892 18.1412 342.362 18.1412V20.1412ZM373.349 46.4499C373.349 54.5256 370.624 61.0595 365.471 65.5875C360.301 70.13 352.567 72.7586 342.362 72.7586V74.7586C352.892 74.7586 361.151 72.0455 366.791 67.09C372.447 62.1201 375.349 54.9996 375.349 46.4499H373.349ZM342.362 72.7586C332.125 72.7586 324.392 70.1296 319.23 65.588C314.085 61.0608 311.375 54.5273 311.375 46.4499H309.375C309.375 54.9979 312.26 62.1188 317.909 67.0895C323.542 72.0459 331.802 74.7586 342.362 74.7586V72.7586ZM326.127 46.4499C326.127 50.7436 327.337 54.3673 330.084 56.9037C332.816 59.4275 336.909 60.7249 342.362 60.7249V58.7249C337.195 58.7249 333.67 57.4938 331.441 55.4345C329.225 53.3879 328.127 50.374 328.127 46.4499H326.127ZM342.362 60.7249C347.785 60.7249 351.862 59.4268 354.586 56.9027C357.324 54.3664 358.534 50.7435 358.534 46.4499H356.534C356.534 50.3741 355.436 53.3888 353.227 55.4356C351.005 57.4945 347.496 58.7249 342.362 58.7249V60.7249ZM358.534 46.4499C358.534 42.1562 357.324 38.5333 354.586 35.9971C351.862 33.473 347.785 32.1748 342.362 32.1748V34.1748C347.496 34.1748 351.005 35.4052 353.227 37.4642C355.436 39.511 356.534 42.5256 356.534 46.4499H358.534ZM342.362 32.1748C336.909 32.1748 332.816 33.4723 330.084 35.996C327.337 38.5325 326.127 42.1561 326.127 46.4499H328.127C328.127 42.5257 329.225 39.5118 331.441 37.4653C333.67 35.4059 337.195 34.1748 342.362 34.1748V32.1748ZM380.055 73H379.055V74H380.055V73ZM380.055 19.8997V18.8997H379.055V19.8997H380.055ZM396.743 19.8997H397.743V18.8997H396.743V19.8997ZM396.743 59.3456H395.743V60.3456H396.743V59.3456ZM424.495 59.3456H425.495V58.3456H424.495V59.3456ZM424.495 73V74H425.495V73H424.495ZM381.055 73V19.8997H379.055V73H381.055ZM380.055 20.8997H396.743V18.8997H380.055V20.8997ZM395.743 19.8997V59.3456H397.743V19.8997H395.743ZM396.743 60.3456H424.495V58.3456H396.743V60.3456ZM423.495 59.3456V73H425.495V59.3456H423.495ZM424.495 72H380.055V74H424.495V72ZM429.565 73H428.565V74H429.565V73ZM429.565 19.8997V18.8997H428.565V19.8997H429.565ZM446.253 19.8997H447.253V18.8997H446.253V19.8997ZM446.253 73V74H447.253V73H446.253ZM430.565 73V19.8997H428.565V73H430.565ZM429.565 20.8997H446.253V18.8997H429.565V20.8997ZM445.253 19.8997V73H447.253V19.8997H445.253ZM446.253 72H429.565V74H446.253V72ZM452.929 46.4499C452.929 38.3725 455.639 31.839 460.784 27.3117C465.945 22.7701 473.679 20.1412 483.916 20.1412V18.1412C473.355 18.1412 465.095 20.8539 459.463 25.8102C453.814 30.781 450.929 37.9018 450.929 46.4499H452.929ZM483.916 20.1412C494.121 20.1412 501.855 22.7698 507.024 27.3122C512.178 31.8403 514.902 38.3742 514.902 46.4499H516.902C516.902 37.9002 514.001 30.7797 508.345 25.8098C502.705 20.8542 494.445 18.1412 483.916 18.1412V20.1412ZM514.902 46.4499C514.902 54.5256 512.178 61.0595 507.024 65.5875C501.855 70.13 494.121 72.7586 483.916 72.7586V74.7586C494.445 74.7586 502.705 72.0455 508.345 67.09C514.001 62.1201 516.902 54.9996 516.902 46.4499H514.902ZM483.916 72.7586C473.679 72.7586 465.945 70.1296 460.784 65.588C455.639 61.0608 452.929 54.5273 452.929 46.4499H450.929C450.929 54.9979 453.814 62.1188 459.463 67.0895C465.095 72.0459 473.355 74.7586 483.916 74.7586V72.7586ZM467.681 46.4499C467.681 50.7436 468.891 54.3673 471.637 56.9037C474.37 59.4275 478.463 60.7249 483.916 60.7249V58.7249C478.749 58.7249 475.224 57.4938 472.994 55.4345C470.778 53.3879 469.681 50.374 469.681 46.4499H467.681ZM483.916 60.7249C489.339 60.7249 493.416 59.4268 496.14 56.9027C498.877 54.3664 500.087 50.7435 500.087 46.4499H498.087C498.087 50.3741 496.99 53.3888 494.781 55.4356C492.559 57.4945 489.05 58.7249 483.916 58.7249V60.7249ZM500.087 46.4499C500.087 42.1562 498.877 38.5333 496.14 35.9971C493.416 33.473 489.339 32.1748 483.916 32.1748V34.1748C489.05 34.1748 492.559 35.4052 494.781 37.4642C496.99 39.511 498.087 42.5256 498.087 46.4499H500.087ZM483.916 32.1748C478.463 32.1748 474.37 33.4723 471.637 35.996C468.891 38.5325 467.681 42.1561 467.681 46.4499H469.681C469.681 42.5257 470.778 39.5118 472.994 37.4653C475.224 35.4059 478.749 34.1748 483.916 34.1748V32.1748Z" fill="white" fill-opacity="0.3" mask="url(#path-1-outside-1_214_310)"/>
<path d="M3.97729 63V9.89974H39.8832C51.5147 9.89974 58.7211 16.7901 58.7211 28.1055C58.7211 39.737 51.1354 47.7021 39.8832 47.7021H20.6659V63H3.97729ZM20.6659 34.8063H34.9524C39.5039 34.8063 42.0325 32.7202 42.0325 29.1802C42.0325 25.577 39.3775 23.5541 34.9524 23.5541H20.6659V34.8063ZM62.5175 36.4499C62.5175 19.8244 73.7064 9.14117 94.504 9.14117C115.238 9.14117 126.491 19.8244 126.491 36.4499C126.491 53.0753 115.238 63.7586 94.504 63.7586C73.7064 63.7586 62.5175 53.0753 62.5175 36.4499ZM79.2693 36.4499C79.2693 44.6678 83.884 49.7249 94.504 49.7249C105.061 49.7249 109.676 44.6678 109.676 36.4499C109.676 28.232 105.061 23.1748 94.504 23.1748C83.884 23.1748 79.2693 28.232 79.2693 36.4499ZM132.197 63V9.89974H167.344C180.05 9.89974 188.331 16.4108 188.331 26.3355C188.331 33.6684 183.843 39.1049 177.269 40.622C179.987 42.0128 182.136 43.9724 183.527 46.6274L191.998 63H173.982L166.712 48.8399C165.132 45.8056 163.362 45.0471 157.609 45.0471H148.885V63H132.197ZM148.885 34.0477H164.563C169.114 34.0477 171.643 32.1513 171.643 28.7377C171.643 25.4505 168.988 23.5541 164.563 23.5541H148.885V34.0477ZM214.255 63V23.5541H192.004V9.89974H253.132V23.5541H230.944V63H214.255ZM257.576 63V9.89974H307.326V23.1748H274.265V31.5191H301.763V43.277H274.265V63H257.576ZM310.375 36.4499C310.375 19.8244 321.564 9.14117 342.362 9.14117C363.096 9.14117 374.349 19.8244 374.349 36.4499C374.349 53.0753 363.096 63.7586 342.362 63.7586C321.564 63.7586 310.375 53.0753 310.375 36.4499ZM327.127 36.4499C327.127 44.6678 331.742 49.7249 342.362 49.7249C352.919 49.7249 357.534 44.6678 357.534 36.4499C357.534 28.232 352.919 23.1748 342.362 23.1748C331.742 23.1748 327.127 28.232 327.127 36.4499ZM380.055 63V9.89974H396.743V49.3456H424.495V63H380.055ZM429.565 63V9.89974H446.253V63H429.565ZM451.929 36.4499C451.929 19.8244 463.118 9.14117 483.916 9.14117C504.65 9.14117 515.902 19.8244 515.902 36.4499C515.902 53.0753 504.65 63.7586 483.916 63.7586C463.118 63.7586 451.929 53.0753 451.929 36.4499ZM468.681 36.4499C468.681 44.6678 473.296 49.7249 483.916 49.7249C494.473 49.7249 499.087 44.6678 499.087 36.4499C499.087 28.232 494.473 23.1748 483.916 23.1748C473.296 23.1748 468.681 28.232 468.681 36.4499Z" fill="white"/>
</svg>
