<svg width="518" height="95" viewBox="0 0 518 95" fill="none" xmlns="http://www.w3.org/2000/svg">
<mask id="mask0_248_626" style="mask-type:luminance" maskUnits="userSpaceOnUse" x="2" y="18" width="515" height="57">
<path d="M517 18H2V75H517V18Z" fill="white"/>
<path d="M3.97754 72.9999V19.8996H39.8834C51.5149 19.8996 58.7213 26.79 58.7213 38.1054C58.7213 49.7369 51.1356 57.702 39.8834 57.702H20.6661V72.9999H3.97754ZM20.6661 44.8062H34.9527C39.5041 44.8062 42.0327 42.7201 42.0327 39.1801C42.0327 35.5769 39.3777 33.554 34.9527 33.554H20.6661V44.8062ZM62.5177 46.4498C62.5177 29.8243 73.7066 19.1411 94.5042 19.1411C115.238 19.1411 126.491 29.8243 126.491 46.4498C126.491 63.0752 115.238 73.7585 94.5042 73.7585C73.7066 73.7585 62.5177 63.0752 62.5177 46.4498ZM79.2696 46.4498C79.2696 54.6677 83.8842 59.7248 94.5042 59.7248C105.061 59.7248 109.676 54.6677 109.676 46.4498C109.676 38.2319 105.061 33.1747 94.5042 33.1747C83.8842 33.1747 79.2696 38.2319 79.2696 46.4498ZM132.197 72.9999V19.8996H167.344C180.05 19.8996 188.331 26.4107 188.331 36.3354C188.331 43.6683 183.843 49.1048 177.269 50.6219C179.987 52.0127 182.136 53.9723 183.527 56.6273L191.998 72.9999H173.982L166.712 58.8398C165.132 55.8055 163.362 55.047 157.609 55.047H148.885V72.9999H132.197ZM148.885 44.0476H164.563C169.114 44.0476 171.643 42.1512 171.643 38.7376C171.643 35.4504 168.988 33.554 164.563 33.554H148.885V44.0476ZM214.255 72.9999V33.554H192.004V19.8996H253.132V33.554H230.944V72.9999H214.255ZM257.576 72.9999V19.8996H307.326V33.1747H274.265V41.519H301.763V53.2769H274.265V72.9999H257.576ZM310.375 46.4498C310.375 29.8243 321.564 19.1411 342.362 19.1411C363.096 19.1411 374.349 29.8243 374.349 46.4498C374.349 63.0752 363.096 73.7585 342.362 73.7585C321.564 73.7585 310.375 63.0752 310.375 46.4498ZM327.127 46.4498C327.127 54.6677 331.742 59.7248 342.362 59.7248C352.919 59.7248 357.534 54.6677 357.534 46.4498C357.534 38.2319 352.919 33.1747 342.362 33.1747C331.742 33.1747 327.127 38.2319 327.127 46.4498ZM380.055 72.9999V19.8996H396.743V59.3455H424.495V72.9999H380.055ZM429.565 72.9999V19.8996H446.253V72.9999H429.565ZM451.929 46.4498C451.929 29.8243 463.118 19.1411 483.916 19.1411C504.65 19.1411 515.902 29.8243 515.902 46.4498C515.902 63.0752 504.65 73.7585 483.916 73.7585C463.118 73.7585 451.929 63.0752 451.929 46.4498ZM468.681 46.4498C468.681 54.6677 473.296 59.7248 483.916 59.7248C494.473 59.7248 499.087 54.6677 499.087 46.4498C499.087 38.2319 494.473 33.1747 483.916 33.1747C473.296 33.1747 468.681 38.2319 468.681 46.4498Z" fill="black"/>
</mask>
<g mask="url(#mask0_248_626)">
<path d="M3.97754 72.9999H2.97754V73.9999H3.97754V72.9999ZM3.97754 19.8996V18.8996H2.97754V19.8996H3.97754ZM20.6661 57.702V56.702H19.6661V57.702H20.6661ZM20.6661 72.9999V73.9999H21.6661V72.9999H20.6661ZM20.6661 44.8062H19.6661V45.8062H20.6661V44.8062ZM20.6661 33.554V32.554H19.6661V33.554H20.6661ZM4.97754 72.9999V19.8996H2.97754V72.9999H4.97754ZM3.97754 20.8996H39.8834V18.8996H3.97754V20.8996ZM39.8834 20.8996C45.5029 20.8996 49.9418 22.5611 52.9703 25.4794C55.9943 28.3932 57.7213 32.665 57.7213 38.1054H59.7213C59.7213 32.2305 57.8452 27.3993 54.358 24.0392C50.8754 20.6834 45.8953 18.8996 39.8834 18.8996V20.8996ZM57.7213 38.1054C57.7213 43.7015 55.8998 48.3403 52.8001 51.5735C49.704 54.8029 45.2645 56.702 39.8834 56.702V58.702C45.7545 58.702 50.734 56.6185 54.2438 52.9576C57.75 49.3003 59.7213 44.1409 59.7213 38.1054H57.7213ZM39.8834 56.702H20.6661V58.702H39.8834V56.702ZM19.6661 57.702V72.9999H21.6661V57.702H19.6661ZM20.6661 71.9999H3.97754V73.9999H20.6661V71.9999ZM20.6661 45.8062H34.9527V43.8062H20.6661V45.8062ZM34.9527 45.8062C37.3648 45.8062 39.3867 45.2552 40.8254 44.1005C42.2954 42.9207 43.0327 41.2091 43.0327 39.1801H41.0327C41.0327 40.6911 40.5057 41.7926 39.5735 42.5408C38.61 43.3141 37.0921 43.8062 34.9527 43.8062V45.8062ZM43.0327 39.1801C43.0327 37.108 42.2553 35.3966 40.7699 34.2295C39.318 33.0888 37.301 32.554 34.9527 32.554V34.554C37.0296 34.554 38.5523 35.0306 39.5342 35.8022C40.4826 36.5473 41.0327 37.6489 41.0327 39.1801H43.0327ZM34.9527 32.554H20.6661V34.554H34.9527V32.554ZM19.6661 33.554V44.8062H21.6661V33.554H19.6661ZM63.5177 46.4498C63.5177 38.3724 66.2276 31.8389 71.3726 27.3116C76.5338 22.77 84.2671 20.1411 94.5042 20.1411V18.1411C83.9438 18.1411 75.684 20.8538 70.0513 25.8101C64.4024 30.7809 61.5177 37.9017 61.5177 46.4498H63.5177ZM94.5042 20.1411C104.709 20.1411 112.443 22.7697 117.613 27.3121C122.766 31.8402 125.491 38.3741 125.491 46.4498H127.491C127.491 37.9001 124.589 30.7796 118.933 25.8097C113.293 20.8541 105.034 18.1411 94.5042 18.1411V20.1411ZM125.491 46.4498C125.491 54.5255 122.766 61.0594 117.613 65.5874C112.443 70.1299 104.709 72.7585 94.5042 72.7585V74.7585C105.034 74.7585 113.293 72.0454 118.933 67.0899C124.589 62.12 127.491 54.9995 127.491 46.4498H125.491ZM94.5042 72.7585C84.2671 72.7585 76.5338 70.1295 71.3726 65.5879C66.2276 61.0607 63.5177 54.5272 63.5177 46.4498H61.5177C61.5177 54.9978 64.4024 62.1187 70.0513 67.0894C75.684 72.0458 83.9438 74.7585 94.5042 74.7585V72.7585ZM78.2696 46.4498C78.2696 50.7435 79.4796 54.3672 82.226 56.9036C84.9586 59.4274 89.0513 60.7248 94.5042 60.7248V58.7248C89.3372 58.7248 85.8127 57.4937 83.5829 55.4344C81.367 53.3878 80.2696 50.3739 80.2696 46.4498H78.2696ZM94.5042 60.7248C99.927 60.7248 104.004 59.4267 106.728 56.9026C109.466 54.3663 110.676 50.7434 110.676 46.4498H108.676C108.676 50.374 107.578 53.3887 105.369 55.4355C103.147 57.4944 99.6383 58.7248 94.5042 58.7248V60.7248ZM110.676 46.4498C110.676 42.1561 109.466 38.5332 106.728 35.997C104.004 33.4729 99.927 32.1747 94.5042 32.1747V34.1747C99.6383 34.1747 103.147 35.4051 105.369 37.4641C107.578 39.5109 108.676 42.5255 108.676 46.4498H110.676ZM94.5042 32.1747C89.0513 32.1747 84.9586 33.4722 82.226 35.9959C79.4796 38.5324 78.2696 42.156 78.2696 46.4498H80.2696C80.2696 42.5256 81.367 39.5117 83.5829 37.4652C85.8127 35.4058 89.3372 34.1747 94.5042 34.1747V32.1747ZM132.197 72.9999H131.197V73.9999H132.197V72.9999ZM132.197 19.8996V18.8996H131.197V19.8996H132.197ZM177.269 50.6219L177.044 49.6475L174.373 50.2638L176.813 51.5122L177.269 50.6219ZM183.527 56.6273L184.415 56.1678L184.413 56.1633L183.527 56.6273ZM191.998 72.9999V73.9999H193.641L192.886 72.5404L191.998 72.9999ZM173.982 72.9999L173.092 73.4566L173.371 73.9999H173.982V72.9999ZM166.712 58.8398L167.602 58.3831L167.599 58.3779L166.712 58.8398ZM148.885 55.047V54.047H147.885V55.047H148.885ZM148.885 72.9999V73.9999H149.885V72.9999H148.885ZM148.885 44.0476H147.885V45.0476H148.885V44.0476ZM148.885 33.554V32.554H147.885V33.554H148.885ZM133.197 72.9999V19.8996H131.197V72.9999H133.197ZM132.197 20.8996H167.344V18.8996H132.197V20.8996ZM167.344 20.8996C173.537 20.8996 178.547 22.4869 181.985 25.1827C185.402 27.861 187.331 31.6795 187.331 36.3354H189.331C189.331 31.0667 187.12 26.6673 183.219 23.6088C179.341 20.5679 173.858 18.8996 167.344 18.8996V20.8996ZM187.331 36.3354C187.331 43.2101 183.157 48.2368 177.044 49.6475L177.494 51.5963C184.529 49.9728 189.331 44.1266 189.331 36.3354H187.331ZM176.813 51.5122C179.376 52.8234 181.36 54.646 182.641 57.0913L184.413 56.1633C182.912 53.2986 180.598 51.2019 177.724 49.7317L176.813 51.5122ZM182.639 57.0868L191.11 73.4594L192.886 72.5404L184.415 56.1678L182.639 57.0868ZM191.998 71.9999H173.982V73.9999H191.998V71.9999ZM174.871 72.5432L167.602 58.3831L165.822 59.2965L173.092 73.4566L174.871 72.5432ZM167.599 58.3779C166.745 56.7382 165.76 55.5733 164.111 54.8831C162.549 54.2293 160.487 54.047 157.609 54.047V56.047C160.483 56.047 162.182 56.2439 163.339 56.728C164.408 57.1756 165.099 57.9072 165.825 59.3018L167.599 58.3779ZM157.609 54.047H148.885V56.047H157.609V54.047ZM147.885 55.047V72.9999H149.885V55.047H147.885ZM148.885 71.9999H132.197V73.9999H148.885V71.9999ZM148.885 45.0476H164.563V43.0476H148.885V45.0476ZM164.563 45.0476C166.956 45.0476 168.97 44.5521 170.409 43.4727C171.892 42.3608 172.643 40.7201 172.643 38.7376H170.643C170.643 40.1687 170.129 41.183 169.209 41.8727C168.247 42.5949 166.721 43.0476 164.563 43.0476V45.0476ZM172.643 38.7376C172.643 36.7889 171.838 35.1861 170.35 34.1044C168.903 33.0521 166.899 32.554 164.563 32.554V34.554C166.651 34.554 168.187 35.0041 169.174 35.7218C170.12 36.4101 170.643 37.3991 170.643 38.7376H172.643ZM164.563 32.554H148.885V34.554H164.563V32.554ZM147.885 33.554V44.0476H149.885V33.554H147.885ZM214.255 72.9999H213.255V73.9999H214.255V72.9999ZM214.255 33.554H215.255V32.554H214.255V33.554ZM192.004 33.554H191.004V34.554H192.004V33.554ZM192.004 19.8996V18.8996H191.004V19.8996H192.004ZM253.132 19.8996H254.132V18.8996H253.132V19.8996ZM253.132 33.554V34.554H254.132V33.554H253.132ZM230.944 33.554V32.554H229.944V33.554H230.944ZM230.944 72.9999V73.9999H231.944V72.9999H230.944ZM215.255 72.9999V33.554H213.255V72.9999H215.255ZM214.255 32.554H192.004V34.554H214.255V32.554ZM193.004 33.554V19.8996H191.004V33.554H193.004ZM192.004 20.8996H253.132V18.8996H192.004V20.8996ZM252.132 19.8996V33.554H254.132V19.8996H252.132ZM253.132 32.554H230.944V34.554H253.132V32.554ZM229.944 33.554V72.9999H231.944V33.554H229.944ZM230.944 71.9999H214.255V73.9999H230.944V71.9999ZM257.576 72.9999H256.576V73.9999H257.576V72.9999ZM257.576 19.8996V18.8996H256.576V19.8996H257.576ZM307.326 19.8996H308.326V18.8996H307.326V19.8996ZM307.326 33.1747V34.1747H308.326V33.1747H307.326ZM274.265 33.1747V32.1747H273.265V33.1747H274.265ZM274.265 41.519H273.265V42.519H274.265V41.519ZM301.763 41.519H302.763V40.519H301.763V41.519ZM301.763 53.2769V54.2769H302.763V53.2769H301.763ZM274.265 53.2769V52.2769H273.265V53.2769H274.265ZM274.265 72.9999V73.9999H275.265V72.9999H274.265ZM258.576 72.9999V19.8996H256.576V72.9999H258.576ZM257.576 20.8996H307.326V18.8996H257.576V20.8996ZM306.326 19.8996V33.1747H308.326V19.8996H306.326ZM307.326 32.1747H274.265V34.1747H307.326V32.1747ZM273.265 33.1747V41.519H275.265V33.1747H273.265ZM274.265 42.519H301.763V40.519H274.265V42.519ZM300.763 41.519V53.2769H302.763V41.519H300.763ZM301.763 52.2769H274.265V54.2769H301.763V52.2769ZM273.265 53.2769V72.9999H275.265V53.2769H273.265ZM274.265 71.9999H257.576V73.9999H274.265V71.9999ZM311.375 46.4498C311.375 38.3724 314.085 31.8389 319.23 27.3116C324.392 22.77 332.125 20.1411 342.362 20.1411V18.1411C331.802 18.1411 323.542 20.8538 317.909 25.8101C312.26 30.7809 309.375 37.9017 309.375 46.4498H311.375ZM342.362 20.1411C352.567 20.1411 360.301 22.7697 365.471 27.3121C370.624 31.8402 373.349 38.3741 373.349 46.4498H375.349C375.349 37.9001 372.447 30.7796 366.791 25.8097C361.151 20.8541 352.892 18.1411 342.362 18.1411V20.1411ZM373.349 46.4498C373.349 54.5255 370.624 61.0594 365.471 65.5874C360.301 70.1299 352.567 72.7585 342.362 72.7585V74.7585C352.892 74.7585 361.151 72.0454 366.791 67.0899C372.447 62.12 375.349 54.9995 375.349 46.4498H373.349ZM342.362 72.7585C332.125 72.7585 324.392 70.1295 319.23 65.5879C314.085 61.0607 311.375 54.5272 311.375 46.4498H309.375C309.375 54.9978 312.26 62.1187 317.909 67.0894C323.542 72.0458 331.802 74.7585 342.362 74.7585V72.7585ZM326.127 46.4498C326.127 50.7435 327.337 54.3672 330.084 56.9036C332.816 59.4274 336.909 60.7248 342.362 60.7248V58.7248C337.195 58.7248 333.67 57.4937 331.441 55.4344C329.225 53.3878 328.127 50.3739 328.127 46.4498H326.127ZM342.362 60.7248C347.785 60.7248 351.862 59.4267 354.586 56.9026C357.324 54.3663 358.534 50.7434 358.534 46.4498H356.534C356.534 50.374 355.436 53.3887 353.227 55.4355C351.005 57.4944 347.496 58.7248 342.362 58.7248V60.7248ZM358.534 46.4498C358.534 42.1561 357.324 38.5332 354.586 35.997C351.862 33.4729 347.785 32.1747 342.362 32.1747V34.1747C347.496 34.1747 351.005 35.4051 353.227 37.4641C355.436 39.5109 356.534 42.5255 356.534 46.4498H358.534ZM342.362 32.1747C336.909 32.1747 332.816 33.4722 330.084 35.9959C327.337 38.5324 326.127 42.156 326.127 46.4498H328.127C328.127 42.5256 329.225 39.5117 331.441 37.4652C333.67 35.4058 337.195 34.1747 342.362 34.1747V32.1747ZM380.055 72.9999H379.055V73.9999H380.055V72.9999ZM380.055 19.8996V18.8996H379.055V19.8996H380.055ZM396.743 19.8996H397.743V18.8996H396.743V19.8996ZM396.743 59.3455H395.743V60.3455H396.743V59.3455ZM424.495 59.3455H425.495V58.3455H424.495V59.3455ZM424.495 72.9999V73.9999H425.495V72.9999H424.495ZM381.055 72.9999V19.8996H379.055V72.9999H381.055ZM380.055 20.8996H396.743V18.8996H380.055V20.8996ZM395.743 19.8996V59.3455H397.743V19.8996H395.743ZM396.743 60.3455H424.495V58.3455H396.743V60.3455ZM423.495 59.3455V72.9999H425.495V59.3455H423.495ZM424.495 71.9999H380.055V73.9999H424.495V71.9999ZM429.565 72.9999H428.565V73.9999H429.565V72.9999ZM429.565 19.8996V18.8996H428.565V19.8996H429.565ZM446.253 19.8996H447.253V18.8996H446.253V19.8996ZM446.253 72.9999V73.9999H447.253V72.9999H446.253ZM430.565 72.9999V19.8996H428.565V72.9999H430.565ZM429.565 20.8996H446.253V18.8996H429.565V20.8996ZM445.253 19.8996V72.9999H447.253V19.8996H445.253ZM446.253 71.9999H429.565V73.9999H446.253V71.9999ZM452.929 46.4498C452.929 38.3724 455.639 31.8389 460.784 27.3116C465.945 22.77 473.679 20.1411 483.916 20.1411V18.1411C473.355 18.1411 465.095 20.8538 459.463 25.8101C453.814 30.7809 450.929 37.9017 450.929 46.4498H452.929ZM483.916 20.1411C494.121 20.1411 501.855 22.7697 507.024 27.3121C512.178 31.8402 514.902 38.3741 514.902 46.4498H516.902C516.902 37.9001 514.001 30.7796 508.345 25.8097C502.705 20.8541 494.445 18.1411 483.916 18.1411V20.1411ZM514.902 46.4498C514.902 54.5255 512.178 61.0594 507.024 65.5874C501.855 70.1299 494.121 72.7585 483.916 72.7585V74.7585C494.445 74.7585 502.705 72.0454 508.345 67.0899C514.001 62.12 516.902 54.9995 516.902 46.4498H514.902ZM483.916 72.7585C473.679 72.7585 465.945 70.1295 460.784 65.5879C455.639 61.0607 452.929 54.5272 452.929 46.4498H450.929C450.929 54.9978 453.814 62.1187 459.463 67.0894C465.095 72.0458 473.355 74.7585 483.916 74.7585V72.7585ZM467.681 46.4498C467.681 50.7435 468.891 54.3672 471.637 56.9036C474.37 59.4274 478.463 60.7248 483.916 60.7248V58.7248C478.749 58.7248 475.224 57.4937 472.994 55.4344C470.778 53.3878 469.681 50.3739 469.681 46.4498H467.681ZM483.916 60.7248C489.339 60.7248 493.416 59.4267 496.14 56.9026C498.877 54.3663 500.087 50.7434 500.087 46.4498H498.087C498.087 50.374 496.99 53.3887 494.781 55.4355C492.559 57.4944 489.05 58.7248 483.916 58.7248V60.7248ZM500.087 46.4498C500.087 42.1561 498.877 38.5332 496.14 35.997C493.416 33.4729 489.339 32.1747 483.916 32.1747V34.1747C489.05 34.1747 492.559 35.4051 494.781 37.4641C496.99 39.5109 498.087 42.5255 498.087 46.4498H500.087ZM483.916 32.1747C478.463 32.1747 474.37 33.4722 471.637 35.9959C468.891 38.5324 467.681 42.156 467.681 46.4498H469.681C469.681 42.5256 470.778 39.5117 472.994 37.4652C475.224 35.4058 478.749 34.1747 483.916 34.1747V32.1747Z" fill="black" fill-opacity="0.3"/>
</g>
<path d="M3.97754 62.9999V9.89968H39.8834C51.5149 9.89968 58.7213 16.79 58.7213 28.1054C58.7213 39.7369 51.1356 47.702 39.8834 47.702H20.6661V62.9999H3.97754ZM20.6661 34.8062H34.9527C39.5041 34.8062 42.0327 32.7201 42.0327 29.1801C42.0327 25.5769 39.3777 23.554 34.9527 23.554H20.6661V34.8062ZM62.5177 36.4498C62.5177 19.8243 73.7066 9.14111 94.5042 9.14111C115.238 9.14111 126.491 19.8243 126.491 36.4498C126.491 53.0752 115.238 63.7585 94.5042 63.7585C73.7066 63.7585 62.5177 53.0752 62.5177 36.4498ZM79.2696 36.4498C79.2696 44.6677 83.8842 49.7248 94.5042 49.7248C105.061 49.7248 109.676 44.6677 109.676 36.4498C109.676 28.2319 105.061 23.1747 94.5042 23.1747C83.8842 23.1747 79.2696 28.2319 79.2696 36.4498ZM132.197 62.9999V9.89968H167.344C180.05 9.89968 188.331 16.4107 188.331 26.3354C188.331 33.6683 183.843 39.1048 177.269 40.6219C179.987 42.0127 182.136 43.9723 183.527 46.6273L191.998 62.9999H173.982L166.712 48.8398C165.132 45.8055 163.362 45.047 157.609 45.047H148.885V62.9999H132.197ZM148.885 34.0476H164.563C169.114 34.0476 171.643 32.1512 171.643 28.7376C171.643 25.4504 168.988 23.554 164.563 23.554H148.885V34.0476ZM214.255 62.9999V23.554H192.004V9.89968H253.132V23.554H230.944V62.9999H214.255ZM257.576 62.9999V9.89968H307.326V23.1747H274.265V31.519H301.763V43.2769H274.265V62.9999H257.576ZM310.375 36.4498C310.375 19.8243 321.564 9.14111 342.362 9.14111C363.096 9.14111 374.349 19.8243 374.349 36.4498C374.349 53.0752 363.096 63.7585 342.362 63.7585C321.564 63.7585 310.375 53.0752 310.375 36.4498ZM327.127 36.4498C327.127 44.6677 331.742 49.7248 342.362 49.7248C352.919 49.7248 357.534 44.6677 357.534 36.4498C357.534 28.2319 352.919 23.1747 342.362 23.1747C331.742 23.1747 327.127 28.2319 327.127 36.4498ZM380.055 62.9999V9.89968H396.743V49.3455H424.495V62.9999H380.055ZM429.565 62.9999V9.89968H446.253V62.9999H429.565ZM451.929 36.4498C451.929 19.8243 463.118 9.14111 483.916 9.14111C504.65 9.14111 515.902 19.8243 515.902 36.4498C515.902 53.0752 504.65 63.7585 483.916 63.7585C463.118 63.7585 451.929 53.0752 451.929 36.4498ZM468.681 36.4498C468.681 44.6677 473.296 49.7248 483.916 49.7248C494.473 49.7248 499.087 44.6677 499.087 36.4498C499.087 28.2319 494.473 23.1747 483.916 23.1747C473.296 23.1747 468.681 28.2319 468.681 36.4498Z" fill="black"/>
</svg>
