<svg width="449" height="78" viewBox="0 0 449 78" fill="none" xmlns="http://www.w3.org/2000/svg">
<mask id="path-1-outside-1_214_311" maskUnits="userSpaceOnUse" x="1" y="8" width="447" height="57" fill="black">
<rect fill="white" x="1" y="8" width="447" height="57"/>
<path d="M2.93929 26.462C2.93929 15.4626 12.864 9.14117 30.1216 9.14117C47.6952 9.14117 57.3671 15.7155 57.3671 27.7895H40.4255C40.4255 23.4277 35.8741 21.2784 29.363 21.2784C23.1047 21.2784 19.6912 23.3012 19.6912 26.2723C19.6912 29.4963 24.1162 30.1284 29.363 30.5077C41.5634 31.4559 58.2521 31.1398 58.2521 45.1735C58.2521 57.6268 48.5802 63.7586 30.6905 63.7586C11.9158 63.7586 2.24393 56.9946 2.24393 44.8574H19.2487C19.2487 49.3456 23.484 51.6214 31.7651 51.6214C38.3395 51.6214 41.437 50.1674 41.437 47.2596C41.437 43.4035 36.0637 42.8345 29.1101 42.392C18.0476 41.6967 2.93929 41.3174 2.93929 26.462ZM63.9596 63V9.89974H114.089V23.1748H80.6483V30.002H108.399V41.7599H80.6483V49.7249H114.089V63H63.9596ZM120.26 63V9.89974H155.407C168.114 9.89974 176.395 16.4108 176.395 26.3355C176.395 33.6684 171.906 39.1049 165.332 40.622C168.05 42.0128 170.2 43.9724 171.59 46.6274L180.061 63H162.045L154.775 48.8399C153.195 45.8056 151.425 45.0471 145.672 45.0471H136.949V63H120.26ZM136.949 34.0477H152.626C157.177 34.0477 159.706 32.1513 159.706 28.7377C159.706 25.4505 157.051 23.5541 152.626 23.5541H136.949V34.0477ZM178.2 9.89974H195.964L210.44 48.8399H212.715L227.192 9.89974H245.018L224.22 63H198.998L178.2 9.89974ZM248.788 63V9.89974H265.477V63H248.788ZM302.507 50.1042C309.398 50.1042 313.317 46.9435 313.949 42.2656H330.638C330.638 55.4142 319.322 63.7586 302.128 63.7586C283.29 63.7586 271.153 53.0753 271.153 36.4499C271.153 19.8244 283.29 9.14117 302.128 9.14117C319.322 9.14117 330.638 17.4855 330.638 30.6341H313.949C313.317 25.9562 309.208 22.7955 302.002 22.7955C293.025 22.7955 287.905 27.7263 287.905 36.3867C287.905 44.8574 293.404 50.1042 302.507 50.1042ZM336.326 63V9.89974H386.455V23.1748H353.014V30.002H380.766V41.7599H353.014V49.7249H386.455V63H336.326ZM391.425 26.462C391.425 15.4626 401.35 9.14117 418.607 9.14117C436.181 9.14117 445.853 15.7155 445.853 27.7895H428.911C428.911 23.4277 424.36 21.2784 417.849 21.2784C411.591 21.2784 408.177 23.3012 408.177 26.2723C408.177 29.4963 412.602 30.1284 417.849 30.5077C430.049 31.4559 446.738 31.1398 446.738 45.1735C446.738 57.6268 437.066 63.7586 419.176 63.7586C400.402 63.7586 390.73 56.9946 390.73 44.8574H407.734C407.734 49.3456 411.97 51.6214 420.251 51.6214C426.825 51.6214 429.923 50.1674 429.923 47.2596C429.923 43.4035 424.549 42.8345 417.596 42.392C406.533 41.6967 391.425 41.3174 391.425 26.462Z"/>
</mask>
<path d="M57.3671 27.7895V28.7895H58.3671V27.7895H57.3671ZM40.4255 27.7895H39.4255V28.7895H40.4255V27.7895ZM29.363 30.5077L29.4405 29.5107L29.4351 29.5103L29.363 30.5077ZM2.24393 44.8574V43.8574H1.24393V44.8574H2.24393ZM19.2487 44.8574H20.2487V43.8574H19.2487V44.8574ZM29.1101 42.392L29.1736 41.3941L29.1729 41.394L29.1101 42.392ZM3.93929 26.462C3.93929 21.3182 6.23376 17.2996 10.5962 14.5202C15.0112 11.7072 21.5917 10.1412 30.1216 10.1412V8.14117C21.3938 8.14117 14.3832 9.73588 9.52149 12.8334C4.60716 15.9646 1.93929 20.6063 1.93929 26.462H3.93929ZM30.1216 10.1412C38.8085 10.1412 45.3895 11.7702 49.7703 14.7633C54.0953 17.7182 56.3671 22.0618 56.3671 27.7895H58.3671C58.3671 21.4431 55.8028 16.4626 50.8986 13.1119C46.05 9.79928 39.0082 8.14117 30.1216 8.14117V10.1412ZM57.3671 26.7895H40.4255V28.7895H57.3671V26.7895ZM41.4255 27.7895C41.4255 25.1809 40.0301 23.249 37.821 22.0238C35.6617 20.8261 32.7046 20.2784 29.363 20.2784V22.2784C32.5325 22.2784 35.1067 22.8053 36.8509 23.7727C38.5453 24.7125 39.4255 26.0362 39.4255 27.7895H41.4255ZM29.363 20.2784C26.1476 20.2784 23.545 20.7947 21.7077 21.7799C19.8383 22.7823 18.6912 24.3253 18.6912 26.2723H20.6912C20.6912 25.2482 21.2508 24.2943 22.6528 23.5425C24.0868 22.7735 26.3201 22.2784 29.363 22.2784V20.2784ZM18.6912 26.2723C18.6912 27.3363 19.0674 28.2281 19.7425 28.9327C20.3917 29.6103 21.2733 30.0706 22.2331 30.402C24.1374 31.0595 26.6833 31.3166 29.2909 31.5051L29.4351 29.5103C26.7958 29.3195 24.5059 29.0709 22.8859 28.5115C22.0836 28.2345 21.5311 27.9086 21.1866 27.549C20.868 27.2165 20.6912 26.8203 20.6912 26.2723H18.6912ZM29.2855 31.5047C35.4853 31.9865 42.528 32.1387 48.0824 33.8874C50.8351 34.7541 53.1172 35.9857 54.7091 37.7622C56.281 39.5164 57.2521 41.8815 57.2521 45.1735H59.2521C59.2521 41.4486 58.137 38.5907 56.1986 36.4275C54.2801 34.2866 51.6275 32.9068 48.683 31.9797C42.8429 30.141 35.4411 29.9771 29.4405 29.5107L29.2855 31.5047ZM57.2521 45.1735C57.2521 51.0971 54.9762 55.4156 50.6269 58.3029C46.21 61.2349 39.5505 62.7586 30.6905 62.7586V64.7586C39.7202 64.7586 46.8415 63.2163 51.733 59.9691C56.692 56.6772 59.2521 51.7031 59.2521 45.1735H57.2521ZM30.6905 62.7586C21.3967 62.7586 14.515 61.0799 9.98519 58.0299C5.51539 55.0204 3.24393 50.6169 3.24393 44.8574H1.24393C1.24393 51.2352 3.80838 56.2822 8.86818 59.6889C13.8679 63.0553 21.2096 64.7586 30.6905 64.7586V62.7586ZM2.24393 45.8574H19.2487V43.8574H2.24393V45.8574ZM18.2487 44.8574C18.2487 46.1429 18.554 47.3147 19.1912 48.3368C19.8263 49.3555 20.757 50.1714 21.9266 50.8025C24.2375 52.0495 27.5645 52.6214 31.7651 52.6214V50.6214C27.6846 50.6214 24.7534 50.0553 22.8764 49.0424C21.952 48.5436 21.3063 47.949 20.8884 47.2787C20.4727 46.6118 20.2487 45.816 20.2487 44.8574H18.2487ZM31.7651 52.6214C35.0931 52.6214 37.6859 52.2585 39.4809 51.441C40.392 51.026 41.141 50.4744 41.6614 49.7527C42.1891 49.0208 42.437 48.1753 42.437 47.2596H40.437C40.437 47.7978 40.2976 48.2245 40.0391 48.583C39.7733 48.9517 39.337 49.3089 38.6519 49.6209C37.2547 50.2573 35.0115 50.6214 31.7651 50.6214V52.6214ZM42.437 47.2596C42.437 46.0307 41.9958 45.0143 41.1901 44.2216C40.4161 43.4601 39.3553 42.9524 38.1748 42.5898C35.8285 41.8691 32.6223 41.6135 29.1736 41.3941L29.0466 43.39C32.5516 43.6131 35.5088 43.8632 37.5875 44.5016C38.6195 44.8186 39.3367 45.2038 39.7874 45.6473C40.2065 46.0596 40.437 46.5604 40.437 47.2596H42.437ZM29.1729 41.394C23.5752 41.0422 17.2219 40.7739 12.2437 38.807C9.78104 37.834 7.7221 36.4678 6.27503 34.5234C4.83471 32.588 3.93929 29.9978 3.93929 26.462H1.93929C1.93929 30.3538 2.9324 33.3818 4.67059 35.7174C6.40203 38.0439 8.81157 39.6014 11.5088 40.6671C16.8504 42.7775 23.5825 43.0466 29.0474 43.3901L29.1729 41.394ZM63.9596 63H62.9596V64H63.9596V63ZM63.9596 9.89974V8.89974H62.9596V9.89974H63.9596ZM114.089 9.89974H115.089V8.89974H114.089V9.89974ZM114.089 23.1748V24.1748H115.089V23.1748H114.089ZM80.6483 23.1748V22.1748H79.6483V23.1748H80.6483ZM80.6483 30.002H79.6483V31.002H80.6483V30.002ZM108.399 30.002H109.399V29.002H108.399V30.002ZM108.399 41.7599V42.7599H109.399V41.7599H108.399ZM80.6483 41.7599V40.7599H79.6483V41.7599H80.6483ZM80.6483 49.7249H79.6483V50.7249H80.6483V49.7249ZM114.089 49.7249H115.089V48.7249H114.089V49.7249ZM114.089 63V64H115.089V63H114.089ZM64.9596 63V9.89974H62.9596V63H64.9596ZM63.9596 10.8997H114.089V8.89974H63.9596V10.8997ZM113.089 9.89974V23.1748H115.089V9.89974H113.089ZM114.089 22.1748H80.6483V24.1748H114.089V22.1748ZM79.6483 23.1748V30.002H81.6483V23.1748H79.6483ZM80.6483 31.002H108.399V29.002H80.6483V31.002ZM107.399 30.002V41.7599H109.399V30.002H107.399ZM108.399 40.7599H80.6483V42.7599H108.399V40.7599ZM79.6483 41.7599V49.7249H81.6483V41.7599H79.6483ZM80.6483 50.7249H114.089V48.7249H80.6483V50.7249ZM113.089 49.7249V63H115.089V49.7249H113.089ZM114.089 62H63.9596V64H114.089V62ZM120.26 63H119.26V64H120.26V63ZM120.26 9.89974V8.89974H119.26V9.89974H120.26ZM165.332 40.622L165.107 39.6476L162.437 40.2639L164.877 41.5123L165.332 40.622ZM171.59 46.6274L172.479 46.1679L172.476 46.1634L171.59 46.6274ZM180.061 63V64H181.704L180.949 62.5405L180.061 63ZM162.045 63L161.155 63.4567L161.434 64H162.045V63ZM154.775 48.8399L155.665 48.3832L155.662 48.378L154.775 48.8399ZM136.949 45.0471V44.0471H135.949V45.0471H136.949ZM136.949 63V64H137.949V63H136.949ZM136.949 34.0477H135.949V35.0477H136.949V34.0477ZM136.949 23.5541V22.5541H135.949V23.5541H136.949ZM121.26 63V9.89974H119.26V63H121.26ZM120.26 10.8997H155.407V8.89974H120.26V10.8997ZM155.407 10.8997C161.6 10.8997 166.61 12.487 170.049 15.1828C173.465 17.8611 175.395 21.6796 175.395 26.3355H177.395C177.395 21.0668 175.184 16.6674 171.283 13.6089C167.404 10.568 161.921 8.89974 155.407 8.89974V10.8997ZM175.395 26.3355C175.395 33.2102 171.221 38.2369 165.107 39.6476L165.557 41.5964C172.592 39.9729 177.395 34.1267 177.395 26.3355H175.395ZM164.877 41.5123C167.439 42.8235 169.424 44.6461 170.705 47.0914L172.476 46.1634C170.976 43.2987 168.661 41.202 165.788 39.7318L164.877 41.5123ZM170.702 47.0869L179.173 63.4595L180.949 62.5405L172.479 46.1679L170.702 47.0869ZM180.061 62H162.045V64H180.061V62ZM162.935 62.5433L155.665 48.3832L153.886 49.2966L161.155 63.4567L162.935 62.5433ZM155.662 48.378C154.808 46.7383 153.823 45.5734 152.175 44.8832C150.613 44.2294 148.551 44.0471 145.672 44.0471V46.0471C148.547 46.0471 150.246 46.244 151.402 46.7281C152.472 47.1757 153.162 47.9073 153.888 49.3019L155.662 48.378ZM145.672 44.0471H136.949V46.0471H145.672V44.0471ZM135.949 45.0471V63H137.949V45.0471H135.949ZM136.949 62H120.26V64H136.949V62ZM136.949 35.0477H152.626V33.0477H136.949V35.0477ZM152.626 35.0477C155.019 35.0477 157.034 34.5522 158.473 33.4728C159.955 32.3609 160.706 30.7202 160.706 28.7377H158.706C158.706 30.1688 158.192 31.1831 157.273 31.8728C156.31 32.595 154.784 33.0477 152.626 33.0477V35.0477ZM160.706 28.7377C160.706 26.789 159.901 25.1862 158.414 24.1045C156.967 23.0522 154.963 22.5541 152.626 22.5541V24.5541C154.714 24.5541 156.25 25.0042 157.237 25.7219C158.184 26.4102 158.706 27.3992 158.706 28.7377H160.706ZM152.626 22.5541H136.949V24.5541H152.626V22.5541ZM135.949 23.5541V34.0477H137.949V23.5541H135.949ZM178.2 9.89974V8.89974H176.735L177.269 10.2644L178.2 9.89974ZM195.964 9.89974L196.901 9.55129L196.659 8.89974H195.964V9.89974ZM210.44 48.8399L209.502 49.1884L209.745 49.8399H210.44V48.8399ZM212.715 48.8399V49.8399H213.411L213.653 49.1884L212.715 48.8399ZM227.192 9.89974V8.89974H226.496L226.254 9.55129L227.192 9.89974ZM245.018 9.89974L245.949 10.2644L246.484 8.89974H245.018V9.89974ZM224.22 63V64H224.903L225.152 63.3647L224.22 63ZM198.998 63L198.067 63.3647L198.316 64H198.998V63ZM178.2 10.8997H195.964V8.89974H178.2V10.8997ZM195.026 10.2482L209.502 49.1884L211.377 48.4915L196.901 9.55129L195.026 10.2482ZM210.44 49.8399H212.715V47.8399H210.44V49.8399ZM213.653 49.1884L228.129 10.2482L226.254 9.55129L211.778 48.4915L213.653 49.1884ZM227.192 10.8997H245.018V8.89974H227.192V10.8997ZM244.087 9.53505L223.289 62.6353L225.152 63.3647L245.949 10.2644L244.087 9.53505ZM224.22 62H198.998V64H224.22V62ZM199.929 62.6353L179.131 9.53505L177.269 10.2644L198.067 63.3647L199.929 62.6353ZM248.788 63H247.788V64H248.788V63ZM248.788 9.89974V8.89974H247.788V9.89974H248.788ZM265.477 9.89974H266.477V8.89974H265.477V9.89974ZM265.477 63V64H266.477V63H265.477ZM249.788 63V9.89974H247.788V63H249.788ZM248.788 10.8997H265.477V8.89974H248.788V10.8997ZM264.477 9.89974V63H266.477V9.89974H264.477ZM265.477 62H248.788V64H265.477V62ZM313.949 42.2656V41.2656H313.075L312.958 42.1317L313.949 42.2656ZM330.638 42.2656H331.638V41.2656H330.638V42.2656ZM330.638 30.6341V31.6341H331.638V30.6341H330.638ZM313.949 30.6341L312.958 30.768L313.075 31.6341H313.949V30.6341ZM302.507 51.1042C306.097 51.1042 309.022 50.2813 311.157 48.7522C313.311 47.2102 314.589 44.9999 314.94 42.3995L312.958 42.1317C312.677 44.2092 311.68 45.9183 309.993 47.1261C308.288 48.3468 305.808 49.1042 302.507 49.1042V51.1042ZM313.949 43.2656H330.638V41.2656H313.949V43.2656ZM329.638 42.2656C329.638 48.5191 326.962 53.5982 322.231 57.1425C317.473 60.7073 310.576 62.7586 302.128 62.7586V64.7586C310.874 64.7586 318.232 62.6377 323.43 58.7431C328.656 54.8282 331.638 49.1607 331.638 42.2656H329.638ZM302.128 62.7586C292.893 62.7586 285.404 60.1412 280.237 55.5885C275.084 51.0474 272.153 44.504 272.153 36.4499H270.153C270.153 45.0212 273.29 52.1321 278.915 57.089C284.527 62.0344 292.525 64.7586 302.128 64.7586V62.7586ZM272.153 36.4499C272.153 28.3958 275.084 21.8523 280.237 17.3112C285.404 12.7586 292.893 10.1412 302.128 10.1412V8.14117C292.525 8.14117 284.527 10.8654 278.915 15.8107C273.29 20.7676 270.153 27.8785 270.153 36.4499H272.153ZM302.128 10.1412C310.576 10.1412 317.473 12.1924 322.231 15.7572C326.962 19.3016 329.638 24.3806 329.638 30.6341H331.638C331.638 23.739 328.656 18.0716 323.43 14.1566C318.232 10.2621 310.874 8.14117 302.128 8.14117V10.1412ZM330.638 29.6341H313.949V31.6341H330.638V29.6341ZM314.94 30.5002C314.586 27.8824 313.247 25.6711 311.006 24.1356C308.786 22.6146 305.741 21.7955 302.002 21.7955V23.7955C305.469 23.7955 308.082 24.5568 309.876 25.7856C311.648 27 312.68 28.7079 312.958 30.768L314.94 30.5002ZM302.002 21.7955C297.336 21.7955 293.533 23.0791 290.893 25.6234C288.248 28.1729 286.905 31.8587 286.905 36.3867H288.905C288.905 32.2542 290.122 29.1445 292.281 27.0635C294.445 24.9773 297.691 23.7955 302.002 23.7955V21.7955ZM286.905 36.3867C286.905 40.845 288.358 44.5567 291.106 47.1494C293.848 49.7355 297.767 51.1042 302.507 51.1042V49.1042C298.145 49.1042 294.763 47.8495 292.479 45.6946C290.201 43.5461 288.905 40.3991 288.905 36.3867H286.905ZM336.326 63H335.326V64H336.326V63ZM336.326 9.89974V8.89974H335.326V9.89974H336.326ZM386.455 9.89974H387.455V8.89974H386.455V9.89974ZM386.455 23.1748V24.1748H387.455V23.1748H386.455ZM353.014 23.1748V22.1748H352.014V23.1748H353.014ZM353.014 30.002H352.014V31.002H353.014V30.002ZM380.766 30.002H381.766V29.002H380.766V30.002ZM380.766 41.7599V42.7599H381.766V41.7599H380.766ZM353.014 41.7599V40.7599H352.014V41.7599H353.014ZM353.014 49.7249H352.014V50.7249H353.014V49.7249ZM386.455 49.7249H387.455V48.7249H386.455V49.7249ZM386.455 63V64H387.455V63H386.455ZM337.326 63V9.89974H335.326V63H337.326ZM336.326 10.8997H386.455V8.89974H336.326V10.8997ZM385.455 9.89974V23.1748H387.455V9.89974H385.455ZM386.455 22.1748H353.014V24.1748H386.455V22.1748ZM352.014 23.1748V30.002H354.014V23.1748H352.014ZM353.014 31.002H380.766V29.002H353.014V31.002ZM379.766 30.002V41.7599H381.766V30.002H379.766ZM380.766 40.7599H353.014V42.7599H380.766V40.7599ZM352.014 41.7599V49.7249H354.014V41.7599H352.014ZM353.014 50.7249H386.455V48.7249H353.014V50.7249ZM385.455 49.7249V63H387.455V49.7249H385.455ZM386.455 62H336.326V64H386.455V62ZM445.853 27.7895V28.7895H446.853V27.7895H445.853ZM428.911 27.7895H427.911V28.7895H428.911V27.7895ZM417.849 30.5077L417.926 29.5107L417.921 29.5103L417.849 30.5077ZM390.73 44.8574V43.8574H389.73V44.8574H390.73ZM407.734 44.8574H408.734V43.8574H407.734V44.8574ZM417.596 42.392L417.659 41.3941L417.659 41.394L417.596 42.392ZM392.425 26.462C392.425 21.3182 394.72 17.2996 399.082 14.5202C403.497 11.7072 410.077 10.1412 418.607 10.1412V8.14117C409.88 8.14117 402.869 9.73588 398.007 12.8334C393.093 15.9646 390.425 20.6063 390.425 26.462H392.425ZM418.607 10.1412C427.294 10.1412 433.875 11.7702 438.256 14.7633C442.581 17.7182 444.853 22.0618 444.853 27.7895H446.853C446.853 21.4431 444.289 16.4626 439.384 13.1119C434.536 9.79928 427.494 8.14117 418.607 8.14117V10.1412ZM445.853 26.7895H428.911V28.7895H445.853V26.7895ZM429.911 27.7895C429.911 25.1809 428.516 23.249 426.307 22.0238C424.147 20.8261 421.19 20.2784 417.849 20.2784V22.2784C421.018 22.2784 423.592 22.8053 425.337 23.7727C427.031 24.7125 427.911 26.0362 427.911 27.7895H429.911ZM417.849 20.2784C414.633 20.2784 412.031 20.7947 410.193 21.7799C408.324 22.7823 407.177 24.3253 407.177 26.2723H409.177C409.177 25.2482 409.737 24.2943 411.139 23.5425C412.573 22.7735 414.806 22.2784 417.849 22.2784V20.2784ZM407.177 26.2723C407.177 27.3363 407.553 28.2281 408.228 28.9327C408.877 29.6103 409.759 30.0706 410.719 30.402C412.623 31.0595 415.169 31.3166 417.777 31.5051L417.921 29.5103C415.282 29.3195 412.992 29.0709 411.372 28.5115C410.569 28.2345 410.017 27.9086 409.672 27.549C409.354 27.2165 409.177 26.8203 409.177 26.2723H407.177ZM417.771 31.5047C423.971 31.9865 431.014 32.1387 436.568 33.8874C439.321 34.7541 441.603 35.9857 443.195 37.7622C444.767 39.5164 445.738 41.8815 445.738 45.1735H447.738C447.738 41.4486 446.623 38.5907 444.684 36.4275C442.766 34.2866 440.113 32.9068 437.169 31.9797C431.329 30.141 423.927 29.9771 417.926 29.5107L417.771 31.5047ZM445.738 45.1735C445.738 51.0971 443.462 55.4156 439.113 58.3029C434.696 61.2349 428.036 62.7586 419.176 62.7586V64.7586C428.206 64.7586 435.327 63.2163 440.219 59.9691C445.178 56.6772 447.738 51.7031 447.738 45.1735H445.738ZM419.176 62.7586C409.882 62.7586 403.001 61.0799 398.471 58.0299C394.001 55.0204 391.73 50.6169 391.73 44.8574H389.73C389.73 51.2352 392.294 56.2822 397.354 59.6889C402.354 63.0553 409.695 64.7586 419.176 64.7586V62.7586ZM390.73 45.8574H407.734V43.8574H390.73V45.8574ZM406.734 44.8574C406.734 46.1429 407.04 47.3147 407.677 48.3368C408.312 49.3555 409.243 50.1714 410.412 50.8025C412.723 52.0495 416.05 52.6214 420.251 52.6214V50.6214C416.17 50.6214 413.239 50.0553 411.362 49.0424C410.438 48.5436 409.792 47.949 409.374 47.2787C408.958 46.6118 408.734 45.816 408.734 44.8574H406.734ZM420.251 52.6214C423.579 52.6214 426.172 52.2585 427.967 51.441C428.878 51.026 429.627 50.4744 430.147 49.7527C430.675 49.0208 430.923 48.1753 430.923 47.2596H428.923C428.923 47.7978 428.783 48.2245 428.525 48.583C428.259 48.9517 427.823 49.3089 427.138 49.6209C425.74 50.2573 423.497 50.6214 420.251 50.6214V52.6214ZM430.923 47.2596C430.923 46.0307 430.482 45.0143 429.676 44.2216C428.902 43.4601 427.841 42.9524 426.661 42.5898C424.314 41.8691 421.108 41.6135 417.659 41.3941L417.532 43.39C421.037 43.6131 423.995 43.8632 426.073 44.5016C427.105 44.8186 427.822 45.2038 428.273 45.6473C428.692 46.0596 428.923 46.5604 428.923 47.2596H430.923ZM417.659 41.394C412.061 41.0422 405.708 40.7739 400.729 38.807C398.267 37.834 396.208 36.4678 394.761 34.5234C393.32 32.588 392.425 29.9978 392.425 26.462H390.425C390.425 30.3538 391.418 33.3818 393.156 35.7174C394.888 38.0439 397.297 39.6014 399.995 40.6671C405.336 42.7775 412.068 43.0466 417.533 43.3901L417.659 41.394Z" fill="white" fill-opacity="0.3" mask="url(#path-1-outside-1_214_311)"/>
<path d="M2.93929 19.462C2.93929 8.46263 12.864 2.14117 30.1216 2.14117C47.6952 2.14117 57.3671 8.71549 57.3671 20.7895H40.4255C40.4255 16.4277 35.8741 14.2784 29.363 14.2784C23.1047 14.2784 19.6912 16.3012 19.6912 19.2723C19.6912 22.4963 24.1162 23.1284 29.363 23.5077C41.5634 24.4559 58.2521 24.1398 58.2521 38.1735C58.2521 50.6268 48.5802 56.7586 30.6905 56.7586C11.9158 56.7586 2.24393 49.9946 2.24393 37.8574H19.2487C19.2487 42.3456 23.484 44.6214 31.7651 44.6214C38.3395 44.6214 41.437 43.1674 41.437 40.2596C41.437 36.4035 36.0637 35.8345 29.1101 35.392C18.0476 34.6967 2.93929 34.3174 2.93929 19.462ZM63.9596 56V2.89974H114.089V16.1748H80.6483V23.002H108.399V34.7599H80.6483V42.7249H114.089V56H63.9596ZM120.26 56V2.89974H155.407C168.114 2.89974 176.395 9.41085 176.395 19.3355C176.395 26.6684 171.906 32.1049 165.332 33.622C168.05 35.0128 170.2 36.9724 171.59 39.6274L180.061 56H162.045L154.775 41.8399C153.195 38.8056 151.425 38.0471 145.672 38.0471H136.949V56H120.26ZM136.949 27.0477H152.626C157.177 27.0477 159.706 25.1513 159.706 21.7377C159.706 18.4505 157.051 16.5541 152.626 16.5541H136.949V27.0477ZM178.2 2.89974H195.964L210.44 41.8399H212.715L227.192 2.89974H245.018L224.22 56H198.998L178.2 2.89974ZM248.788 56V2.89974H265.477V56H248.788ZM302.507 43.1042C309.398 43.1042 313.317 39.9435 313.949 35.2656H330.638C330.638 48.4142 319.322 56.7586 302.128 56.7586C283.29 56.7586 271.153 46.0753 271.153 29.4499C271.153 12.8244 283.29 2.14117 302.128 2.14117C319.322 2.14117 330.638 10.4855 330.638 23.6341H313.949C313.317 18.9562 309.208 15.7955 302.002 15.7955C293.025 15.7955 287.905 20.7263 287.905 29.3867C287.905 37.8574 293.404 43.1042 302.507 43.1042ZM336.326 56V2.89974H386.455V16.1748H353.014V23.002H380.766V34.7599H353.014V42.7249H386.455V56H336.326ZM391.425 19.462C391.425 8.46263 401.35 2.14117 418.607 2.14117C436.181 2.14117 445.853 8.71549 445.853 20.7895H428.911C428.911 16.4277 424.36 14.2784 417.849 14.2784C411.591 14.2784 408.177 16.3012 408.177 19.2723C408.177 22.4963 412.602 23.1284 417.849 23.5077C430.049 24.4559 446.738 24.1398 446.738 38.1735C446.738 50.6268 437.066 56.7586 419.176 56.7586C400.402 56.7586 390.73 49.9946 390.73 37.8574H407.734C407.734 42.3456 411.97 44.6214 420.251 44.6214C426.825 44.6214 429.923 43.1674 429.923 40.2596C429.923 36.4035 424.549 35.8345 417.596 35.392C406.533 34.6967 391.425 34.3174 391.425 19.462Z" fill="white"/>
</svg>
