<svg width="449" height="78" viewBox="0 0 449 78" fill="none" xmlns="http://www.w3.org/2000/svg">
<mask id="mask0_248_643" style="mask-type:luminance" maskUnits="userSpaceOnUse" x="1" y="8" width="447" height="57">
<path d="M448 8H1V65H448V8Z" fill="white"/>
<path d="M2.9395 26.4619C2.9395 15.4625 12.8642 9.14111 30.1218 9.14111C47.6954 9.14111 57.3673 15.7154 57.3673 27.7894H40.4257C40.4257 23.4276 35.8743 21.2783 29.3632 21.2783C23.1049 21.2783 19.6914 23.3011 19.6914 26.2722C19.6914 29.4962 24.1164 30.1283 29.3632 30.5076C41.5636 31.4558 58.2523 31.1397 58.2523 45.1734C58.2523 57.6267 48.5804 63.7585 30.6907 63.7585C11.916 63.7585 2.24414 56.9945 2.24414 44.8573H19.2489C19.2489 49.3455 23.4842 51.6213 31.7653 51.6213C38.3397 51.6213 41.4372 50.1673 41.4372 47.2595C41.4372 43.4034 36.0639 42.8344 29.1103 42.3919C18.0478 41.6966 2.9395 41.3173 2.9395 26.4619ZM63.9598 62.9999V9.89968H114.089V23.1747H80.6485V30.0019H108.399V41.7598H80.6485V49.7248H114.089V62.9999H63.9598ZM120.26 62.9999V9.89968H155.407C168.114 9.89968 176.395 16.4107 176.395 26.3354C176.395 33.6683 171.906 39.1048 165.332 40.6219C168.05 42.0127 170.2 43.9723 171.59 46.6273L180.061 62.9999H162.045L154.775 48.8398C153.195 45.8055 151.425 45.047 145.672 45.047H136.949V62.9999H120.26ZM136.949 34.0476H152.626C157.177 34.0476 159.706 32.1512 159.706 28.7376C159.706 25.4504 157.051 23.554 152.626 23.554H136.949V34.0476ZM178.2 9.89968H195.964L210.44 48.8398H212.715L227.192 9.89968H245.018L224.22 62.9999H198.998L178.2 9.89968ZM248.788 62.9999V9.89968H265.477V62.9999H248.788ZM302.507 50.1041C309.398 50.1041 313.317 46.9434 313.949 42.2655H330.638C330.638 55.4141 319.322 63.7585 302.128 63.7585C283.29 63.7585 271.153 53.0752 271.153 36.4498C271.153 19.8243 283.29 9.14111 302.128 9.14111C319.322 9.14111 330.638 17.4854 330.638 30.634H313.949C313.317 25.9561 309.208 22.7954 302.002 22.7954C293.025 22.7954 287.905 27.7262 287.905 36.3866C287.905 44.8573 293.404 50.1041 302.507 50.1041ZM336.326 62.9999V9.89968H386.455V23.1747H353.014V30.0019H380.766V41.7598H353.014V49.7248H386.455V62.9999H336.326ZM391.425 26.4619C391.425 15.4625 401.35 9.14111 418.607 9.14111C436.181 9.14111 445.853 15.7154 445.853 27.7894H428.911C428.911 23.4276 424.36 21.2783 417.849 21.2783C411.591 21.2783 408.177 23.3011 408.177 26.2722C408.177 29.4962 412.602 30.1283 417.849 30.5076C430.049 31.4558 446.738 31.1397 446.738 45.1734C446.738 57.6267 437.066 63.7585 419.176 63.7585C400.402 63.7585 390.73 56.9945 390.73 44.8573H407.734C407.734 49.3455 411.97 51.6213 420.251 51.6213C426.825 51.6213 429.923 50.1673 429.923 47.2595C429.923 43.4034 424.549 42.8344 417.596 42.3919C406.533 41.6966 391.425 41.3173 391.425 26.4619Z" fill="black"/>
</mask>
<g mask="url(#mask0_248_643)">
<path d="M57.3673 27.7894V28.7894H58.3673V27.7894H57.3673ZM40.4257 27.7894H39.4257V28.7894H40.4257V27.7894ZM29.3632 30.5076L29.4407 29.5106L29.4353 29.5102L29.3632 30.5076ZM2.24414 44.8573V43.8573H1.24414V44.8573H2.24414ZM19.2489 44.8573H20.2489V43.8573H19.2489V44.8573ZM3.9395 26.4619C3.9395 21.3181 6.23397 17.2995 10.5964 14.5201C15.0114 11.7071 21.5919 10.1411 30.1218 10.1411V8.14111C21.394 8.14111 14.3834 9.73582 9.5217 12.8333C4.60737 15.9645 1.9395 20.6062 1.9395 26.4619H3.9395ZM30.1218 10.1411C38.8087 10.1411 45.3897 11.7701 49.7705 14.7632C54.0955 17.7181 56.3673 22.0617 56.3673 27.7894H58.3673C58.3673 21.443 55.803 16.4625 50.8988 13.1118C46.0502 9.79922 39.0084 8.14111 30.1218 8.14111V10.1411ZM57.3673 26.7894H40.4257V28.7894H57.3673V26.7894ZM41.4257 27.7894C41.4257 25.1808 40.0303 23.2489 37.8212 22.0237C35.6619 20.826 32.7048 20.2783 29.3632 20.2783V22.2783C32.5327 22.2783 35.1069 22.8052 36.8511 23.7726C38.5455 24.7124 39.4257 26.0361 39.4257 27.7894H41.4257ZM29.3632 20.2783C26.1478 20.2783 23.5452 20.7946 21.7079 21.7798C19.8385 22.7822 18.6914 24.3252 18.6914 26.2722H20.6914C20.6914 25.2481 21.251 24.2942 22.653 23.5424C24.087 22.7734 26.3203 22.2783 29.3632 22.2783V20.2783ZM18.6914 26.2722C18.6914 27.3362 19.0676 28.228 19.7427 28.9326C20.3919 29.6102 21.2735 30.0705 22.2333 30.4019C24.1376 31.0594 26.6835 31.3165 29.2911 31.505L29.4353 29.5102C26.796 29.3194 24.5061 29.0708 22.8861 28.5114C22.0838 28.2344 21.5313 27.9085 21.1868 27.5489C20.8682 27.2164 20.6914 26.8202 20.6914 26.2722H18.6914ZM29.2857 31.5046C35.4855 31.9864 42.5282 32.1386 48.0826 33.8873C50.8353 34.754 53.1174 35.9856 54.7093 37.7621C56.2812 39.5163 57.2523 41.8814 57.2523 45.1734H59.2523C59.2523 41.4485 58.1372 38.5906 56.1988 36.4274C54.2803 34.2865 51.6277 32.9067 48.6832 31.9796C42.8431 30.1409 35.4413 29.977 29.4407 29.5106L29.2857 31.5046ZM57.2523 45.1734C57.2523 51.097 54.9764 55.4155 50.6271 58.3028C46.2102 61.2348 39.5507 62.7585 30.6907 62.7585V64.7585C39.7204 64.7585 46.8417 63.2162 51.7332 59.969C56.6922 56.6771 59.2523 51.703 59.2523 45.1734H57.2523ZM30.6907 62.7585C21.3969 62.7585 14.5152 61.0798 9.9854 58.0298C5.5156 55.0203 3.24414 50.6168 3.24414 44.8573H1.24414C1.24414 51.2351 3.80859 56.2821 8.86839 59.6888C13.8681 63.0552 21.2098 64.7585 30.6907 64.7585V62.7585ZM2.24414 45.8573H19.2489V43.8573H2.24414V45.8573ZM18.2489 44.8573C18.2489 46.1428 18.5542 47.3146 19.1914 48.3367C19.8265 49.3554 20.7572 50.1713 21.9268 50.8024C24.2377 52.0494 27.5647 52.6213 31.7653 52.6213V50.6213C27.6848 50.6213 24.7536 50.0552 22.8766 49.0423C21.9522 48.5435 21.3065 47.9489 20.8886 47.2786C20.4729 46.6117 20.2489 45.8159 20.2489 44.8573H18.2489ZM31.7653 52.6213C35.0933 52.6213 37.6861 52.2584 39.4811 51.4409C40.3922 51.0259 41.1412 50.4743 41.6616 49.7526C42.1893 49.0207 42.4372 48.1752 42.4372 47.2595H40.4372C40.4372 47.7977 40.2978 48.2244 40.0393 48.5829C39.7735 48.9516 39.3372 49.3088 38.6521 49.6208C37.2549 50.2572 35.0117 50.6213 31.7653 50.6213V52.6213ZM42.4372 47.2595C42.4372 46.0306 41.996 45.0142 41.1903 44.2215C40.4163 43.46 39.3555 42.9523 38.175 42.5897C35.8287 41.869 32.6225 41.6134 29.1738 41.394L29.0468 43.3899C32.5518 43.613 35.509 43.8631 37.5877 44.5015C38.6197 44.8185 39.3369 45.2037 39.7876 45.6472C40.2067 46.0595 40.4372 46.5603 40.4372 47.2595H42.4372ZM29.1738 41.394C23.5761 41.0422 17.2221 40.7738 12.2439 38.8069C9.78125 37.8339 7.72231 36.4677 6.27524 34.5233C4.83492 32.5879 3.9395 29.9977 3.9395 26.4619H1.9395C1.9395 30.3537 2.93261 33.3817 4.6708 35.7173C6.40224 38.0438 8.81178 39.6013 11.509 40.667C16.8506 42.7774 23.5819 43.0464 29.0468 43.3899L29.1738 41.394ZM63.9598 62.9999H62.9598V63.9999H63.9598V62.9999ZM63.9598 9.89968V8.89968H62.9598V9.89968H63.9598ZM114.089 9.89968H115.089V8.89968H114.089V9.89968ZM114.089 23.1747V24.1747H115.089V23.1747H114.089ZM80.6485 23.1747V22.1747H79.6485V23.1747H80.6485ZM80.6485 30.0019H79.6485V31.0019H80.6485V30.0019ZM108.399 30.0019H109.399V29.0019H108.399V30.0019ZM108.399 41.7598V42.7598H109.399V41.7598H108.399ZM80.6485 41.7598V40.7598H79.6485V41.7598H80.6485ZM80.6485 49.7248H79.6485V50.7248H80.6485V49.7248ZM114.089 49.7248H115.089V48.7248H114.089V49.7248ZM114.089 62.9999V63.9999H115.089V62.9999H114.089ZM64.9598 62.9999V9.89968H62.9598V62.9999H64.9598ZM63.9598 10.8996H114.089V8.89968H63.9598V10.8996ZM113.089 9.89968V23.1747H115.089V9.89968H113.089ZM114.089 22.1747H80.6485V24.1747H114.089V22.1747ZM79.6485 23.1747V30.0019H81.6485V23.1747H79.6485ZM80.6485 31.0019H108.399V29.0019H80.6485V31.0019ZM107.399 30.0019V41.7598H109.399V30.0019H107.399ZM108.399 40.7598H80.6485V42.7598H108.399V40.7598ZM79.6485 41.7598V49.7248H81.6485V41.7598H79.6485ZM80.6485 50.7248H114.089V48.7248H80.6485V50.7248ZM113.089 49.7248V62.9999H115.089V49.7248H113.089ZM114.089 61.9999H63.9598V63.9999H114.089V61.9999ZM120.26 62.9999H119.26V63.9999H120.26V62.9999ZM120.26 9.89968V8.89968H119.26V9.89968H120.26ZM165.332 40.6219L165.107 39.6475L162.437 40.2638L164.877 41.5122L165.332 40.6219ZM171.59 46.6273L172.479 46.1678L172.476 46.1633L171.59 46.6273ZM180.061 62.9999V63.9999H181.704L180.949 62.5404L180.061 62.9999ZM162.045 62.9999L161.155 63.4566L161.434 63.9999H162.045V62.9999ZM154.775 48.8398L155.665 48.3831L155.662 48.3779L154.775 48.8398ZM136.949 45.047V44.047H135.949V45.047H136.949ZM136.949 62.9999V63.9999H137.949V62.9999H136.949ZM136.949 34.0476H135.949V35.0476H136.949V34.0476ZM136.949 23.554V22.554H135.949V23.554H136.949ZM121.26 62.9999V9.89968H119.26V62.9999H121.26ZM120.26 10.8996H155.407V8.89968H120.26V10.8996ZM155.407 10.8996C161.6 10.8996 166.61 12.4869 170.049 15.1827C173.465 17.861 175.395 21.6795 175.395 26.3354H177.395C177.395 21.0667 175.184 16.6673 171.283 13.6088C167.404 10.5679 161.921 8.89968 155.407 8.89968V10.8996ZM175.395 26.3354C175.395 33.2101 171.221 38.2368 165.107 39.6475L165.557 41.5963C172.592 39.9728 177.395 34.1266 177.395 26.3354H175.395ZM164.877 41.5122C167.439 42.8234 169.424 44.646 170.705 47.0913L172.476 46.1633C170.976 43.2986 168.661 41.2019 165.788 39.7317L164.877 41.5122ZM170.702 47.0868L179.173 63.4594L180.949 62.5404L172.479 46.1678L170.702 47.0868ZM180.061 61.9999H162.045V63.9999H180.061V61.9999ZM162.935 62.5432L155.665 48.3831L153.886 49.2965L161.155 63.4566L162.935 62.5432ZM155.662 48.3779C154.808 46.7382 153.823 45.5733 152.175 44.8831C150.613 44.2293 148.551 44.047 145.672 44.047V46.047C148.547 46.047 150.246 46.2439 151.402 46.728C152.472 47.1756 153.162 47.9072 153.888 49.3018L155.662 48.3779ZM145.672 44.047H136.949V46.047H145.672V44.047ZM135.949 45.047V62.9999H137.949V45.047H135.949ZM136.949 61.9999H120.26V63.9999H136.949V61.9999ZM136.949 35.0476H152.626V33.0476H136.949V35.0476ZM152.626 35.0476C155.019 35.0476 157.034 34.5521 158.473 33.4727C159.955 32.3608 160.706 30.7201 160.706 28.7376H158.706C158.706 30.1687 158.192 31.183 157.273 31.8727C156.31 32.5949 154.784 33.0476 152.626 33.0476V35.0476ZM160.706 28.7376C160.706 26.7889 159.901 25.1861 158.414 24.1044C156.967 23.0521 154.963 22.554 152.626 22.554V24.554C154.714 24.554 156.25 25.0041 157.237 25.7218C158.184 26.4101 158.706 27.3991 158.706 28.7376H160.706ZM152.626 22.554H136.949V24.554H152.626V22.554ZM135.949 23.554V34.0476H137.949V23.554H135.949ZM178.2 9.89968V8.89968H176.735L177.269 10.2643L178.2 9.89968ZM195.964 9.89968L196.901 9.55123L196.659 8.89968H195.964V9.89968ZM210.44 48.8398L209.502 49.1883L209.745 49.8398H210.44V48.8398ZM212.715 48.8398V49.8398H213.411L213.653 49.1883L212.715 48.8398ZM227.192 9.89968V8.89968H226.496L226.254 9.55123L227.192 9.89968ZM245.018 9.89968L245.949 10.2643L246.484 8.89968H245.018V9.89968ZM224.22 62.9999V63.9999H224.903L225.152 63.3646L224.22 62.9999ZM198.998 62.9999L198.067 63.3646L198.316 63.9999H198.998V62.9999ZM178.2 10.8996H195.964V8.89968H178.2V10.8996ZM195.026 10.2481L209.502 49.1883L211.377 48.4914L196.901 9.55123L195.026 10.2481ZM210.44 49.8398H212.715V47.8398H210.44V49.8398ZM213.653 49.1883L228.129 10.2481L226.254 9.55123L211.778 48.4914L213.653 49.1883ZM227.192 10.8996H245.018V8.89968H227.192V10.8996ZM244.087 9.53499L223.289 62.6352L225.152 63.3646L245.949 10.2643L244.087 9.53499ZM224.22 61.9999H198.998V63.9999H224.22V61.9999ZM199.929 62.6352L179.131 9.53499L177.269 10.2643L198.067 63.3646L199.929 62.6352ZM248.788 62.9999H247.788V63.9999H248.788V62.9999ZM248.788 9.89968V8.89968H247.788V9.89968H248.788ZM265.477 9.89968H266.477V8.89968H265.477V9.89968ZM265.477 62.9999V63.9999H266.477V62.9999H265.477ZM249.788 62.9999V9.89968H247.788V62.9999H249.788ZM248.788 10.8996H265.477V8.89968H248.788V10.8996ZM264.477 9.89968V62.9999H266.477V9.89968H264.477ZM265.477 61.9999H248.788V63.9999H265.477V61.9999ZM313.949 42.2655V41.2655H313.075L312.958 42.1316L313.949 42.2655ZM330.638 42.2655H331.638V41.2655H330.638V42.2655ZM330.638 30.634V31.634H331.638V30.634H330.638ZM313.949 30.634L312.958 30.7679L313.075 31.634H313.949V30.634ZM302.507 51.1041C306.097 51.1041 309.022 50.2812 311.157 48.7521C313.311 47.2101 314.589 44.9998 314.94 42.3994L312.958 42.1316C312.677 44.2091 311.68 45.9182 309.993 47.126C308.288 48.3467 305.808 49.1041 302.507 49.1041V51.1041ZM313.949 43.2655H330.638V41.2655H313.949V43.2655ZM329.638 42.2655C329.638 48.519 326.962 53.5981 322.231 57.1424C317.473 60.7072 310.576 62.7585 302.128 62.7585V64.7585C310.874 64.7585 318.232 62.6376 323.43 58.743C328.656 54.8281 331.638 49.1606 331.638 42.2655H329.638ZM302.128 62.7585C292.893 62.7585 285.404 60.1411 280.237 55.5884C275.084 51.0473 272.153 44.5039 272.153 36.4498H270.153C270.153 45.0211 273.29 52.132 278.915 57.0889C284.527 62.0343 292.525 64.7585 302.128 64.7585V62.7585ZM272.153 36.4498C272.153 28.3957 275.084 21.8522 280.237 17.3111C285.404 12.7585 292.893 10.1411 302.128 10.1411V8.14111C292.525 8.14111 284.527 10.8653 278.915 15.8106C273.29 20.7675 270.153 27.8784 270.153 36.4498H272.153ZM302.128 10.1411C310.576 10.1411 317.473 12.1923 322.231 15.7571C326.962 19.3015 329.638 24.3805 329.638 30.634H331.638C331.638 23.7389 328.656 18.0715 323.43 14.1565C318.232 10.262 310.874 8.14111 302.128 8.14111V10.1411ZM330.638 29.634H313.949V31.634H330.638V29.634ZM314.94 30.5001C314.586 27.8823 313.247 25.671 311.006 24.1355C308.786 22.6145 305.741 21.7954 302.002 21.7954V23.7954C305.469 23.7954 308.082 24.5567 309.876 25.7855C311.648 26.9999 312.68 28.7078 312.958 30.7679L314.94 30.5001ZM302.002 21.7954C297.336 21.7954 293.533 23.079 290.893 25.6233C288.248 28.1728 286.905 31.8586 286.905 36.3866H288.905C288.905 32.2541 290.122 29.1444 292.281 27.0634C294.445 24.9772 297.691 23.7954 302.002 23.7954V21.7954ZM286.905 36.3866C286.905 40.8449 288.358 44.5566 291.106 47.1493C293.848 49.7354 297.767 51.1041 302.507 51.1041V49.1041C298.145 49.1041 294.763 47.8494 292.479 45.6945C290.201 43.546 288.905 40.399 288.905 36.3866H286.905ZM336.326 62.9999H335.326V63.9999H336.326V62.9999ZM336.326 9.89968V8.89968H335.326V9.89968H336.326ZM386.455 9.89968H387.455V8.89968H386.455V9.89968ZM386.455 23.1747V24.1747H387.455V23.1747H386.455ZM353.014 23.1747V22.1747H352.014V23.1747H353.014ZM353.014 30.0019H352.014V31.0019H353.014V30.0019ZM380.766 30.0019H381.766V29.0019H380.766V30.0019ZM380.766 41.7598V42.7598H381.766V41.7598H380.766ZM353.014 41.7598V40.7598H352.014V41.7598H353.014ZM353.014 49.7248H352.014V50.7248H353.014V49.7248ZM386.455 49.7248H387.455V48.7248H386.455V49.7248ZM386.455 62.9999V63.9999H387.455V62.9999H386.455ZM337.326 62.9999V9.89968H335.326V62.9999H337.326ZM336.326 10.8996H386.455V8.89968H336.326V10.8996ZM385.455 9.89968V23.1747H387.455V9.89968H385.455ZM386.455 22.1747H353.014V24.1747H386.455V22.1747ZM352.014 23.1747V30.0019H354.014V23.1747H352.014ZM353.014 31.0019H380.766V29.0019H353.014V31.0019ZM379.766 30.0019V41.7598H381.766V30.0019H379.766ZM380.766 40.7598H353.014V42.7598H380.766V40.7598ZM352.014 41.7598V49.7248H354.014V41.7598H352.014ZM353.014 50.7248H386.455V48.7248H353.014V50.7248ZM385.455 49.7248V62.9999H387.455V49.7248H385.455ZM386.455 61.9999H336.326V63.9999H386.455V61.9999ZM445.853 27.7894V28.7894H446.853V27.7894H445.853ZM428.911 27.7894H427.911V28.7894H428.911V27.7894ZM417.849 30.5076L417.926 29.5106L417.921 29.5102L417.849 30.5076ZM390.73 44.8573V43.8573H389.73V44.8573H390.73ZM407.734 44.8573H408.734V43.8573H407.734V44.8573ZM392.425 26.4619C392.425 21.3181 394.72 17.2995 399.082 14.5201C403.497 11.7071 410.077 10.1411 418.607 10.1411V8.14111C409.88 8.14111 402.869 9.73582 398.007 12.8333C393.093 15.9645 390.425 20.6062 390.425 26.4619H392.425ZM418.607 10.1411C427.294 10.1411 433.875 11.7701 438.256 14.7632C442.581 17.7181 444.853 22.0617 444.853 27.7894H446.853C446.853 21.443 444.289 16.4625 439.384 13.1118C434.536 9.79922 427.494 8.14111 418.607 8.14111V10.1411ZM445.853 26.7894H428.911V28.7894H445.853V26.7894ZM429.911 27.7894C429.911 25.1808 428.516 23.2489 426.307 22.0237C424.147 20.826 421.19 20.2783 417.849 20.2783V22.2783C421.018 22.2783 423.592 22.8052 425.337 23.7726C427.031 24.7124 427.911 26.0361 427.911 27.7894H429.911ZM417.849 20.2783C414.633 20.2783 412.031 20.7946 410.193 21.7798C408.324 22.7822 407.177 24.3252 407.177 26.2722H409.177C409.177 25.2481 409.737 24.2942 411.139 23.5424C412.573 22.7734 414.806 22.2783 417.849 22.2783V20.2783ZM407.177 26.2722C407.177 27.3362 407.553 28.228 408.228 28.9326C408.877 29.6102 409.759 30.0705 410.719 30.4019C412.623 31.0594 415.169 31.3165 417.777 31.505L417.921 29.5102C415.282 29.3194 412.992 29.0708 411.372 28.5114C410.569 28.2344 410.017 27.9085 409.672 27.5489C409.354 27.2164 409.177 26.8202 409.177 26.2722H407.177ZM417.771 31.5046C423.971 31.9864 431.014 32.1386 436.568 33.8873C439.321 34.754 441.603 35.9856 443.195 37.7621C444.767 39.5163 445.738 41.8814 445.738 45.1734H447.738C447.738 41.4485 446.623 38.5906 444.684 36.4274C442.766 34.2865 440.113 32.9067 437.169 31.9796C431.329 30.1409 423.927 29.977 417.926 29.5106L417.771 31.5046ZM445.738 45.1734C445.738 51.097 443.462 55.4155 439.113 58.3028C434.696 61.2348 428.036 62.7585 419.176 62.7585V64.7585C428.206 64.7585 435.327 63.2162 440.219 59.969C445.178 56.6771 447.738 51.703 447.738 45.1734H445.738ZM419.176 62.7585C409.882 62.7585 403.001 61.0798 398.471 58.0298C394.001 55.0203 391.73 50.6168 391.73 44.8573H389.73C389.73 51.2351 392.294 56.2821 397.354 59.6888C402.354 63.0552 409.695 64.7585 419.176 64.7585V62.7585ZM390.73 45.8573H407.734V43.8573H390.73V45.8573ZM406.734 44.8573C406.734 46.1428 407.04 47.3146 407.677 48.3367C408.312 49.3554 409.243 50.1713 410.412 50.8024C412.723 52.0494 416.05 52.6213 420.251 52.6213V50.6213C416.17 50.6213 413.239 50.0552 411.362 49.0423C410.438 48.5435 409.792 47.9489 409.374 47.2786C408.958 46.6117 408.734 45.8159 408.734 44.8573H406.734ZM420.251 52.6213C423.579 52.6213 426.172 52.2584 427.967 51.4409C428.878 51.0259 429.627 50.4743 430.147 49.7526C430.675 49.0207 430.923 48.1752 430.923 47.2595H428.923C428.923 47.7977 428.783 48.2244 428.525 48.5829C428.259 48.9516 427.823 49.3088 427.138 49.6208C425.74 50.2572 423.497 50.6213 420.251 50.6213V52.6213ZM430.923 47.2595C430.923 46.0306 430.482 45.0142 429.676 44.2215C428.902 43.46 427.841 42.9523 426.661 42.5897C424.314 41.869 421.108 41.6134 417.659 41.394L417.532 43.3899C421.037 43.613 423.995 43.8631 426.073 44.5015C427.105 44.8185 427.822 45.2037 428.273 45.6472C428.692 46.0595 428.923 46.5603 428.923 47.2595H430.923ZM417.659 41.394C412.061 41.0422 405.708 40.7738 400.729 38.8069C398.267 37.8339 396.208 36.4677 394.761 34.5233C393.32 32.5879 392.425 29.9977 392.425 26.4619H390.425C390.425 30.3537 391.418 33.3817 393.156 35.7173C394.888 38.0438 397.297 39.6013 399.995 40.667C405.336 42.7774 412.067 43.0464 417.532 43.3899L417.659 41.394Z" fill="black" fill-opacity="0.3"/>
</g>
<path d="M2.9395 19.4619C2.9395 8.46257 12.8642 2.14111 30.1218 2.14111C47.6954 2.14111 57.3673 8.71543 57.3673 20.7894H40.4257C40.4257 16.4276 35.8743 14.2783 29.3632 14.2783C23.1049 14.2783 19.6914 16.3011 19.6914 19.2722C19.6914 22.4962 24.1164 23.1283 29.3632 23.5076C41.5636 24.4558 58.2523 24.1397 58.2523 38.1734C58.2523 50.6267 48.5804 56.7585 30.6907 56.7585C11.916 56.7585 2.24414 49.9945 2.24414 37.8573H19.2489C19.2489 42.3455 23.4842 44.6213 31.7653 44.6213C38.3397 44.6213 41.4372 43.1673 41.4372 40.2595C41.4372 36.4034 36.0639 35.8344 29.1103 35.3919C18.0478 34.6966 2.9395 34.3173 2.9395 19.4619ZM63.9598 55.9999V2.89968H114.089V16.1747H80.6485V23.0019H108.399V34.7598H80.6485V42.7248H114.089V55.9999H63.9598ZM120.26 55.9999V2.89968H155.407C168.114 2.89968 176.395 9.41079 176.395 19.3354C176.395 26.6683 171.906 32.1048 165.332 33.6219C168.05 35.0127 170.2 36.9723 171.59 39.6273L180.061 55.9999H162.045L154.775 41.8398C153.195 38.8055 151.425 38.047 145.672 38.047H136.949V55.9999H120.26ZM136.949 27.0476H152.626C157.177 27.0476 159.706 25.1512 159.706 21.7376C159.706 18.4504 157.051 16.554 152.626 16.554H136.949V27.0476ZM178.2 2.89968H195.964L210.44 41.8398H212.715L227.192 2.89968H245.018L224.22 55.9999H198.998L178.2 2.89968ZM248.788 55.9999V2.89968H265.477V55.9999H248.788ZM302.507 43.1041C309.398 43.1041 313.317 39.9434 313.949 35.2655H330.638C330.638 48.4141 319.322 56.7585 302.128 56.7585C283.29 56.7585 271.153 46.0752 271.153 29.4498C271.153 12.8243 283.29 2.14111 302.128 2.14111C319.322 2.14111 330.638 10.4854 330.638 23.634H313.949C313.317 18.9561 309.208 15.7954 302.002 15.7954C293.025 15.7954 287.905 20.7262 287.905 29.3866C287.905 37.8573 293.404 43.1041 302.507 43.1041ZM336.326 55.9999V2.89968H386.455V16.1747H353.014V23.0019H380.766V34.7598H353.014V42.7248H386.455V55.9999H336.326ZM391.425 19.4619C391.425 8.46257 401.35 2.14111 418.607 2.14111C436.181 2.14111 445.853 8.71543 445.853 20.7894H428.911C428.911 16.4276 424.36 14.2783 417.849 14.2783C411.591 14.2783 408.177 16.3011 408.177 19.2722C408.177 22.4962 412.602 23.1283 417.849 23.5076C430.049 24.4558 446.738 24.1397 446.738 38.1734C446.738 50.6267 437.066 56.7585 419.176 56.7585C400.402 56.7585 390.73 49.9945 390.73 37.8573H407.734C407.734 42.3455 411.97 44.6213 420.251 44.6213C426.825 44.6213 429.923 43.1673 429.923 40.2595C429.923 36.4034 424.549 35.8344 417.596 35.3919C406.533 34.6966 391.425 34.3173 391.425 19.4619Z" fill="black"/>
</svg>
