<svg width="308" height="95" viewBox="0 0 308 95" fill="none" xmlns="http://www.w3.org/2000/svg">
<mask id="mask0_271_326" style="mask-type:luminance" maskUnits="userSpaceOnUse" x="1" y="18" width="306" height="57">
<path d="M307 18H1V75H307V18Z" fill="white"/>
<path d="M2.8145 36.4614C2.8145 25.462 12.7392 19.1406 29.9968 19.1406C47.5704 19.1406 57.2423 25.7149 57.2423 37.7889H40.3007C40.3007 33.4271 35.7493 31.2778 29.2382 31.2778C22.98 31.2778 19.5664 33.3006 19.5664 36.2717C19.5664 39.4957 23.9914 40.1278 29.2382 40.5071C41.4386 41.4553 58.1273 41.1392 58.1273 55.1729C58.1273 67.6262 48.4554 73.758 30.5657 73.758C11.791 73.758 2.11914 66.994 2.11914 54.8568H19.1239C19.1239 59.345 23.3592 61.6208 31.6403 61.6208C38.2147 61.6208 41.3122 60.1668 41.3122 57.259C41.3122 53.4029 35.9389 52.8339 28.9853 52.3914C17.9228 51.6961 2.8145 51.3168 2.8145 36.4614ZM63.8348 72.9994V19.8991H80.5235V40.0014L102.143 19.8991H122.751L101.827 39.1164L124.016 72.9994H104.672L89.8793 50.1789L80.5235 58.7761V72.9994H63.8348ZM128.47 72.9994V19.8991H145.158V72.9994H128.47ZM152.731 72.9994V19.8991H169.419V59.345H197.171V72.9994H152.731ZM202.241 72.9994V19.8991H218.929V59.345H246.68V72.9994H202.241ZM250.549 36.4614C250.549 25.462 260.474 19.1406 277.732 19.1406C295.305 19.1406 304.977 25.7149 304.977 37.7889H288.036C288.036 33.4271 283.484 31.2778 276.973 31.2778C270.715 31.2778 267.301 33.3006 267.301 36.2717C267.301 39.4957 271.726 40.1278 276.973 40.5071C289.174 41.4553 305.862 41.1392 305.862 55.1729C305.862 67.6262 296.19 73.758 278.301 73.758C259.526 73.758 249.854 66.994 249.854 54.8568H266.859C266.859 59.345 271.094 61.6208 279.375 61.6208C285.95 61.6208 289.047 60.1668 289.047 57.259C289.047 53.4029 283.674 52.8339 276.72 52.3914C265.658 51.6961 250.549 51.3168 250.549 36.4614Z" fill="black"/>
</mask>
<g mask="url(#mask0_271_326)">
<path d="M57.2423 37.7889V38.7889H58.2423V37.7889H57.2423ZM40.3007 37.7889H39.3007V38.7889H40.3007V37.7889ZM29.2382 40.5071L29.3157 39.5101L29.3103 39.5097L29.2382 40.5071ZM2.11914 54.8568V53.8568H1.11914V54.8568H2.11914ZM19.1239 54.8568H20.1239V53.8568H19.1239V54.8568ZM3.8145 36.4614C3.8145 31.3176 6.10897 27.299 10.4714 24.5196C14.8864 21.7066 21.4669 20.1406 29.9968 20.1406V18.1406C21.269 18.1406 14.2584 19.7353 9.3967 22.8328C4.48237 25.964 1.8145 30.6058 1.8145 36.4614H3.8145ZM29.9968 20.1406C38.6837 20.1406 45.2647 21.7696 49.6455 24.7627C53.9706 27.7176 56.2423 32.0612 56.2423 37.7889H58.2423C58.2423 31.4425 55.678 26.462 50.7738 23.1113C45.9252 19.7987 38.8835 18.1406 29.9968 18.1406V20.1406ZM57.2423 36.7889H40.3007V38.7889H57.2423V36.7889ZM41.3007 37.7889C41.3007 35.1803 39.9053 33.2484 37.6962 32.0232C35.5369 30.8255 32.5798 30.2778 29.2382 30.2778V32.2778C32.4077 32.2778 34.9819 32.8047 36.7261 33.7721C38.4205 34.7119 39.3007 36.0356 39.3007 37.7889H41.3007ZM29.2382 30.2778C26.0228 30.2778 23.4202 30.7941 21.5829 31.7793C19.7135 32.7817 18.5664 34.3247 18.5664 36.2717H20.5664C20.5664 35.2476 21.126 34.2937 22.528 33.5419C23.962 32.7729 26.1953 32.2778 29.2382 32.2778V30.2778ZM18.5664 36.2717C18.5664 37.3357 18.9426 38.2275 19.6177 38.9321C20.2669 39.6097 21.1485 40.07 22.1083 40.4014C24.0126 41.0589 26.5585 41.316 29.1661 41.5045L29.3103 39.5097C26.671 39.3189 24.3811 39.0703 22.7611 38.5109C21.9588 38.2339 21.4063 37.908 21.0618 37.5484C20.7432 37.2159 20.5664 36.8197 20.5664 36.2717H18.5664ZM29.1607 41.5041C35.3605 41.9859 42.4032 42.1381 47.9576 43.8868C50.7103 44.7535 52.9924 45.9851 54.5843 47.7616C56.1562 49.5158 57.1273 51.8809 57.1273 55.1729H59.1273C59.1273 51.448 58.0122 48.5901 56.0738 46.4269C54.1553 44.2861 51.5027 42.9062 48.5582 41.9791C42.7181 40.1404 35.3163 39.9765 29.3157 39.5101L29.1607 41.5041ZM57.1273 55.1729C57.1273 61.0965 54.8514 65.415 50.5021 68.3023C46.0852 71.2343 39.4257 72.758 30.5657 72.758V74.758C39.5954 74.758 46.7167 73.2157 51.6082 69.9685C56.5672 66.6766 59.1273 61.7025 59.1273 55.1729H57.1273ZM30.5657 72.758C21.2719 72.758 14.3902 71.0793 9.8604 68.0293C5.3906 65.0198 3.11914 60.6163 3.11914 54.8568H1.11914C1.11914 61.2346 3.68359 66.2816 8.74339 69.6883C13.7431 73.0547 21.0848 74.758 30.5657 74.758V72.758ZM2.11914 55.8568H19.1239V53.8568H2.11914V55.8568ZM18.1239 54.8568C18.1239 56.1423 18.4293 57.3141 19.0664 58.3362C19.7015 59.3549 20.6322 60.1708 21.8018 60.8019C24.1127 62.0489 27.4398 62.6208 31.6403 62.6208V60.6208C27.5598 60.6208 24.6286 60.0547 22.7516 59.0418C21.8272 58.543 21.1815 57.9484 20.7636 57.2781C20.3479 56.6112 20.1239 55.8154 20.1239 54.8568H18.1239ZM31.6403 62.6208C34.9683 62.6208 37.5611 62.2579 39.3561 61.4404C40.2672 61.0254 41.0162 60.4738 41.5366 59.7521C42.0643 59.0202 42.3122 58.1747 42.3122 57.259H40.3122C40.3122 57.7972 40.1728 58.2239 39.9143 58.5824C39.6485 58.9511 39.2122 59.3083 38.5272 59.6203C37.1299 60.2567 34.8867 60.6208 31.6403 60.6208V62.6208ZM42.3122 57.259C42.3122 56.0301 41.871 55.0137 41.0653 54.221C40.2913 53.4595 39.2306 52.9518 38.05 52.5892C35.7037 51.8685 32.4975 51.6129 29.0488 51.3935L28.9218 53.3894C32.4268 53.6125 35.384 53.8626 37.4628 54.501C38.4947 54.818 39.2119 55.2032 39.6626 55.6467C40.0817 56.059 40.3122 56.5598 40.3122 57.259H42.3122ZM29.0488 51.3935C23.4511 51.0417 17.0971 50.7733 12.1189 48.8064C9.65625 47.8334 7.59731 46.4672 6.15024 44.5228C4.70992 42.5874 3.8145 39.9972 3.8145 36.4614H1.8145C1.8145 40.3532 2.80761 43.3812 4.5458 45.7168C6.27724 48.0433 8.68678 49.6008 11.384 50.6665C16.7256 52.7769 23.4569 53.0459 28.9218 53.3894L29.0488 51.3935ZM63.8348 72.9994H62.8348V73.9994H63.8348V72.9994ZM63.8348 19.8991V18.8991H62.8348V19.8991H63.8348ZM80.5235 19.8991H81.5235V18.8991H80.5235V19.8991ZM80.5235 40.0014H79.5235V42.2967L81.2044 40.7337L80.5235 40.0014ZM102.143 19.8991V18.8991H101.75L101.462 19.1668L102.143 19.8991ZM122.751 19.8991L123.428 20.6357L125.318 18.8991H122.751V19.8991ZM101.827 39.1164L101.151 38.3799L100.526 38.9541L100.991 39.6642L101.827 39.1164ZM124.016 72.9994V73.9994H125.866L124.852 72.4516L124.016 72.9994ZM104.672 72.9994L103.833 73.5433L104.128 73.9994H104.672V72.9994ZM89.8793 50.1789L90.7184 49.635L90.0744 48.6415L89.2026 49.4426L89.8793 50.1789ZM80.5235 58.7761L79.8469 58.0398L79.5235 58.3369V58.7761H80.5235ZM80.5235 72.9994V73.9994H81.5235V72.9994H80.5235ZM64.8348 72.9994V19.8991H62.8348V72.9994H64.8348ZM63.8348 20.8991H80.5235V18.8991H63.8348V20.8991ZM79.5235 19.8991V40.0014H81.5235V19.8991H79.5235ZM81.2044 40.7337L102.824 20.6315L101.462 19.1668L79.8426 39.269L81.2044 40.7337ZM102.143 20.8991H122.751V18.8991H102.143V20.8991ZM122.075 19.1626L101.151 38.3799L102.504 39.8529L123.428 20.6357L122.075 19.1626ZM100.991 39.6642L123.179 73.5472L124.852 72.4516L102.664 38.5685L100.991 39.6642ZM124.016 71.9994H104.672V73.9994H124.016V71.9994ZM105.511 72.4555L90.7184 49.635L89.0401 50.7229L103.833 73.5433L105.511 72.4555ZM89.2026 49.4426L79.8469 58.0398L81.2001 59.5124L90.5559 50.9153L89.2026 49.4426ZM79.5235 58.7761V72.9994H81.5235V58.7761H79.5235ZM80.5235 71.9994H63.8348V73.9994H80.5235V71.9994ZM128.47 72.9994H127.47V73.9994H128.47V72.9994ZM128.47 19.8991V18.8991H127.47V19.8991H128.47ZM145.158 19.8991H146.158V18.8991H145.158V19.8991ZM145.158 72.9994V73.9994H146.158V72.9994H145.158ZM129.47 72.9994V19.8991H127.47V72.9994H129.47ZM128.47 20.8991H145.158V18.8991H128.47V20.8991ZM144.158 19.8991V72.9994H146.158V19.8991H144.158ZM145.158 71.9994H128.47V73.9994H145.158V71.9994ZM152.731 72.9994H151.731V73.9994H152.731V72.9994ZM152.731 19.8991V18.8991H151.731V19.8991H152.731ZM169.419 19.8991H170.419V18.8991H169.419V19.8991ZM169.419 59.345H168.419V60.345H169.419V59.345ZM197.171 59.345H198.171V58.345H197.171V59.345ZM197.171 72.9994V73.9994H198.171V72.9994H197.171ZM153.731 72.9994V19.8991H151.731V72.9994H153.731ZM152.731 20.8991H169.419V18.8991H152.731V20.8991ZM168.419 19.8991V59.345H170.419V19.8991H168.419ZM169.419 60.345H197.171V58.345H169.419V60.345ZM196.171 59.345V72.9994H198.171V59.345H196.171ZM197.171 71.9994H152.731V73.9994H197.171V71.9994ZM202.241 72.9994H201.241V73.9994H202.241V72.9994ZM202.241 19.8991V18.8991H201.241V19.8991H202.241ZM218.929 19.8991H219.929V18.8991H218.929V19.8991ZM218.929 59.345H217.929V60.345H218.929V59.345ZM246.68 59.345H247.68V58.345H246.68V59.345ZM246.68 72.9994V73.9994H247.68V72.9994H246.68ZM203.241 72.9994V19.8991H201.241V72.9994H203.241ZM202.241 20.8991H218.929V18.8991H202.241V20.8991ZM217.929 19.8991V59.345H219.929V19.8991H217.929ZM218.929 60.345H246.68V58.345H218.929V60.345ZM245.68 59.345V72.9994H247.68V59.345H245.68ZM246.68 71.9994H202.241V73.9994H246.68V71.9994ZM304.977 37.7889V38.7889H305.977V37.7889H304.977ZM288.036 37.7889H287.036V38.7889H288.036V37.7889ZM276.973 40.5071L277.051 39.5101L277.045 39.5097L276.973 40.5071ZM249.854 54.8568V53.8568H248.854V54.8568H249.854ZM266.859 54.8568H267.859V53.8568H266.859V54.8568ZM276.72 52.3914L276.784 51.3935L276.783 51.3934L276.72 52.3914ZM251.549 36.4614C251.549 31.3176 253.844 27.299 258.206 24.5196C262.621 21.7066 269.202 20.1406 277.732 20.1406V18.1406C269.004 18.1406 261.993 19.7353 257.132 22.8328C252.217 25.964 249.549 30.6058 249.549 36.4614H251.549ZM277.732 20.1406C286.419 20.1406 293 21.7696 297.38 24.7627C301.705 27.7176 303.977 32.0612 303.977 37.7889H305.977C305.977 31.4425 303.413 26.462 298.509 23.1113C293.66 19.7987 286.618 18.1406 277.732 18.1406V20.1406ZM304.977 36.7889H288.036V38.7889H304.977V36.7889ZM289.036 37.7889C289.036 35.1803 287.64 33.2484 285.431 32.0232C283.272 30.8255 280.315 30.2778 276.973 30.2778V32.2778C280.143 32.2778 282.717 32.8047 284.461 33.7721C286.155 34.7119 287.036 36.0356 287.036 37.7889H289.036ZM276.973 30.2778C273.758 30.2778 271.155 30.7941 269.318 31.7793C267.448 32.7817 266.301 34.3247 266.301 36.2717H268.301C268.301 35.2476 268.861 34.2937 270.263 33.5419C271.697 32.7729 273.93 32.2778 276.973 32.2778V30.2778ZM266.301 36.2717C266.301 37.3357 266.678 38.2275 267.353 38.9321C268.002 39.6097 268.883 40.07 269.843 40.4014C271.748 41.0589 274.293 41.316 276.901 41.5045L277.045 39.5097C274.406 39.3189 272.116 39.0703 270.496 38.5109C269.694 38.2339 269.141 37.908 268.797 37.5484C268.478 37.2159 268.301 36.8197 268.301 36.2717H266.301ZM276.896 41.5041C283.095 41.9859 290.138 42.1381 295.692 43.8868C298.445 44.7535 300.727 45.9851 302.319 47.7616C303.891 49.5158 304.862 51.8809 304.862 55.1729H306.862C306.862 51.448 305.747 48.5901 303.809 46.4269C301.89 44.2861 299.238 42.9062 296.293 41.9791C290.453 40.1404 283.051 39.9765 277.051 39.5101L276.896 41.5041ZM304.862 55.1729C304.862 61.0965 302.586 65.415 298.237 68.3023C293.82 71.2343 287.161 72.758 278.301 72.758V74.758C287.33 74.758 294.452 73.2157 299.343 69.9685C304.302 66.6766 306.862 61.7025 306.862 55.1729H304.862ZM278.301 72.758C269.007 72.758 262.125 71.0793 257.595 68.0293C253.126 65.0198 250.854 60.6163 250.854 54.8568H248.854C248.854 61.2346 251.419 66.2816 256.478 69.6883C261.478 73.0547 268.82 74.758 278.301 74.758V72.758ZM249.854 55.8568H266.859V53.8568H249.854V55.8568ZM265.859 54.8568C265.859 56.1423 266.164 57.3141 266.801 58.3362C267.436 59.3549 268.367 60.1708 269.537 60.8019C271.848 62.0489 275.175 62.6208 279.375 62.6208V60.6208C275.295 60.6208 272.364 60.0547 270.486 59.0418C269.562 58.543 268.916 57.9484 268.499 57.2781C268.083 56.6112 267.859 55.8154 267.859 54.8568H265.859ZM279.375 62.6208C282.703 62.6208 285.296 62.2579 287.091 61.4404C288.002 61.0254 288.751 60.4738 289.272 59.7521C289.799 59.0202 290.047 58.1747 290.047 57.259H288.047C288.047 57.7972 287.908 58.2239 287.649 58.5824C287.383 58.9511 286.947 59.3083 286.262 59.6203C284.865 60.2567 282.622 60.6208 279.375 60.6208V62.6208ZM290.047 57.259C290.047 56.0301 289.606 55.0137 288.8 54.221C288.026 53.4595 286.965 52.9518 285.785 52.5892C283.439 51.8685 280.232 51.6129 276.784 51.3935L276.657 53.3894C280.162 53.6125 283.119 53.8626 285.198 54.501C286.23 54.818 286.947 55.2032 287.398 55.6467C287.817 56.059 288.047 56.5598 288.047 57.259H290.047ZM276.783 51.3934C271.185 51.0416 264.832 50.7733 259.854 48.8064C257.391 47.8334 255.332 46.4672 253.885 44.5228C252.445 42.5874 251.549 39.9972 251.549 36.4614H249.549C249.549 40.3532 250.543 43.3812 252.281 45.7168C254.012 48.0433 256.422 49.6008 259.119 50.6665C264.461 52.7769 271.192 53.0459 276.657 53.3894L276.783 51.3934Z" fill="white" fill-opacity="0.3"/>
</g>
<path d="M2.8145 26.4614C2.8145 15.462 12.7392 9.14062 29.9968 9.14062C47.5704 9.14062 57.2423 15.7149 57.2423 27.7889H40.3007C40.3007 23.4271 35.7493 21.2778 29.2382 21.2778C22.98 21.2778 19.5664 23.3006 19.5664 26.2717C19.5664 29.4957 23.9914 30.1278 29.2382 30.5071C41.4386 31.4553 58.1273 31.1392 58.1273 45.1729C58.1273 57.6262 48.4554 63.758 30.5657 63.758C11.791 63.758 2.11914 56.994 2.11914 44.8568H19.1239C19.1239 49.345 23.3592 51.6208 31.6403 51.6208C38.2147 51.6208 41.3122 50.1668 41.3122 47.259C41.3122 43.4029 35.9389 42.8339 28.9853 42.3914C17.9228 41.6961 2.8145 41.3168 2.8145 26.4614ZM63.8348 62.9994V9.89919H80.5235V30.0014L102.143 9.89919H122.751L101.827 29.1164L124.016 62.9994H104.672L89.8793 40.1789L80.5235 48.7761V62.9994H63.8348ZM128.47 62.9994V9.89919H145.158V62.9994H128.47ZM152.731 62.9994V9.89919H169.419V49.345H197.171V62.9994H152.731ZM202.241 62.9994V9.89919H218.929V49.345H246.68V62.9994H202.241ZM250.549 26.4614C250.549 15.462 260.474 9.14062 277.732 9.14062C295.305 9.14062 304.977 15.7149 304.977 27.7889H288.036C288.036 23.4271 283.484 21.2778 276.973 21.2778C270.715 21.2778 267.301 23.3006 267.301 26.2717C267.301 29.4957 271.726 30.1278 276.973 30.5071C289.174 31.4553 305.862 31.1392 305.862 45.1729C305.862 57.6262 296.19 63.758 278.301 63.758C259.526 63.758 249.854 56.994 249.854 44.8568H266.859C266.859 49.345 271.094 51.6208 279.375 51.6208C285.95 51.6208 289.047 50.1668 289.047 47.259C289.047 43.4029 283.674 42.8339 276.72 42.3914C265.658 41.6961 250.549 41.3168 250.549 26.4614Z" fill="white"/>
</svg>
