<svg width="308" height="95" viewBox="0 0 308 95" fill="none" xmlns="http://www.w3.org/2000/svg">
<mask id="mask0_248_650" style="mask-type:luminance" maskUnits="userSpaceOnUse" x="1" y="18" width="306" height="57">
<path d="M307 18H1V75H307V18Z" fill="white"/>
<path d="M2.8145 36.4619C2.8145 25.4625 12.7392 19.1411 29.9968 19.1411C47.5704 19.1411 57.2423 25.7154 57.2423 37.7894H40.3007C40.3007 33.4276 35.7493 31.2783 29.2382 31.2783C22.98 31.2783 19.5664 33.3011 19.5664 36.2722C19.5664 39.4962 23.9914 40.1283 29.2382 40.5076C41.4386 41.4558 58.1273 41.1397 58.1273 55.1734C58.1273 67.6267 48.4554 73.7585 30.5657 73.7585C11.791 73.7585 2.11914 66.9945 2.11914 54.8573H19.1239C19.1239 59.3455 23.3592 61.6213 31.6403 61.6213C38.2147 61.6213 41.3122 60.1673 41.3122 57.2595C41.3122 53.4034 35.9389 52.8344 28.9853 52.3919C17.9228 51.6966 2.8145 51.3173 2.8145 36.4619ZM63.8348 72.9999V19.8996H80.5235V40.0019L102.143 19.8996H122.751L101.827 39.1169L124.016 72.9999H104.672L89.8793 50.1794L80.5235 58.7766V72.9999H63.8348ZM128.47 72.9999V19.8996H145.158V72.9999H128.47ZM152.731 72.9999V19.8996H169.419V59.3455H197.171V72.9999H152.731ZM202.241 72.9999V19.8996H218.929V59.3455H246.68V72.9999H202.241ZM250.549 36.4619C250.549 25.4625 260.474 19.1411 277.732 19.1411C295.305 19.1411 304.977 25.7154 304.977 37.7894H288.036C288.036 33.4276 283.484 31.2783 276.973 31.2783C270.715 31.2783 267.301 33.3011 267.301 36.2722C267.301 39.4962 271.726 40.1283 276.973 40.5076C289.174 41.4558 305.862 41.1397 305.862 55.1734C305.862 67.6267 296.19 73.7585 278.301 73.7585C259.526 73.7585 249.854 66.9945 249.854 54.8573H266.859C266.859 59.3455 271.094 61.6213 279.375 61.6213C285.95 61.6213 289.047 60.1673 289.047 57.2595C289.047 53.4034 283.674 52.8344 276.72 52.3919C265.658 51.6966 250.549 51.3173 250.549 36.4619Z" fill="black"/>
</mask>
<g mask="url(#mask0_248_650)">
<path d="M57.2423 37.7894V38.7894H58.2423V37.7894H57.2423ZM40.3007 37.7894H39.3007V38.7894H40.3007V37.7894ZM29.2382 40.5076L29.3157 39.5106L29.3103 39.5102L29.2382 40.5076ZM2.11914 54.8573V53.8573H1.11914V54.8573H2.11914ZM19.1239 54.8573H20.1239V53.8573H19.1239V54.8573ZM3.8145 36.4619C3.8145 31.3181 6.10897 27.2995 10.4714 24.5201C14.8864 21.7071 21.4669 20.1411 29.9968 20.1411V18.1411C21.269 18.1411 14.2584 19.7358 9.3967 22.8333C4.48237 25.9645 1.8145 30.6063 1.8145 36.4619H3.8145ZM29.9968 20.1411C38.6837 20.1411 45.2647 21.7701 49.6455 24.7632C53.9706 27.7181 56.2423 32.0617 56.2423 37.7894H58.2423C58.2423 31.443 55.678 26.4625 50.7738 23.1118C45.9252 19.7992 38.8835 18.1411 29.9968 18.1411V20.1411ZM57.2423 36.7894H40.3007V38.7894H57.2423V36.7894ZM41.3007 37.7894C41.3007 35.1808 39.9053 33.2489 37.6962 32.0237C35.5369 30.826 32.5798 30.2783 29.2382 30.2783V32.2783C32.4077 32.2783 34.9819 32.8052 36.7261 33.7726C38.4205 34.7124 39.3007 36.0361 39.3007 37.7894H41.3007ZM29.2382 30.2783C26.0228 30.2783 23.4202 30.7946 21.5829 31.7798C19.7135 32.7822 18.5664 34.3252 18.5664 36.2722H20.5664C20.5664 35.2481 21.126 34.2942 22.528 33.5424C23.962 32.7734 26.1953 32.2783 29.2382 32.2783V30.2783ZM18.5664 36.2722C18.5664 37.3362 18.9426 38.228 19.6177 38.9326C20.2669 39.6102 21.1485 40.0705 22.1083 40.4019C24.0126 41.0594 26.5585 41.3165 29.1661 41.505L29.3103 39.5102C26.671 39.3194 24.3811 39.0708 22.7611 38.5114C21.9588 38.2344 21.4063 37.9085 21.0618 37.5489C20.7432 37.2164 20.5664 36.8202 20.5664 36.2722H18.5664ZM29.1607 41.5046C35.3605 41.9864 42.4032 42.1386 47.9576 43.8873C50.7103 44.754 52.9924 45.9856 54.5843 47.7621C56.1562 49.5163 57.1273 51.8814 57.1273 55.1734H59.1273C59.1273 51.4485 58.0122 48.5906 56.0738 46.4274C54.1553 44.2866 51.5027 42.9067 48.5582 41.9796C42.7181 40.1409 35.3163 39.977 29.3157 39.5106L29.1607 41.5046ZM57.1273 55.1734C57.1273 61.097 54.8514 65.4155 50.5021 68.3028C46.0852 71.2348 39.4257 72.7585 30.5657 72.7585V74.7585C39.5954 74.7585 46.7167 73.2162 51.6082 69.969C56.5672 66.6771 59.1273 61.703 59.1273 55.1734H57.1273ZM30.5657 72.7585C21.2719 72.7585 14.3902 71.0798 9.8604 68.0298C5.3906 65.0203 3.11914 60.6168 3.11914 54.8573H1.11914C1.11914 61.2351 3.68359 66.2821 8.74339 69.6888C13.7431 73.0552 21.0848 74.7585 30.5657 74.7585V72.7585ZM2.11914 55.8573H19.1239V53.8573H2.11914V55.8573ZM18.1239 54.8573C18.1239 56.1428 18.4293 57.3146 19.0664 58.3367C19.7015 59.3554 20.6322 60.1713 21.8018 60.8024C24.1127 62.0494 27.4398 62.6213 31.6403 62.6213V60.6213C27.5598 60.6213 24.6286 60.0552 22.7516 59.0423C21.8272 58.5435 21.1815 57.9489 20.7636 57.2786C20.3479 56.6117 20.1239 55.8159 20.1239 54.8573H18.1239ZM31.6403 62.6213C34.9683 62.6213 37.5611 62.2584 39.3561 61.4409C40.2672 61.0259 41.0162 60.4743 41.5366 59.7526C42.0643 59.0207 42.3122 58.1752 42.3122 57.2595H40.3122C40.3122 57.7977 40.1728 58.2244 39.9143 58.5829C39.6485 58.9516 39.2122 59.3088 38.5272 59.6208C37.1299 60.2572 34.8867 60.6213 31.6403 60.6213V62.6213ZM42.3122 57.2595C42.3122 56.0306 41.871 55.0142 41.0653 54.2215C40.2913 53.46 39.2306 52.9523 38.05 52.5897C35.7037 51.869 32.4975 51.6134 29.0488 51.394L28.9218 53.3899C32.4268 53.613 35.384 53.8631 37.4628 54.5015C38.4947 54.8185 39.2119 55.2037 39.6626 55.6472C40.0817 56.0595 40.3122 56.5603 40.3122 57.2595H42.3122ZM29.0488 51.394C23.4511 51.0422 17.0971 50.7738 12.1189 48.8069C9.65625 47.8339 7.59731 46.4677 6.15024 44.5233C4.70992 42.5879 3.8145 39.9977 3.8145 36.4619H1.8145C1.8145 40.3537 2.80761 43.3817 4.5458 45.7173C6.27724 48.0438 8.68678 49.6013 11.384 50.667C16.7256 52.7774 23.4569 53.0464 28.9218 53.3899L29.0488 51.394ZM63.8348 72.9999H62.8348V73.9999H63.8348V72.9999ZM63.8348 19.8996V18.8996H62.8348V19.8996H63.8348ZM80.5235 19.8996H81.5235V18.8996H80.5235V19.8996ZM80.5235 40.0019H79.5235V42.2972L81.2044 40.7342L80.5235 40.0019ZM102.143 19.8996V18.8996H101.75L101.462 19.1673L102.143 19.8996ZM122.751 19.8996L123.428 20.6362L125.318 18.8996H122.751V19.8996ZM101.827 39.1169L101.151 38.3804L100.526 38.9546L100.991 39.6647L101.827 39.1169ZM124.016 72.9999V73.9999H125.866L124.852 72.4521L124.016 72.9999ZM104.672 72.9999L103.833 73.5438L104.128 73.9999H104.672V72.9999ZM89.8793 50.1794L90.7184 49.6355L90.0744 48.642L89.2026 49.4431L89.8793 50.1794ZM80.5235 58.7766L79.8469 58.0403L79.5235 58.3374V58.7766H80.5235ZM80.5235 72.9999V73.9999H81.5235V72.9999H80.5235ZM64.8348 72.9999V19.8996H62.8348V72.9999H64.8348ZM63.8348 20.8996H80.5235V18.8996H63.8348V20.8996ZM79.5235 19.8996V40.0019H81.5235V19.8996H79.5235ZM81.2044 40.7342L102.824 20.632L101.462 19.1673L79.8426 39.2695L81.2044 40.7342ZM102.143 20.8996H122.751V18.8996H102.143V20.8996ZM122.075 19.1631L101.151 38.3804L102.504 39.8534L123.428 20.6362L122.075 19.1631ZM100.991 39.6647L123.179 73.5477L124.852 72.4521L102.664 38.569L100.991 39.6647ZM124.016 71.9999H104.672V73.9999H124.016V71.9999ZM105.511 72.456L90.7184 49.6355L89.0401 50.7234L103.833 73.5438L105.511 72.456ZM89.2026 49.4431L79.8469 58.0403L81.2001 59.5129L90.5559 50.9158L89.2026 49.4431ZM79.5235 58.7766V72.9999H81.5235V58.7766H79.5235ZM80.5235 71.9999H63.8348V73.9999H80.5235V71.9999ZM128.47 72.9999H127.47V73.9999H128.47V72.9999ZM128.47 19.8996V18.8996H127.47V19.8996H128.47ZM145.158 19.8996H146.158V18.8996H145.158V19.8996ZM145.158 72.9999V73.9999H146.158V72.9999H145.158ZM129.47 72.9999V19.8996H127.47V72.9999H129.47ZM128.47 20.8996H145.158V18.8996H128.47V20.8996ZM144.158 19.8996V72.9999H146.158V19.8996H144.158ZM145.158 71.9999H128.47V73.9999H145.158V71.9999ZM152.731 72.9999H151.731V73.9999H152.731V72.9999ZM152.731 19.8996V18.8996H151.731V19.8996H152.731ZM169.419 19.8996H170.419V18.8996H169.419V19.8996ZM169.419 59.3455H168.419V60.3455H169.419V59.3455ZM197.171 59.3455H198.171V58.3455H197.171V59.3455ZM197.171 72.9999V73.9999H198.171V72.9999H197.171ZM153.731 72.9999V19.8996H151.731V72.9999H153.731ZM152.731 20.8996H169.419V18.8996H152.731V20.8996ZM168.419 19.8996V59.3455H170.419V19.8996H168.419ZM169.419 60.3455H197.171V58.3455H169.419V60.3455ZM196.171 59.3455V72.9999H198.171V59.3455H196.171ZM197.171 71.9999H152.731V73.9999H197.171V71.9999ZM202.241 72.9999H201.241V73.9999H202.241V72.9999ZM202.241 19.8996V18.8996H201.241V19.8996H202.241ZM218.929 19.8996H219.929V18.8996H218.929V19.8996ZM218.929 59.3455H217.929V60.3455H218.929V59.3455ZM246.68 59.3455H247.68V58.3455H246.68V59.3455ZM246.68 72.9999V73.9999H247.68V72.9999H246.68ZM203.241 72.9999V19.8996H201.241V72.9999H203.241ZM202.241 20.8996H218.929V18.8996H202.241V20.8996ZM217.929 19.8996V59.3455H219.929V19.8996H217.929ZM218.929 60.3455H246.68V58.3455H218.929V60.3455ZM245.68 59.3455V72.9999H247.68V59.3455H245.68ZM246.68 71.9999H202.241V73.9999H246.68V71.9999ZM304.977 37.7894V38.7894H305.977V37.7894H304.977ZM288.036 37.7894H287.036V38.7894H288.036V37.7894ZM276.973 40.5076L277.051 39.5106L277.045 39.5102L276.973 40.5076ZM249.854 54.8573V53.8573H248.854V54.8573H249.854ZM266.859 54.8573H267.859V53.8573H266.859V54.8573ZM276.72 52.3919L276.784 51.394L276.783 51.3939L276.72 52.3919ZM251.549 36.4619C251.549 31.3181 253.844 27.2995 258.206 24.5201C262.621 21.7071 269.202 20.1411 277.732 20.1411V18.1411C269.004 18.1411 261.993 19.7358 257.132 22.8333C252.217 25.9645 249.549 30.6063 249.549 36.4619H251.549ZM277.732 20.1411C286.419 20.1411 293 21.7701 297.38 24.7632C301.705 27.7181 303.977 32.0617 303.977 37.7894H305.977C305.977 31.443 303.413 26.4625 298.509 23.1118C293.66 19.7992 286.618 18.1411 277.732 18.1411V20.1411ZM304.977 36.7894H288.036V38.7894H304.977V36.7894ZM289.036 37.7894C289.036 35.1808 287.64 33.2489 285.431 32.0237C283.272 30.826 280.315 30.2783 276.973 30.2783V32.2783C280.143 32.2783 282.717 32.8052 284.461 33.7726C286.155 34.7124 287.036 36.0361 287.036 37.7894H289.036ZM276.973 30.2783C273.758 30.2783 271.155 30.7946 269.318 31.7798C267.448 32.7822 266.301 34.3252 266.301 36.2722H268.301C268.301 35.2481 268.861 34.2942 270.263 33.5424C271.697 32.7734 273.93 32.2783 276.973 32.2783V30.2783ZM266.301 36.2722C266.301 37.3362 266.678 38.228 267.353 38.9326C268.002 39.6102 268.883 40.0705 269.843 40.4019C271.748 41.0594 274.293 41.3165 276.901 41.505L277.045 39.5102C274.406 39.3194 272.116 39.0708 270.496 38.5114C269.694 38.2344 269.141 37.9085 268.797 37.5489C268.478 37.2164 268.301 36.8202 268.301 36.2722H266.301ZM276.896 41.5046C283.095 41.9864 290.138 42.1386 295.692 43.8873C298.445 44.754 300.727 45.9856 302.319 47.7621C303.891 49.5163 304.862 51.8814 304.862 55.1734H306.862C306.862 51.4485 305.747 48.5906 303.809 46.4274C301.89 44.2866 299.238 42.9067 296.293 41.9796C290.453 40.1409 283.051 39.977 277.051 39.5106L276.896 41.5046ZM304.862 55.1734C304.862 61.097 302.586 65.4155 298.237 68.3028C293.82 71.2348 287.161 72.7585 278.301 72.7585V74.7585C287.33 74.7585 294.452 73.2162 299.343 69.969C304.302 66.6771 306.862 61.703 306.862 55.1734H304.862ZM278.301 72.7585C269.007 72.7585 262.125 71.0798 257.595 68.0298C253.126 65.0203 250.854 60.6168 250.854 54.8573H248.854C248.854 61.2351 251.419 66.2821 256.478 69.6888C261.478 73.0552 268.82 74.7585 278.301 74.7585V72.7585ZM249.854 55.8573H266.859V53.8573H249.854V55.8573ZM265.859 54.8573C265.859 56.1428 266.164 57.3146 266.801 58.3367C267.436 59.3554 268.367 60.1713 269.537 60.8024C271.848 62.0494 275.175 62.6213 279.375 62.6213V60.6213C275.295 60.6213 272.364 60.0552 270.486 59.0423C269.562 58.5435 268.916 57.9489 268.499 57.2786C268.083 56.6117 267.859 55.8159 267.859 54.8573H265.859ZM279.375 62.6213C282.703 62.6213 285.296 62.2584 287.091 61.4409C288.002 61.0259 288.751 60.4743 289.272 59.7526C289.799 59.0207 290.047 58.1752 290.047 57.2595H288.047C288.047 57.7977 287.908 58.2244 287.649 58.5829C287.383 58.9516 286.947 59.3088 286.262 59.6208C284.865 60.2572 282.622 60.6213 279.375 60.6213V62.6213ZM290.047 57.2595C290.047 56.0306 289.606 55.0142 288.8 54.2215C288.026 53.46 286.965 52.9523 285.785 52.5897C283.439 51.869 280.232 51.6134 276.784 51.394L276.657 53.3899C280.162 53.613 283.119 53.8631 285.198 54.5015C286.23 54.8185 286.947 55.2037 287.398 55.6472C287.817 56.0595 288.047 56.5603 288.047 57.2595H290.047ZM276.783 51.3939C271.185 51.0421 264.832 50.7738 259.854 48.8069C257.391 47.8339 255.332 46.4677 253.885 44.5233C252.445 42.5879 251.549 39.9977 251.549 36.4619H249.549C249.549 40.3537 250.543 43.3817 252.281 45.7173C254.012 48.0438 256.422 49.6013 259.119 50.667C264.461 52.7774 271.192 53.0464 276.657 53.3899L276.783 51.3939Z" fill="black" fill-opacity="0.3"/>
</g>
<path d="M2.8145 26.4619C2.8145 15.4625 12.7392 9.14111 29.9968 9.14111C47.5704 9.14111 57.2423 15.7154 57.2423 27.7894H40.3007C40.3007 23.4276 35.7493 21.2783 29.2382 21.2783C22.98 21.2783 19.5664 23.3011 19.5664 26.2722C19.5664 29.4962 23.9914 30.1283 29.2382 30.5076C41.4386 31.4558 58.1273 31.1397 58.1273 45.1734C58.1273 57.6267 48.4554 63.7585 30.5657 63.7585C11.791 63.7585 2.11914 56.9945 2.11914 44.8573H19.1239C19.1239 49.3455 23.3592 51.6213 31.6403 51.6213C38.2147 51.6213 41.3122 50.1673 41.3122 47.2595C41.3122 43.4034 35.9389 42.8344 28.9853 42.3919C17.9228 41.6966 2.8145 41.3173 2.8145 26.4619ZM63.8348 62.9999V9.89968H80.5235V30.0019L102.143 9.89968H122.751L101.827 29.1169L124.016 62.9999H104.672L89.8793 40.1794L80.5235 48.7766V62.9999H63.8348ZM128.47 62.9999V9.89968H145.158V62.9999H128.47ZM152.731 62.9999V9.89968H169.419V49.3455H197.171V62.9999H152.731ZM202.241 62.9999V9.89968H218.929V49.3455H246.68V62.9999H202.241ZM250.549 26.4619C250.549 15.4625 260.474 9.14111 277.732 9.14111C295.305 9.14111 304.977 15.7154 304.977 27.7894H288.036C288.036 23.4276 283.484 21.2783 276.973 21.2783C270.715 21.2783 267.301 23.3011 267.301 26.2722C267.301 29.4962 271.726 30.1283 276.973 30.5076C289.174 31.4558 305.862 31.1397 305.862 45.1734C305.862 57.6267 296.19 63.7585 278.301 63.7585C259.526 63.7585 249.854 56.9945 249.854 44.8573H266.859C266.859 49.3455 271.094 51.6213 279.375 51.6213C285.95 51.6213 289.047 50.1673 289.047 47.2595C289.047 43.4034 283.674 42.8344 276.72 42.3919C265.658 41.6966 250.549 41.3173 250.549 26.4619Z" fill="black"/>
</svg>
