<svg width="404" height="396" viewBox="0 0 404 396" fill="none" xmlns="http://www.w3.org/2000/svg">
<mask id="path-1-outside-1_194_581" maskUnits="userSpaceOnUse" x="-2" y="-1" width="408" height="398" fill="black">
<rect fill="white" x="-2" y="-1" width="408" height="398"/>
<path d="M149.751 0.752006H254.18V395.264H149.751V0.752006ZM0.067901 138.831L52.2828 48.3256L403.863 251.383L351.648 341.889L0.067901 138.831ZM403.863 139.992L52.2828 343.05L0.067901 252.544L351.648 49.486L403.863 139.992Z"/>
</mask>
<path d="M149.751 0.752007V-0.247993H148.751V0.752007H149.751ZM254.18 0.752007H255.18V-0.247993H254.18V0.752007ZM254.18 395.264V396.264H255.18V395.264H254.18ZM149.751 395.264H148.751V396.264H149.751V395.264ZM0.0679016 138.831L-0.798286 138.332L-1.29777 139.197L-0.432232 139.697L0.0679016 138.831ZM52.2828 48.3256L52.7829 47.4596L51.9165 46.9592L51.4166 47.8259L52.2828 48.3256ZM403.863 251.383L404.729 251.883L405.229 251.017L404.363 250.517L403.863 251.383ZM351.648 341.889L351.148 342.755L352.014 343.256L352.514 342.389L351.648 341.889ZM403.863 139.992L404.363 140.858L405.229 140.358L404.729 139.492L403.863 139.992ZM52.2828 343.05L51.4166 343.549L51.9165 344.416L52.7829 343.916L52.2828 343.05ZM0.0679016 252.544L-0.432232 251.678L-1.29777 252.178L-0.798286 253.043L0.0679016 252.544ZM351.648 49.4859L352.514 48.9862L352.014 48.1196L351.148 48.62L351.648 49.4859ZM149.751 1.75201H254.18V-0.247993H149.751V1.75201ZM253.18 0.752007V395.264H255.18V0.752007H253.18ZM254.18 394.264H149.751V396.264H254.18V394.264ZM150.751 395.264V0.752007H148.751V395.264H150.751ZM0.934086 139.331L53.149 48.8253L51.4166 47.8259L-0.798286 138.332L0.934086 139.331ZM51.7826 49.1915L403.363 252.249L404.363 250.517L52.7829 47.4596L51.7826 49.1915ZM402.997 250.884L350.782 341.389L352.514 342.389L404.729 251.883L402.997 250.884ZM352.148 341.023L0.568035 137.965L-0.432232 139.697L351.148 342.755L352.148 341.023ZM403.363 139.126L51.7826 342.184L52.7829 343.916L404.363 140.858L403.363 139.126ZM53.149 342.55L0.934086 252.044L-0.798286 253.043L51.4166 343.549L53.149 342.55ZM0.568035 253.41L352.148 50.3519L351.148 48.62L-0.432232 251.678L0.568035 253.41ZM350.782 49.9857L402.997 140.491L404.729 139.492L352.514 48.9862L350.782 49.9857Z" fill="white" mask="url(#path-1-outside-1_194_581)"/>
</svg>
