<svg width="30" height="30" viewBox="0 0 30 30" fill="none" xmlns="http://www.w3.org/2000/svg">
<circle cx="15" cy="15" r="15" fill="black"/>
<path d="M15.25 22.0001C13.3272 22.0001 11.4831 21.2362 10.1235 19.8766C8.76384 18.517 8 16.6729 8 14.7501C8 11.8126 9.6875 9.17883 12.3003 8.04164C12.3924 8.00151 12.4944 7.99004 12.5931 8.00874C12.6918 8.02743 12.7826 8.07542 12.8536 8.14645C12.9247 8.21748 12.9726 8.30825 12.9913 8.40695C13.01 8.50564 12.9986 8.60768 12.9584 8.69977C12.6584 9.38852 12.5 10.2707 12.5 11.2501C12.5 14.6963 15.3038 17.5001 18.75 17.5001C19.7294 17.5001 20.6116 17.3416 21.3003 17.0416C21.3924 17.0015 21.4944 16.99 21.5931 17.0087C21.6918 17.0274 21.7826 17.0754 21.8536 17.1464C21.9247 17.2175 21.9726 17.3083 21.9913 17.4069C22.01 17.5056 21.9986 17.6077 21.9584 17.6998C20.8213 20.3126 18.1875 22.0001 15.25 22.0001Z" fill="#FD532F"/>
</svg>
