<svg width="30" height="30" viewBox="0 0 30 30" fill="none" xmlns="http://www.w3.org/2000/svg">
<circle cx="15" cy="15" r="15" fill="#FD532F"/>
<path d="M14.9989 22C15.2438 22 15.4802 22.09 15.6633 22.2527C15.8463 22.4155 15.9632 22.6397 15.9919 22.883L15.9989 23V24C15.9986 24.2549 15.901 24.5 15.726 24.6854C15.5511 24.8707 15.3119 24.9822 15.0575 24.9972C14.8031 25.0121 14.5525 24.9293 14.3571 24.7657C14.1616 24.6021 14.036 24.3701 14.0059 24.117L13.9989 24V23C13.9989 22.7348 14.1042 22.4804 14.2918 22.2929C14.4793 22.1054 14.7337 22 14.9989 22ZM21.3119 19.91L21.4059 19.993L22.1059 20.693C22.2852 20.873 22.3894 21.1144 22.3971 21.3684C22.4049 21.6223 22.3157 21.8697 22.1476 22.0603C21.9796 22.2508 21.7453 22.3703 21.4924 22.3944C21.2395 22.4185 20.9869 22.3454 20.7859 22.19L20.6919 22.107L19.9919 21.407C19.8193 21.2347 19.7156 21.0054 19.7004 20.762C19.6851 20.5187 19.7592 20.2781 19.9088 20.0856C20.0585 19.8931 20.2733 19.7619 20.5129 19.7166C20.7525 19.6714 21.0004 19.7153 21.2099 19.84L21.3119 19.91ZM10.0059 19.993C10.1781 20.1652 10.2815 20.3943 10.2968 20.6373C10.3121 20.8803 10.2381 21.1206 10.0889 21.313L10.0059 21.407L9.30589 22.107C9.12593 22.2863 8.88446 22.3905 8.63051 22.3982C8.37656 22.406 8.12918 22.3168 7.93861 22.1488C7.74805 21.9807 7.62859 21.7464 7.60449 21.4935C7.5804 21.2406 7.65348 20.988 7.80889 20.787L7.89189 20.693L8.59189 19.993C8.77942 19.8055 9.03373 19.7002 9.29889 19.7002C9.56406 19.7002 9.81836 19.8055 10.0059 19.993ZM6.99889 14C7.25377 14.0003 7.49892 14.0979 7.68426 14.2728C7.8696 14.4478 7.98113 14.687 7.99606 14.9414C8.011 15.1958 7.92822 15.4464 7.76463 15.6418C7.60104 15.8373 7.36899 15.9629 7.11589 15.993L6.99889 16H5.99889C5.74401 15.9997 5.49886 15.9021 5.31352 15.7272C5.12819 15.5522 5.01666 15.313 5.00172 15.0586C4.98678 14.8042 5.06957 14.5536 5.23316 14.3582C5.39675 14.1627 5.6288 14.0371 5.88189 14.007L5.99889 14H6.99889ZM23.9989 14C24.2538 14.0003 24.4989 14.0979 24.6843 14.2728C24.8696 14.4478 24.9811 14.687 24.9961 14.9414C25.011 15.1958 24.9282 15.4464 24.7646 15.6418C24.601 15.8373 24.369 15.9629 24.1159 15.993L23.9989 16H22.9989C22.744 15.9997 22.4989 15.9021 22.3135 15.7272C22.1282 15.5522 22.0167 15.313 22.0017 15.0586C21.9868 14.8042 22.0696 14.5536 22.2332 14.3582C22.3967 14.1627 22.6288 14.0371 22.8819 14.007L22.9989 14H23.9989ZM9.21189 7.81L9.30589 7.893L10.0059 8.593C10.1852 8.77296 10.2894 9.01443 10.2971 9.26838C10.3049 9.52233 10.2157 9.76971 10.0476 9.96028C9.87961 10.1508 9.64534 10.2703 9.39242 10.2944C9.1395 10.3185 8.88688 10.2454 8.68589 10.09L8.59189 10.007L7.89189 9.307C7.71998 9.13468 7.61682 8.90557 7.60176 8.66263C7.58669 8.41969 7.66075 8.17959 7.81005 7.98735C7.95936 7.79511 8.17365 7.66393 8.41276 7.61839C8.65187 7.57285 8.89938 7.61609 9.10889 7.74L9.21189 7.81ZM22.1059 7.893C22.2781 8.06519 22.3815 8.29429 22.3968 8.53732C22.4121 8.78034 22.3381 9.0206 22.1889 9.213L22.1059 9.307L21.4059 10.007C21.2259 10.1863 20.9845 10.2905 20.7305 10.2982C20.4766 10.306 20.2292 10.2168 20.0386 10.0488C19.848 9.88072 19.7286 9.64645 19.7045 9.39353C19.6804 9.1406 19.7535 8.88799 19.9089 8.687L19.9919 8.593L20.6919 7.893C20.8794 7.70553 21.1337 7.60021 21.3989 7.60021C21.6641 7.60021 21.9184 7.70553 22.1059 7.893ZM14.9989 5C15.2438 5.00003 15.4802 5.08996 15.6633 5.25272C15.8463 5.41547 15.9632 5.63975 15.9919 5.883L15.9989 6V7C15.9986 7.25488 15.901 7.50003 15.726 7.68537C15.5511 7.8707 15.3119 7.98223 15.0575 7.99717C14.8031 8.01211 14.5525 7.92933 14.3571 7.76574C14.1616 7.60214 14.036 7.3701 14.0059 7.117L13.9989 7V6C13.9989 5.73478 14.1042 5.48043 14.2918 5.29289C14.4793 5.10536 14.7337 5 14.9989 5ZM14.9989 10C15.9786 9.99994 16.9367 10.2877 17.7542 10.8275C18.5718 11.3673 19.2127 12.1354 19.5975 13.0364C19.9822 13.9373 20.0938 14.9315 19.9184 15.8953C19.7429 16.8592 19.2882 17.7502 18.6107 18.4579C17.9332 19.1655 17.0627 19.6585 16.1074 19.8756C15.1521 20.0928 14.1541 20.0245 13.2372 19.6793C12.3204 19.334 11.5252 18.7271 10.9504 17.9338C10.3755 17.1405 10.0464 16.1958 10.0039 15.217L9.99889 15L10.0039 14.783C10.0598 13.4958 10.6105 12.2798 11.5411 11.3887C12.4717 10.4975 13.7104 10.0001 14.9989 10Z" fill="white"/>
</svg>
